  <svg width="130" height="129" viewBox="0 0 130 129" fill="none" xmlns="http://www.w3.org/2000/svg" >
<path d="M35.1299 34.5101L38.7099 44.5101C30.2443 54.5544 25.9755 67.475 26.7909 80.5857C27.6064 93.6963 33.4433 105.988 43.0883 114.906C52.7333 123.824 65.4441 128.682 78.5784 128.469C91.7127 128.257 104.26 122.991 113.611 113.765C122.963 104.54 128.399 92.0657 128.79 78.9355C129.181 65.8053 124.496 53.0296 115.71 43.2643C106.924 33.4991 94.7124 27.4957 81.6141 26.5023C68.5157 25.5088 55.5383 29.6017 45.3799 37.9301L35.1299 34.5101Z" fill="#FAFAFA"/>
<path d="M35.13 34.5101L45.41 37.8602H45.32C47.9897 35.6545 50.8781 33.7278 53.94 32.1102C55.8364 31.106 57.7935 30.221 59.8 29.4602C60.86 29.0402 62 28.7702 63.14 28.4002C64.3103 27.9892 65.5061 27.6551 66.72 27.4002L70.53 26.6502L74.53 26.2601L75.53 26.1602H78.73C79.45 26.1602 80.18 26.1602 80.91 26.2102L83.12 26.4402C89.5594 27.1063 95.8136 28.9897 101.55 31.9902C107.941 35.3099 113.568 39.9286 118.07 45.5502L118.98 46.6402L119.78 47.8202L121.39 50.2001L121.79 50.7902L122.14 51.4302L122.83 52.7102C123.29 53.5602 123.76 54.4202 124.22 55.2902C124.68 56.1602 124.98 57.1001 125.37 58.0101L125.94 59.3902C126.15 59.8422 126.324 60.3104 126.46 60.7902L127.33 63.6702L127.77 65.1201C127.89 65.6101 127.97 66.1202 128.08 66.6102C128.27 67.6102 128.47 68.6102 128.66 69.6102C128.774 70.1135 128.847 70.6251 128.88 71.1402L129.02 72.6802C129.1 73.6802 129.25 74.7402 129.27 75.7802C129.29 76.8202 129.27 77.8702 129.27 78.9202C129.27 79.4501 129.27 79.9702 129.27 80.5002L129.1 82.0702L128.77 85.2402C128.58 86.2902 128.35 87.3302 128.14 88.3802L127.82 89.9602C127.71 90.4902 127.51 90.9601 127.37 91.5101L126.37 94.6201C126.02 95.6201 125.56 96.6201 125.15 97.6201C124.302 99.6464 123.327 101.617 122.23 103.52C121.68 104.52 121.02 105.38 120.43 106.32L119.5 107.71C119.2 108.18 118.82 108.58 118.5 109.03C117.79 109.89 117.09 110.76 116.38 111.64C115.67 112.52 114.81 113.25 114.03 114.06L112.84 115.27C112.43 115.65 111.98 115.99 111.55 116.36L108.96 118.52C108.05 119.17 107.12 119.78 106.2 120.41L104.81 121.35C104.35 121.65 103.81 121.89 103.36 122.16L100.44 123.73C99.44 124.23 98.44 124.6 97.44 125.04C95.4361 125.889 93.3741 126.594 91.27 127.15C90.237 127.462 89.1848 127.706 88.12 127.88C87.06 128.08 86.01 128.31 84.96 128.48L81.78 128.77L80.2 128.91C79.67 128.91 79.14 128.91 78.61 128.91H75.47C74.42 128.91 73.39 128.72 72.36 128.63L70.82 128.46L70.05 128.38L69.29 128.22L66.29 127.61C65.2943 127.405 64.3124 127.137 63.35 126.81L60.47 125.92L57.7 124.77C56.7783 124.417 55.8798 124.007 55.01 123.54C53.262 122.681 51.5718 121.709 49.95 120.63L47.55 119.04C46.8 118.46 46.07 117.85 45.34 117.26C39.7483 112.69 35.1911 106.984 31.97 100.52C30.5144 97.5414 29.3167 94.4434 28.39 91.2601C28.02 89.7001 27.58 88.1802 27.39 86.6402C27.27 85.8702 27.1 85.1202 27.01 84.3602L26.77 82.1002C26.2846 76.5759 26.7034 71.0095 28.01 65.6201C29.0677 61.1947 30.7193 56.9327 32.92 52.9501C34.5991 49.942 36.5542 47.0964 38.76 44.4501V44.5402L35.26 34.5402L38.93 44.5402V44.5901C36.7584 47.2424 34.8337 50.0876 33.18 53.0901C28.3653 61.9541 26.2779 72.0434 27.18 82.0901C27.26 82.8302 27.34 83.5702 27.42 84.3302C27.5 85.0902 27.68 85.8302 27.8 86.5901C28.02 88.1201 28.47 89.5901 28.8 91.1702C29.722 94.3277 30.9165 97.3993 32.37 100.35C35.5428 106.743 40.0349 112.39 45.55 116.92C46.28 117.5 47 118.11 47.75 118.68L50.13 120.25C51.7319 121.319 53.4021 122.281 55.13 123.13C55.9967 123.59 56.8919 123.994 57.81 124.34L60.55 125.48L63.41 126.36C64.3613 126.686 65.3335 126.946 66.32 127.14L69.32 127.75L70.07 127.91L70.84 127.99L72.36 128.15C73.36 128.24 74.41 128.41 75.44 128.43H78.56C79.08 128.43 79.56 128.43 80.12 128.43L81.69 128.28L84.84 127.99C85.84 127.82 86.92 127.59 87.96 127.4C89.0142 127.226 90.0563 126.986 91.08 126.68C93.1663 126.123 95.2112 125.421 97.2 124.58C98.2 124.15 99.2 123.78 100.2 123.29L103.09 121.73C103.57 121.46 104.09 121.22 104.53 120.92L105.9 120C106.81 119.37 107.74 118.77 108.64 118.12L111.2 115.99C111.62 115.63 112.07 115.29 112.48 114.9L113.65 113.71C114.43 112.91 115.24 112.14 115.98 111.31L118.07 108.73C118.426 108.311 118.76 107.874 119.07 107.42L119.98 106.04C120.58 105.12 121.23 104.23 121.77 103.28C122.856 101.395 123.824 99.4447 124.67 97.4402C125.07 96.4402 125.53 95.4402 125.88 94.4402C126.23 93.4402 126.51 92.4402 126.82 91.3602C126.97 90.8502 127.16 90.3602 127.27 89.8302L127.59 88.2702C127.8 87.2202 128.03 86.1902 128.21 85.1502C128.39 84.1102 128.44 83.0602 128.55 82.0202L128.71 80.4602C128.71 79.9402 128.71 79.4602 128.71 78.9002C128.71 77.9002 128.71 76.8202 128.71 75.7902C128.71 74.7602 128.55 73.7902 128.47 72.7202L128.33 71.1902C128.306 70.6815 128.235 70.1761 128.12 69.6802C127.93 68.6802 127.73 67.6802 127.54 66.6802C127.44 66.1902 127.36 65.6801 127.24 65.2001L126.81 63.7601C126.52 62.8101 126.23 61.8602 125.95 60.9102C125.813 60.4342 125.639 59.9695 125.43 59.5202L124.87 58.1602C124.49 57.2502 124.11 56.3501 123.74 55.4501L122.36 52.9002L121.68 51.6302L121.34 51.0002L120.94 50.4102L119.34 48.0502L118.55 46.8802L117.66 45.8002C113.45 40.5065 108.23 36.1013 102.305 32.8398C96.379 29.5783 89.8649 27.5254 83.14 26.8002L80.95 26.5602C80.22 26.5002 79.49 26.5602 78.78 26.5602H76.65H75.65L74.65 26.6602L70.65 27.0302L66.85 27.7601C65.6487 28.0013 64.4632 28.3152 63.3 28.7001C62.16 29.0701 61.02 29.3401 59.97 29.7001C57.967 30.4424 56.0131 31.3108 54.12 32.3002C51.0663 33.8953 48.1817 35.795 45.51 37.9702H45.46L35.13 34.5101Z" fill="#263238"/>
<path d="M83.55 50.6301L63.02 52.5601L54.68 54.9201C51.1113 55.93 47.8455 57.8015 45.17 60.3701L18.29 86.1701L13.43 46.0801L0 47.2501L2.23999 98.8401C3.23036 101.946 5.18237 104.656 7.81396 106.579C10.4456 108.502 13.6205 109.539 16.88 109.54C20.9199 109.485 24.7863 107.889 27.69 105.08L46.83 87.0801L44.93 110.82L43.16 114.82C55.75 127.1 75.1 131.2 90.24 126.99C90.24 126.99 90.86 124.83 93.82 105.93C96.22 90.6401 97.43 57.3401 97.43 57.3401L83.55 50.6301Z" fill="#32BAB0"/>
<path d="M117.45 109.62C117.45 109.62 111.34 76.0701 109.11 68.8501C106.6 60.7101 96.2099 56.8501 96.2099 56.8501L92.9299 86.9701L102.2 122.57C102.2 122.57 112.98 116.16 117.45 109.62Z" fill="#32BAB0"/>
<path d="M45.0401 111.19C44.9201 111.19 45.3801 102.64 46.0401 92.1201C46.7001 81.6001 47.4301 73.0801 47.5501 73.0801C47.6701 73.0801 47.2101 81.6301 46.5501 92.1601C45.8901 102.69 45.1601 111.2 45.0401 111.19Z" fill="#263238"/>
<path d="M78.74 89.6102C78.7047 89.7472 78.6578 89.881 78.6 90.0102L78.13 91.1302C77.8876 91.721 77.6138 92.2984 77.31 92.8602C76.95 93.5202 76.58 94.2902 76.07 95.0802L75.29 96.3502C75.02 96.7802 74.69 97.2102 74.37 97.6602C73.75 98.5902 72.99 99.4902 72.2 100.46C70.4246 102.51 68.4702 104.397 66.36 106.1C64.2233 107.767 61.9446 109.242 59.55 110.51C58.42 111.06 57.37 111.6 56.33 111.99C55.81 112.2 55.33 112.42 54.84 112.59L53.43 113.06C52.54 113.38 51.71 113.57 50.99 113.76C50.3717 113.935 49.744 114.075 49.11 114.18L47.91 114.38C47.7709 114.402 47.6291 114.402 47.49 114.38C47.6216 114.322 47.759 114.279 47.9 114.25L49.07 113.97C49.6949 113.84 50.3124 113.676 50.92 113.48C51.63 113.27 52.46 113.06 53.33 112.72L54.72 112.23C55.2 112.05 55.72 111.83 56.19 111.62C57.19 111.21 58.25 110.62 59.36 110.11C64.1142 107.594 68.3622 104.221 71.89 100.16C72.68 99.1602 73.45 98.3102 74.08 97.4102C74.4 96.9602 74.73 96.5402 75.01 96.1202L75.8 94.8802C76.33 94.1102 76.71 93.3502 77.09 92.7002C77.47 92.0502 77.75 91.4902 77.98 91.0102L78.52 89.9302C78.65 89.7302 78.72 89.6002 78.74 89.6102Z" fill="#263238"/>
<g opacity="0.2">
<path opacity="0.2" d="M49.9901 113.96C49.2639 113.675 48.6691 113.13 48.3202 112.433C47.9713 111.735 47.8928 110.932 48.1 110.18C48.3384 109.437 48.7356 108.754 49.2639 108.179C49.7923 107.604 50.4392 107.15 51.16 106.85C52.599 106.251 54.0974 105.805 55.6301 105.52C62.2348 103.899 68.274 100.512 73.1 95.7201C73.5501 95.2801 74.1801 94.7901 74.7301 95.0901C75.4701 95.4901 74.97 96.6001 74.46 97.2601C68.251 105.457 59.485 111.348 49.5501 114" fill="black"/>
</g>
<path d="M97.43 104.26C97.2912 103.979 97.1839 103.684 97.1099 103.38C96.9399 102.81 96.7 101.99 96.43 100.96C95.87 98.9001 95.16 96.0501 94.43 92.8801C93.7 89.7101 93.1499 86.8301 92.7699 84.7301C92.5799 83.7301 92.4299 82.8401 92.3499 82.2501C92.2793 81.9453 92.2491 81.6327 92.26 81.3201C92.3797 81.6061 92.4669 81.9046 92.5199 82.2101C92.6699 82.8901 92.86 83.7101 93.07 84.6701C93.56 86.8501 94.18 89.6701 94.87 92.7801L96.7199 100.88C96.9399 101.88 97.1199 102.67 97.2699 103.34C97.359 103.639 97.4127 103.948 97.43 104.26Z" fill="#263238"/>
<path d="M2.36997 51.0801C2.1024 50.4478 1.96956 49.7667 1.97996 49.0801C1.84371 48.3983 1.86077 47.6946 2.02995 47.0201C2.29237 47.654 2.425 48.3341 2.41996 49.0201C2.54651 49.7028 2.52949 50.4044 2.36997 51.0801Z" fill="#263238"/>
<path d="M6.30001 51.2301C6.04849 50.5424 5.9363 49.8116 5.96999 49.0801C5.86331 48.3533 5.90073 47.6126 6.08004 46.9001C6.44558 48.3137 6.52039 49.7868 6.30001 51.2301Z" fill="#263238"/>
<path d="M10.21 50.9801C9.94399 50.2089 9.82198 49.3955 9.84998 48.5802C9.73023 47.7749 9.76078 46.9543 9.94001 46.1602C10.3159 47.738 10.4073 49.3702 10.21 50.9801Z" fill="#263238"/>
<path d="M17.76 93.1401C17.6603 91.9522 17.7072 90.7565 17.9 89.5801C17.9449 88.3929 18.1433 87.2164 18.49 86.0801C18.5339 88.4543 18.2888 90.8251 17.76 93.1401Z" fill="#263238"/>
<path d="M104.55 61.8602C104.55 61.9502 103.47 61.8602 101.8 62.2302C99.6162 62.669 97.5848 63.6701 95.9064 65.1345C94.228 66.5989 92.9608 68.476 92.23 70.5802C91.65 72.1902 91.57 73.2702 91.49 73.2602C91.4486 73.0085 91.4486 72.7518 91.49 72.5002C91.5692 71.8213 91.7132 71.1516 91.92 70.5002C92.5968 68.3019 93.8735 66.336 95.6066 64.8238C97.3397 63.3115 99.4603 62.3129 101.73 61.9402C102.41 61.8252 103.1 61.7783 103.79 61.8002C104.045 61.7802 104.301 61.8005 104.55 61.8602Z" fill="#263238"/>
<path d="M110.9 79.3201C110.08 79.7577 109.224 80.1224 108.34 80.4101C106.73 81.0201 104.49 81.8001 101.99 82.5801C99.4901 83.3601 97.2 83.9901 95.53 84.4101C94.6412 84.6748 93.7312 84.8622 92.8101 84.9701C93.668 84.617 94.5503 84.3262 95.4501 84.1001L101.86 82.1601L108.23 80.1101C109.099 79.7808 109.992 79.5167 110.9 79.3201Z" fill="#FAFAFA"/>
<path d="M117.45 108.92C116.582 109.238 115.689 109.482 114.78 109.65C113.13 110.04 110.78 110.55 108.3 111.08C105.82 111.61 103.45 112.08 101.78 112.39C100.882 112.602 99.9697 112.742 99.05 112.81C99.9162 112.5 100.806 112.259 101.71 112.09C103.37 111.69 105.71 111.18 108.21 110.65C110.71 110.12 113.05 109.65 114.72 109.34C115.618 109.13 116.531 108.99 117.45 108.92Z" fill="#FAFAFA"/>
<path d="M56.7099 111.14C56.0969 110.957 55.5065 110.706 54.95 110.39L50.7899 108.39L46.6099 106.39C46.0157 106.149 45.4464 105.851 44.9099 105.5C45.5394 105.623 46.151 105.824 46.7299 106.1C47.8399 106.54 49.3399 107.18 50.9799 107.96C52.6199 108.74 54.0599 109.49 55.0899 110.07C55.6732 110.356 56.2176 110.716 56.7099 111.14Z" fill="#FAFAFA"/>
<path d="M90.9399 116.95C90.5937 116.86 90.2584 116.733 89.9399 116.57L87.2599 115.4C84.9999 114.4 81.88 113.07 78.39 111.68C74.9 110.29 71.71 109.1 69.39 108.26L66.6499 107.26C66.3023 107.157 65.967 107.016 65.6499 106.84C65.9911 106.888 66.3263 106.972 66.6499 107.09C67.3099 107.28 68.2599 107.58 69.4399 107.96C71.7799 108.73 74.9999 109.87 78.4399 111.27C81.8799 112.67 85.0499 114.06 87.2799 115.12C88.3899 115.65 89.2799 116.12 89.8999 116.41C90.2665 116.549 90.6156 116.73 90.9399 116.95Z" fill="#FAFAFA"/>
<path d="M93.61 92.7801C93.4508 92.8025 93.2892 92.8025 93.13 92.7801L91.77 92.5802L86.77 91.7702C82.56 91.0802 76.77 90.1502 70.31 89.2102C63.85 88.2702 58.03 87.4701 53.8 86.9201L48.8 86.2601L47.44 86.0601C47.2794 86.0494 47.1211 86.0157 46.97 85.9602C47.1296 85.9448 47.2904 85.9448 47.45 85.9602L48.82 86.0802C50.01 86.1802 51.72 86.3602 53.82 86.6002C58.07 87.0702 63.92 87.8101 70.36 88.7601C76.8 89.7101 82.62 90.6901 86.81 91.4501C88.91 91.8401 90.61 92.1602 91.81 92.4002L93.15 92.6902L93.61 92.7801Z" fill="#FAFAFA"/>
<path d="M91.6799 67.2602C91.6799 67.3802 82.4599 66.1102 71.1299 64.4102C59.7999 62.7102 50.6199 61.2502 50.6399 61.1302C50.6599 61.0102 59.8599 62.2802 71.1899 63.9802C82.5199 65.6802 91.6999 67.1402 91.6799 67.2602Z" fill="#FAFAFA"/>
<path d="M43.48 89.5801C42.9762 88.6935 42.5383 87.771 42.17 86.8201L39.17 80.0901C38 77.5301 36.95 75.2101 36.17 73.3901C35.7035 72.4832 35.3025 71.5441 34.97 70.5801C35.1469 70.7893 35.2949 71.0214 35.41 71.2701C35.66 71.7301 36.02 72.4101 36.41 73.2701C37.27 74.9501 38.41 77.2701 39.58 79.9301C40.75 82.5901 41.77 84.9301 42.46 86.7201C42.8 87.6001 43.07 88.3101 43.25 88.8101C43.359 89.0559 43.4363 89.3147 43.48 89.5801Z" fill="#FAFAFA"/>
<path d="M25.1599 107.51C25.0399 107.51 23.8599 102.4 22.5399 96.0402C21.2199 89.6802 20.2299 84.5002 20.3499 84.4802C20.4699 84.4602 21.6499 89.5902 22.9699 95.9502C24.2899 102.31 25.2799 107.49 25.1599 107.51Z" fill="#FAFAFA"/>
<path d="M17.55 79.6101C14.9191 80.3936 12.2488 81.0378 9.55005 81.5401C6.91317 82.1976 4.24259 82.7117 1.55005 83.0801C4.18014 82.2936 6.85067 81.6494 9.55005 81.1501C12.1869 80.4926 14.8575 79.9785 17.55 79.6101Z" fill="#FAFAFA"/>
<path d="M14.9199 56.3501C14.2393 56.5813 13.5349 56.7355 12.8199 56.8101C11.5199 57.0301 9.70995 57.2901 7.69995 57.5201C5.68995 57.7501 3.86993 57.9001 2.54993 57.9801C1.83856 58.0549 1.12128 58.0549 0.409912 57.9801C1.10009 57.7981 1.80712 57.6875 2.5199 57.6501L7.6499 57.0601L12.7799 56.4801C13.4874 56.3684 14.2041 56.3248 14.9199 56.3501Z" fill="#FAFAFA"/>
<path d="M21.8301 15.9501C22.0801 16.4301 28.46 49.2601 28.46 49.2601L13.4 49.9601L7.55005 21.7301L21.8301 15.9501Z" fill="#455A64"/>
<path d="M28.46 49.2602L30.19 48.5302L23.67 16.1702L21.63 16.0402L28.46 49.2602Z" fill="#263238"/>
<path d="M15.78 23.1301C15.7986 23.2832 15.7714 23.4383 15.7019 23.576C15.6323 23.7136 15.5236 23.8275 15.3893 23.9034C15.255 23.9792 15.1013 24.0135 14.9475 24.002C14.7938 23.9905 14.6468 23.9337 14.5254 23.8388C14.4039 23.7438 14.3133 23.615 14.265 23.4685C14.2167 23.3221 14.2128 23.1646 14.254 23.016C14.2952 22.8674 14.3795 22.7343 14.4962 22.6336C14.613 22.5329 14.757 22.469 14.91 22.4501C15.0118 22.4375 15.115 22.4451 15.2139 22.4725C15.3127 22.4999 15.4052 22.5465 15.486 22.6097C15.5669 22.6728 15.6344 22.7513 15.6848 22.8406C15.7353 22.9299 15.7676 23.0283 15.78 23.1301Z" fill="#263238"/>
<path d="M12.6699 46.1701L12.45 41.8701L18.8799 39.2201L16.3699 33.2701C16.0819 32.6131 15.6605 32.0231 15.1324 31.5374C14.6044 31.0518 13.9813 30.6811 13.3026 30.4489C12.6238 30.2167 11.9042 30.128 11.1894 30.1885C10.4746 30.2489 9.78003 30.4572 9.1499 30.8001C8.2899 31.2601 7.37995 31.7501 6.56995 32.2001C5.65804 32.6896 4.86032 33.367 4.22943 34.1875C3.59854 35.008 3.14878 35.953 2.90991 36.9601C2.21333 40.4258 1.71254 43.928 1.40991 47.4501" fill="#EB996E"/>
<path d="M87.21 8.01013C89.67 9.50013 90.2101 12.7801 90.4401 15.6401C90.6701 18.5001 91.0201 21.7501 93.3201 23.4701C95.2201 24.8901 98.32 25.1401 99.03 27.3801C99.2162 27.9096 99.2321 28.4841 99.0754 29.023C98.9188 29.5619 98.5975 30.0384 98.1566 30.3856C97.7156 30.7329 97.1772 30.9335 96.6165 30.9594C96.0559 30.9853 95.5011 30.8352 95.03 30.5301C95.5262 31.3741 95.7439 32.3528 95.6524 33.3275C95.5609 34.3022 95.1646 35.2233 94.52 35.9601C93.13 37.3301 90.37 37.1001 89.52 35.3201C89.6469 35.6168 89.7119 35.9361 89.711 36.2588C89.7101 36.5814 89.6433 36.9004 89.5148 37.1963C89.3863 37.4922 89.1988 37.7588 88.9636 37.9796C88.7285 38.2005 88.4507 38.371 88.1473 38.4808C87.844 38.5905 87.5214 38.6372 87.1993 38.6179C86.8773 38.5986 86.5626 38.5138 86.2745 38.3686C85.9864 38.2235 85.731 38.021 85.5239 37.7736C85.3168 37.5263 85.1624 37.2393 85.0701 36.9301" fill="#263238"/>
<path d="M57.1 32.5402C57.0238 32.9132 56.8736 33.2671 56.6583 33.5811C56.4431 33.8951 56.1671 34.1628 55.8467 34.3684C55.5262 34.574 55.1679 34.7133 54.7927 34.7781C54.4176 34.8429 54.0332 34.8319 53.6624 34.7457C53.2916 34.6595 52.9418 34.4999 52.6337 34.2763C52.3256 34.0527 52.0654 33.7696 51.8685 33.4438C51.6716 33.1179 51.5419 32.756 51.4872 32.3792C51.4325 32.0024 51.4539 31.6185 51.55 31.2502C51.86 30.0902 52.89 29.1202 52.8 27.9302C52.7 26.4802 51.08 25.7102 49.68 25.3102C48.28 24.9102 46.68 24.3602 46.27 22.9602C45.86 21.5602 46.95 20.3302 47.83 19.2402C48.71 18.1502 49.47 16.5602 48.63 15.4402C48.2 14.8702 47.47 14.6202 46.94 14.1402C46.4082 13.5502 46.1196 12.7806 46.1326 11.9864C46.1456 11.1922 46.4592 10.4324 47.01 9.86018C47.5828 9.31165 48.2637 8.8887 49.0093 8.61835C49.7549 8.34801 50.5487 8.23624 51.34 8.29018C52.9201 8.40019 54.4927 8.60052 56.05 8.89017C58.6518 9.19393 61.2884 8.95439 63.7929 8.18668C66.2974 7.41898 68.6153 6.13984 70.6 4.43018" fill="#263238"/>
<path d="M74.5499 62.5801C75.9521 62.6706 77.3581 62.4793 78.6851 62.0175C80.0121 61.5557 81.2331 60.8327 82.2761 59.8913C83.3192 58.9499 84.163 57.8091 84.758 56.5362C85.3529 55.2633 85.6868 53.8841 85.7399 52.4801L87.0199 19.1601C87.1524 17.1426 86.8783 15.119 86.214 13.2094C85.5497 11.2998 84.5086 9.54303 83.1525 8.04335C81.7965 6.54367 80.1531 5.33159 78.3198 4.47901C76.4865 3.62643 74.5006 3.15072 72.4799 3.08008H71.69C67.8696 3.16122 64.2197 4.67739 61.4663 7.32703C58.7129 9.97668 57.0577 13.5656 56.83 17.3801C56.4 24.7401 56.0199 32.8801 56.1499 36.8201C56.4299 44.9801 64.62 46.0801 64.62 46.0801L64.6799 52.1401C64.6951 54.8073 65.7229 57.3691 67.5553 59.3073C69.3876 61.2455 71.8878 62.4153 74.5499 62.5801Z" fill="#EB996E"/>
<path d="M64.6 45.9901C68.3721 45.9778 72.0551 44.8429 75.18 42.7301C75.18 42.7301 72.79 48.6601 64.63 48.1001L64.6 45.9901Z" fill="#AA6550"/>
<path d="M59.8 22.5701C59.8026 22.8752 59.9243 23.1673 60.1391 23.384C60.3539 23.6007 60.645 23.7249 60.9501 23.7301C61.0988 23.7381 61.2476 23.7165 61.3879 23.6663C61.5281 23.6161 61.657 23.5385 61.7669 23.4379C61.8768 23.3373 61.9655 23.2159 62.0278 23.0806C62.0902 22.9453 62.125 22.799 62.1301 22.6501C62.1275 22.3459 62.0054 22.0549 61.7903 21.8398C61.5752 21.6247 61.2842 21.5027 60.98 21.5001C60.8321 21.492 60.6841 21.5134 60.5444 21.5629C60.4048 21.6125 60.2764 21.6892 60.1667 21.7887C60.0569 21.8882 59.968 22.0085 59.9051 22.1427C59.8422 22.2768 59.8064 22.4221 59.8 22.5701Z" fill="#263238"/>
<path d="M58.67 21.3702C58.82 21.5202 59.67 20.8502 60.95 20.8202C62.23 20.7902 63.13 21.4102 63.26 21.2502C63.39 21.0902 63.1799 20.9102 62.7699 20.6302C62.2192 20.2665 61.5697 20.0814 60.91 20.1002C60.2594 20.1109 59.6291 20.328 59.11 20.7202C58.73 21.0802 58.6 21.3102 58.67 21.3702Z" fill="#263238"/>
<path d="M72.28 22.5701C72.28 22.876 72.4009 23.1695 72.6163 23.3868C72.8317 23.604 73.1241 23.7274 73.4301 23.73C73.5786 23.7395 73.7276 23.7188 73.8679 23.669C74.0082 23.6193 74.1369 23.5415 74.2463 23.4406C74.3557 23.3396 74.4435 23.2175 74.5043 23.0816C74.5651 22.9457 74.5976 22.7989 74.6 22.6501C74.6 22.3468 74.4803 22.0558 74.2668 21.8404C74.0533 21.625 73.7633 21.5027 73.46 21.5001C73.3118 21.4906 73.1632 21.511 73.0229 21.56C72.8827 21.6091 72.7538 21.6858 72.6438 21.7855C72.5338 21.8853 72.4449 22.0062 72.3824 22.1409C72.3199 22.2757 72.2851 22.4216 72.28 22.5701Z" fill="#263238"/>
<path d="M71.01 21.3401C71.16 21.4901 72.01 20.8201 73.28 20.7901C74.55 20.7601 75.47 21.3701 75.6 21.2201C75.73 21.0701 75.51 20.8801 75.1 20.5901C74.55 20.2257 73.8992 20.0438 73.24 20.0701C72.5895 20.0808 71.9592 20.298 71.44 20.6901C71.06 20.9901 70.94 21.2701 71.01 21.3401Z" fill="#263238"/>
<path d="M66.66 30.7402C65.9927 30.5487 65.304 30.4412 64.6101 30.4202C64.2901 30.4202 63.9901 30.3302 63.9301 30.1102C63.8944 29.7815 63.9607 29.4498 64.1201 29.1602C64.4101 28.3802 64.7 27.5601 65.02 26.7001C65.8652 24.6199 66.5342 22.4724 67.02 20.2802C66.0218 22.2937 65.1858 24.3836 64.52 26.5302C64.23 27.3902 63.94 28.2102 63.67 29.0002C63.4805 29.3917 63.4311 29.8365 63.53 30.2601C63.578 30.3736 63.6518 30.4743 63.7455 30.5542C63.8393 30.634 63.9504 30.6909 64.0701 30.7202C64.2477 30.7577 64.4285 30.7778 64.6101 30.7802C65.2925 30.8504 65.9809 30.837 66.66 30.7402Z" fill="#263238"/>
<path d="M70.3699 31.5301C70.1599 31.5301 70.1899 32.8801 69.0499 33.8701C67.9099 34.8601 66.4499 34.7401 66.4399 34.9401C66.4299 35.1401 66.7699 35.1901 67.3799 35.2001C68.18 35.1894 68.9511 34.8994 69.5599 34.3801C69.8507 34.1295 70.0887 33.8237 70.2604 33.4804C70.4321 33.1371 70.5339 32.7631 70.5599 32.3801C70.6199 31.8501 70.4599 31.5201 70.3699 31.5301Z" fill="#263238"/>
<path d="M70.55 16.4301C70.68 16.7701 71.93 16.5801 73.4 16.7301C74.87 16.8801 76.0801 17.2501 76.2601 16.9401C76.3501 16.7901 76.13 16.4701 75.65 16.1501C75.0011 15.7546 74.2678 15.5182 73.5101 15.4601C72.7559 15.3841 71.9945 15.4904 71.29 15.7701C70.79 16.0001 70.55 16.2701 70.55 16.4301Z" fill="#263238"/>
<path d="M59.06 17.7301C59.28 18.0101 60.14 17.7301 61.18 17.6601C62.22 17.5901 63.1 17.8101 63.3 17.5101C63.5 17.2101 63.24 17.0801 62.85 16.8201C62.3291 16.4985 61.7206 16.3481 61.11 16.3901C60.501 16.418 59.915 16.6308 59.43 17.0001C59.07 17.3001 58.96 17.6001 59.06 17.7301Z" fill="#263238"/>
<path d="M77.9399 10.4001H77.9899C79.3101 11.3997 80.1975 12.8667 80.4699 14.5001V14.6701C80.8399 16.9901 80.8399 19.3601 81.2299 21.6701C81.5031 24.0215 82.5598 26.2125 84.2299 27.8901C84.9499 28.5401 86.2299 28.9601 86.7799 28.1801C86.965 27.8548 87.0551 27.4841 87.0399 27.1101C87.3599 21.4801 88.7799 16.4601 88.6499 10.5801C88.6327 9.79098 88.4289 9.01715 88.0552 8.32192C87.6815 7.62668 87.1486 7.0298 86.4999 6.58009C85.2499 5.73009 83.7299 4.84009 82.3799 5.52009C81.0299 6.20009 79.3099 8.80009 78.2699 9.90009" fill="#263238"/>
<path d="M84.33 22.9101C84.47 22.8501 89.9 21.1301 89.84 26.7101C89.78 32.2901 84.19 31.0901 84.18 30.9301C84.17 30.7701 84.33 22.9101 84.33 22.9101Z" fill="#EB996E"/>
<path d="M85.91 28.8301C85.91 28.8301 86.01 28.9001 86.17 28.9701C86.4047 29.0621 86.6654 29.0621 86.9 28.9701C87.2626 28.7447 87.5584 28.4266 87.7571 28.0487C87.9557 27.6707 88.0499 27.2466 88.03 26.8202C88.0503 26.3398 87.9614 25.8612 87.77 25.4201C87.7211 25.2455 87.6299 25.0856 87.5043 24.9547C87.3786 24.8239 87.2226 24.7261 87.05 24.6701C86.9382 24.6395 86.8192 24.6487 86.7134 24.6961C86.6076 24.7436 86.5215 24.8263 86.47 24.9302C86.4 25.0902 86.47 25.2002 86.4 25.2102C86.33 25.2202 86.2801 25.1102 86.3301 24.8802C86.3612 24.7418 86.4388 24.6182 86.55 24.5301C86.7072 24.4202 86.9001 24.3738 87.09 24.4002C87.3174 24.4469 87.529 24.5516 87.7041 24.704C87.8793 24.8564 88.0122 25.0514 88.09 25.2702C88.322 25.7564 88.4319 26.2919 88.41 26.8301C88.4328 27.3275 88.3083 27.8205 88.0521 28.2474C87.796 28.6743 87.4195 29.0162 86.97 29.2301C86.8195 29.2753 86.6605 29.2843 86.5059 29.2565C86.3513 29.2287 86.2054 29.1649 86.0801 29.0702C85.9201 28.9602 85.89 28.8401 85.91 28.8301Z" fill="#AA6550"/>
<path d="M82.6 6.43012C83.93 4.17012 80.1001 1.05012 77.3201 0.240123C74.5401 -0.569877 70.95 0.850117 68.23 1.82012C66.52 2.43012 64.8101 3.27012 62.9901 3.23012C61.7691 3.13582 60.5692 2.85943 59.4301 2.41012C58.2929 1.95551 57.074 1.74101 55.85 1.78012C55.2378 1.80622 54.6442 1.99879 54.1332 2.3371C53.6223 2.67541 53.2132 3.14666 52.9501 3.70012C52.8403 3.9807 52.7919 4.28154 52.808 4.58239C52.8242 4.88325 52.9047 5.17715 53.0439 5.44432C53.1832 5.7115 53.3781 5.94574 53.6154 6.1313C53.8528 6.31687 54.1272 6.44945 54.42 6.52012C54.0273 6.31746 53.5914 6.21281 53.1494 6.2151C52.7075 6.21739 52.2726 6.32654 51.882 6.53326C51.4914 6.73997 51.1565 7.03811 50.9061 7.40224C50.6556 7.76637 50.4969 8.18568 50.4436 8.6244C50.3903 9.06312 50.4439 9.50823 50.5998 9.92176C50.7557 10.3353 51.0094 10.705 51.3391 10.9993C51.6688 11.2935 52.0648 11.5037 52.4934 11.6118C52.9219 11.7199 53.3702 11.7228 53.8001 11.6201C53.0001 11.0301 51.8 12.0501 51.92 13.0401C52.0426 13.5303 52.2918 13.9796 52.6429 14.3429C52.9939 14.7062 53.4344 14.9708 53.92 15.1101C56.3531 15.9378 59.006 15.8381 61.3701 14.8301C63.7601 13.9701 65.9701 12.6601 68.3701 11.7401C70.7701 10.8201 74.7101 9.17012 77.1201 9.96012C78.9001 10.5401 80.1201 12.6401 81.1201 12.1501C81.5851 11.889 81.9822 11.5221 82.2793 11.0791C82.5764 10.6361 82.765 10.1295 82.8301 9.60012C82.945 8.54074 82.8841 7.46967 82.65 6.43012" fill="#263238"/>
<path d="M57.32 5.63016C57.0887 5.54895 56.8411 5.52563 56.5988 5.56224C56.3565 5.59885 56.1269 5.69427 55.9299 5.84016C55.3654 6.21182 54.9479 6.76839 54.749 7.41434C54.5501 8.06029 54.5822 8.75533 54.8399 9.38016C55.5399 10.9902 57.6699 11.9802 59.8399 11.7802C62.1807 11.466 64.3997 10.5494 66.2799 9.12016C68.1038 7.73724 70.06 6.53807 72.1199 5.54015C73.0258 5.1559 73.9886 4.9228 74.9699 4.85015C75.8216 4.81499 76.6725 4.93703 77.4799 5.21015C78.6689 5.58222 79.6864 6.36573 80.3499 7.42015C80.556 7.8319 80.7364 8.25605 80.89 8.69016C80.9099 8.57099 80.9099 8.44933 80.89 8.33016C80.838 7.9804 80.7264 7.64215 80.5599 7.33016C79.9263 6.16956 78.881 5.28836 77.63 4.86015C76.7838 4.5418 75.8835 4.39231 74.9799 4.42015C73.949 4.47816 72.9351 4.70799 71.9799 5.10015C69.8735 6.07978 67.8786 7.28339 66.0299 8.69016C64.2203 10.0693 62.0907 10.9673 59.8399 11.3002C57.8399 11.5102 55.8399 10.6202 55.2099 9.22016C55.0609 8.90942 54.9787 8.57095 54.9683 8.2265C54.958 7.88206 55.0198 7.53926 55.1499 7.22016C55.3309 6.7269 55.6504 6.29635 56.07 5.98016C56.4457 5.74894 56.8788 5.62769 57.32 5.63016Z" fill="#455A64"/>
<path d="M72.55 2.48016C72.55 2.56016 73.29 2.31016 74.48 2.25016C76.0158 2.15244 77.5468 2.50424 78.8858 3.26256C80.2248 4.02087 81.3139 5.15286 82.02 6.52016C82.57 7.52016 82.7301 8.30016 82.8101 8.28016C82.8266 7.60783 82.668 6.94275 82.35 6.35016C81.6915 4.85051 80.5649 3.60451 79.139 2.7987C77.713 1.99289 76.0645 1.67063 74.4401 1.88016C73.7684 1.91124 73.1167 2.11814 72.55 2.48016Z" fill="#455A64"/>
<path d="M87.6499 16.6001C87.9527 16.1517 88.1098 15.6209 88.0999 15.0801C88.2069 13.7689 87.8571 12.4611 87.1099 11.3785C86.3626 10.2958 85.2638 9.50496 83.9999 9.14006C83.4981 8.93858 82.9464 8.89668 82.4199 9.02006C82.4199 9.10006 83.0099 9.15006 83.8799 9.49006C85.0134 9.91763 85.9894 10.681 86.6774 11.6781C87.3654 12.6752 87.7325 13.8586 87.7299 15.0701C87.7399 16.0001 87.5499 16.5801 87.6499 16.6001Z" fill="#455A64"/>
</svg>