<svg width="214" height="207" viewBox="0 0 214 207" fill="none" xmlns="http://www.w3.org/2000/svg">
<path d="M92.0156 207C136.884 207 173.257 204.734 173.257 201.939C173.257 199.144 136.884 196.878 92.0156 196.878C47.1472 196.878 10.7742 199.144 10.7742 201.939C10.7742 204.734 47.1472 207 92.0156 207Z" fill="#32BAB0"/>
<path opacity="0.8" d="M92.0156 207C136.884 207 173.257 204.734 173.257 201.939C173.257 199.144 136.884 196.878 92.0156 196.878C47.1472 196.878 10.7742 199.144 10.7742 201.939C10.7742 204.734 47.1472 207 92.0156 207Z" fill="white"/>
<path d="M153.065 9.48322H71.3765C65.7367 9.48322 61.1648 14.0551 61.1648 19.6949V192.153C61.1648 197.793 65.7367 202.365 71.3765 202.365H153.065C158.704 202.365 163.276 197.793 163.276 192.153V19.6949C163.276 14.0551 158.704 9.48322 153.065 9.48322Z" fill="#263238"/>
<path d="M158.736 30.6633H65.7007V181.184H158.736V30.6633Z" fill="white" stroke="#263238" stroke-width="1.33739" stroke-miterlimit="10"/>
<path d="M126.48 91.6137C134.355 83.7384 134.355 70.9702 126.48 63.0949C118.605 55.2197 105.837 55.2197 97.9613 63.0949C90.0861 70.9702 90.086 83.7385 97.9613 91.6137C105.837 99.4889 118.605 99.4889 126.48 91.6137Z" fill="#32BAB0"/>
<path d="M138.696 171.719H85.7508C85.6316 171.72 85.5135 171.697 85.4032 171.652C85.293 171.607 85.1927 171.54 85.1082 171.456C85.0237 171.372 84.9566 171.272 84.9109 171.162C84.8651 171.052 84.8416 170.934 84.8416 170.815C84.8409 170.695 84.8639 170.577 84.9094 170.466C84.9548 170.356 85.0217 170.255 85.1063 170.171C85.1909 170.086 85.2914 170.019 85.402 169.974C85.5126 169.928 85.6312 169.905 85.7508 169.906H138.696C138.815 169.906 138.933 169.929 139.043 169.975C139.153 170.021 139.253 170.088 139.337 170.172C139.421 170.257 139.487 170.357 139.533 170.468C139.578 170.578 139.601 170.696 139.6 170.815C139.6 171.055 139.505 171.285 139.335 171.454C139.166 171.624 138.936 171.719 138.696 171.719Z" fill="#32BAB0"/>
<path d="M140.42 108.857H84.0216C82.8576 108.857 81.9141 109.8 81.9141 110.964V117.612C81.9141 118.776 82.8576 119.72 84.0216 119.72H140.42C141.584 119.72 142.527 118.776 142.527 117.612V110.964C142.527 109.8 141.584 108.857 140.42 108.857Z" fill="#32BAB0"/>
<path d="M140.42 129.175H84.0216C82.8576 129.175 81.9141 130.118 81.9141 131.282V137.931C81.9141 139.095 82.8576 140.038 84.0216 140.038H140.42C141.584 140.038 142.527 139.095 142.527 137.931V131.282C142.527 130.118 141.584 129.175 140.42 129.175Z" fill="#32BAB0"/>
<path d="M122.262 87.4136L116.328 83.9974V81.1751C117.187 80.1357 117.81 78.9215 118.152 77.6171C118.356 77.6896 118.571 77.727 118.788 77.7275C119.523 77.7275 119.991 75.4465 120.07 73.8173C120.927 72.0041 119.76 70.9424 119.76 70.9424C119.76 70.9424 120.243 70.4589 120.564 68.5196C120.885 66.5803 119.434 67.3896 118.304 65.6132C117.174 63.8368 116.365 61.9028 112.654 61.9028C111.632 61.8692 110.623 62.1439 109.759 62.6913C108.895 63.2386 108.215 64.0334 107.809 64.9721C106.885 64.9754 105.965 65.0829 105.065 65.2927C103.93 65.6132 103.609 69.329 104.576 70.7848C105.009 71.5804 105.24 72.4701 105.249 73.3758C104.992 73.0605 104.724 72.9764 104.576 73.6911C104.256 75.3046 105.549 77.5645 105.549 77.5645L106.216 77.3753C106.552 78.7694 107.201 80.0687 108.113 81.1751V83.9974L102.18 87.4136C101.487 87.8136 100.911 88.3889 100.511 89.0817C100.111 89.7745 99.8996 90.5604 99.8989 91.3605V93.3156C103.428 96.0418 107.761 97.5207 112.221 97.5207C116.68 97.5207 121.014 96.0418 124.543 93.3156V91.3605C124.543 90.5602 124.332 89.7739 123.932 89.0809C123.531 88.3879 122.955 87.8128 122.262 87.4136Z" fill="#263238"/>
<path d="M89.5927 137.337C89.4567 137.335 89.3267 137.28 89.2301 137.184C89.1784 137.138 89.1371 137.081 89.109 137.018C89.0809 136.954 89.0667 136.886 89.0672 136.816C89.0688 136.722 89.096 136.629 89.146 136.548L90.092 135.035L88.2473 135.093C88.1778 135.097 88.1081 135.087 88.0429 135.062C87.9777 135.038 87.9184 135 87.8689 134.951C87.7832 134.854 87.7358 134.73 87.7358 134.601C87.7358 134.472 87.7832 134.348 87.8689 134.252C87.9173 134.201 87.9763 134.161 88.0417 134.136C88.1071 134.111 88.1773 134.1 88.2473 134.105L90.0657 134.173L89.1302 132.664C89.0793 132.582 89.0521 132.488 89.0514 132.391C89.0509 132.322 89.0652 132.253 89.0933 132.19C89.1214 132.126 89.1626 132.07 89.2143 132.023C89.3109 131.927 89.4409 131.873 89.577 131.871C89.6665 131.871 89.7541 131.897 89.8294 131.946C89.9048 131.994 89.9649 132.063 90.0027 132.144L90.9014 133.768L91.7896 132.155C91.8317 132.069 91.8966 131.996 91.9772 131.944C92.0578 131.892 92.151 131.863 92.2468 131.86C92.3132 131.861 92.3789 131.875 92.4395 131.902C92.5001 131.929 92.5544 131.969 92.5989 132.018C92.6954 132.118 92.7483 132.252 92.7461 132.391C92.7458 132.481 92.7223 132.57 92.6778 132.649L91.7265 134.173L93.5712 134.105C93.6413 134.1 93.7114 134.111 93.7768 134.136C93.8422 134.161 93.9012 134.201 93.9496 134.252C94.0392 134.345 94.0884 134.469 94.0863 134.599C94.086 134.729 94.0373 134.854 93.9496 134.951C93.9001 135 93.8408 135.038 93.7756 135.062C93.7104 135.087 93.6408 135.097 93.5712 135.093L91.716 135.035L92.641 136.533C92.6928 136.616 92.7201 136.713 92.7198 136.811C92.7198 136.951 92.6645 137.084 92.5659 137.183C92.4673 137.281 92.3337 137.337 92.1943 137.337C92.1042 137.336 92.0164 137.308 91.9417 137.258C91.867 137.207 91.8086 137.136 91.7738 137.053L90.8961 135.476L90.0237 137.053C89.985 137.135 89.9243 137.205 89.8482 137.256C89.7722 137.306 89.6837 137.334 89.5927 137.337Z" fill="#263238"/>
<path d="M98.1173 137.337C97.9813 137.335 97.8513 137.28 97.7547 137.184C97.703 137.138 97.6617 137.081 97.6336 137.018C97.6055 136.954 97.5912 136.886 97.5917 136.816C97.5934 136.722 97.6206 136.629 97.6706 136.548L98.6166 135.035L96.7771 135.093C96.7069 135.096 96.6368 135.085 96.5709 135.06C96.505 135.036 96.4447 134.999 96.3935 134.951C96.3237 134.879 96.2772 134.787 96.2601 134.689C96.2429 134.59 96.2559 134.488 96.2973 134.397C96.3386 134.306 96.4065 134.229 96.4921 134.177C96.5777 134.125 96.677 134.099 96.7771 134.105L98.5903 134.173L97.6548 132.664C97.6039 132.582 97.5766 132.488 97.576 132.391C97.5755 132.322 97.5897 132.253 97.6178 132.19C97.6459 132.126 97.6872 132.07 97.7389 132.023C97.8355 131.927 97.9655 131.873 98.1015 131.871C98.1911 131.871 98.2786 131.897 98.354 131.946C98.4294 131.994 98.4894 132.063 98.5273 132.144L99.426 133.768L100.314 132.155C100.356 132.069 100.421 131.996 100.502 131.944C100.582 131.892 100.676 131.863 100.771 131.86C100.838 131.86 100.904 131.874 100.964 131.901C101.025 131.928 101.079 131.968 101.124 132.018C101.172 132.067 101.211 132.125 101.237 132.189C101.263 132.253 101.276 132.322 101.276 132.391C101.274 132.482 101.249 132.571 101.202 132.649L100.251 134.173L102.101 134.115C102.17 134.11 102.24 134.121 102.304 134.147C102.369 134.172 102.427 134.212 102.474 134.262C102.564 134.355 102.613 134.48 102.611 134.609C102.611 134.739 102.562 134.865 102.474 134.961C102.426 135.01 102.367 135.048 102.303 135.072C102.239 135.097 102.17 135.107 102.101 135.103L100.241 135.045L101.166 136.543C101.217 136.627 101.245 136.723 101.244 136.822C101.244 136.961 101.189 137.095 101.09 137.193C100.992 137.292 100.858 137.347 100.719 137.347C100.629 137.346 100.541 137.319 100.466 137.268C100.392 137.218 100.333 137.147 100.298 137.063L99.4207 135.487L98.5483 137.063C98.5081 137.144 98.4468 137.212 98.3708 137.26C98.2949 137.308 98.2072 137.335 98.1173 137.337Z" fill="#263238"/>
<path d="M106.647 137.337C106.509 137.336 106.377 137.281 106.279 137.184C106.228 137.138 106.186 137.081 106.158 137.018C106.13 136.954 106.116 136.886 106.116 136.816C106.118 136.722 106.145 136.629 106.195 136.548L107.141 135.035L105.302 135.093C105.203 135.097 105.105 135.071 105.02 135.019C104.936 134.967 104.869 134.891 104.828 134.801C104.786 134.711 104.773 134.61 104.789 134.513C104.805 134.415 104.85 134.324 104.918 134.252C104.968 134.201 105.028 134.162 105.094 134.136C105.16 134.111 105.231 134.1 105.302 134.105L107.115 134.173L106.179 132.664C106.128 132.582 106.101 132.488 106.101 132.391C106.102 132.322 106.117 132.254 106.145 132.191C106.173 132.128 106.213 132.071 106.263 132.023C106.361 131.926 106.493 131.871 106.631 131.871C106.72 131.872 106.806 131.899 106.881 131.947C106.955 131.996 107.014 132.064 107.052 132.144L107.951 133.768L108.839 132.155C108.881 132.069 108.946 131.996 109.026 131.944C109.107 131.892 109.2 131.863 109.296 131.86C109.362 131.86 109.428 131.874 109.489 131.901C109.55 131.928 109.604 131.968 109.648 132.018C109.697 132.067 109.735 132.125 109.761 132.189C109.788 132.253 109.801 132.322 109.8 132.391C109.799 132.482 109.773 132.571 109.727 132.649L108.776 134.173L110.626 134.105C110.694 134.098 110.762 134.106 110.827 134.128C110.892 134.15 110.951 134.185 111.001 134.232C111.051 134.279 111.09 134.336 111.116 134.399C111.142 134.462 111.154 134.53 111.151 134.599C111.152 134.728 111.105 134.853 111.02 134.951C110.97 135 110.911 135.038 110.846 135.062C110.781 135.087 110.711 135.097 110.641 135.093L108.786 135.035L109.706 136.533C109.758 136.616 109.785 136.713 109.785 136.811C109.783 136.88 109.768 136.948 109.74 137.011C109.712 137.074 109.672 137.131 109.622 137.179C109.576 137.228 109.521 137.268 109.459 137.295C109.398 137.322 109.332 137.336 109.264 137.337C109.175 137.335 109.088 137.307 109.014 137.257C108.94 137.207 108.883 137.136 108.849 137.053L107.966 135.476L107.094 137.053C107.054 137.138 106.991 137.21 106.912 137.261C106.833 137.311 106.741 137.337 106.647 137.337Z" fill="#263238"/>
<path d="M115.172 137.337C115.034 137.336 114.902 137.281 114.804 137.184C114.705 137.087 114.648 136.955 114.646 136.816C114.645 136.722 114.67 136.629 114.72 136.548L115.666 135.035L113.827 135.093C113.756 135.096 113.686 135.085 113.62 135.06C113.554 135.036 113.494 134.999 113.443 134.951C113.357 134.854 113.31 134.73 113.31 134.601C113.31 134.472 113.357 134.348 113.443 134.252C113.494 134.203 113.554 134.164 113.62 134.139C113.686 134.114 113.756 134.102 113.827 134.105L115.645 134.173L114.715 132.664C114.664 132.582 114.637 132.488 114.636 132.391C114.638 132.322 114.653 132.254 114.681 132.191C114.709 132.128 114.749 132.071 114.799 132.023C114.897 131.926 115.029 131.871 115.167 131.871C115.256 131.871 115.344 131.897 115.419 131.946C115.495 131.994 115.555 132.063 115.592 132.144L116.486 133.768L117.374 132.155C117.416 132.069 117.481 131.996 117.562 131.944C117.642 131.892 117.735 131.863 117.831 131.86C117.898 131.86 117.964 131.874 118.024 131.901C118.085 131.928 118.139 131.968 118.183 132.018C118.232 132.067 118.271 132.125 118.297 132.189C118.323 132.253 118.336 132.322 118.336 132.391C118.334 132.482 118.309 132.571 118.262 132.649L117.311 134.173L119.161 134.105C119.229 134.098 119.298 134.106 119.362 134.128C119.427 134.15 119.486 134.185 119.536 134.232C119.586 134.279 119.625 134.336 119.651 134.399C119.677 134.462 119.689 134.53 119.687 134.599C119.688 134.728 119.641 134.853 119.555 134.951C119.506 135 119.446 135.038 119.381 135.062C119.316 135.087 119.246 135.097 119.177 135.093L117.322 135.035L118.241 136.533C118.293 136.616 118.32 136.713 118.32 136.811C118.321 136.881 118.306 136.949 118.278 137.013C118.25 137.076 118.209 137.133 118.157 137.179C118.111 137.228 118.056 137.268 117.995 137.295C117.933 137.322 117.867 137.336 117.8 137.337C117.71 137.335 117.623 137.307 117.55 137.257C117.476 137.207 117.418 137.136 117.385 137.053L116.502 135.476L115.629 137.053C115.589 137.14 115.524 137.213 115.443 137.263C115.362 137.314 115.268 137.339 115.172 137.337Z" fill="#263238"/>
<path d="M123.697 137.337C123.559 137.336 123.427 137.281 123.329 137.184C123.247 137.102 123.195 136.995 123.181 136.88C123.167 136.765 123.191 136.648 123.25 136.548L124.191 135.035L122.351 135.093C122.281 135.096 122.211 135.085 122.145 135.06C122.079 135.036 122.019 134.999 121.968 134.951C121.882 134.854 121.834 134.73 121.834 134.601C121.834 134.472 121.882 134.348 121.968 134.252C122.018 134.203 122.078 134.164 122.144 134.139C122.21 134.114 122.281 134.102 122.351 134.105L124.17 134.173L123.234 132.664C123.183 132.582 123.156 132.488 123.155 132.391C123.157 132.253 123.214 132.12 123.313 132.023C123.411 131.926 123.543 131.871 123.681 131.871C123.77 131.871 123.858 131.897 123.933 131.946C124.009 131.994 124.069 132.063 124.107 132.144L125 133.768L125.888 132.155C125.93 132.069 125.995 131.996 126.076 131.944C126.156 131.892 126.25 131.863 126.345 131.86C126.413 131.86 126.479 131.874 126.541 131.901C126.603 131.928 126.658 131.968 126.703 132.018C126.799 132.118 126.852 132.252 126.85 132.391C126.848 132.482 126.823 132.571 126.776 132.649L125.825 134.173L127.675 134.105C127.743 134.098 127.812 134.106 127.877 134.128C127.941 134.15 128.001 134.185 128.05 134.232C128.1 134.279 128.139 134.336 128.165 134.399C128.191 134.462 128.203 134.53 128.201 134.599C128.202 134.728 128.155 134.853 128.069 134.951C128.02 135 127.96 135.038 127.895 135.062C127.83 135.087 127.76 135.097 127.691 135.093L125.836 135.035L126.755 136.533C126.807 136.616 126.835 136.713 126.834 136.811C126.835 136.881 126.82 136.949 126.792 137.013C126.764 137.076 126.723 137.133 126.671 137.179C126.626 137.228 126.57 137.268 126.509 137.295C126.447 137.322 126.381 137.336 126.314 137.337C126.225 137.335 126.138 137.307 126.064 137.257C125.99 137.207 125.933 137.136 125.899 137.053L125.016 135.476L124.143 137.053C124.104 137.138 124.041 137.21 123.962 137.261C123.883 137.311 123.79 137.337 123.697 137.337Z" fill="#263238"/>
<path d="M132.221 137.337C132.085 137.335 131.955 137.28 131.859 137.184C131.807 137.138 131.766 137.081 131.737 137.018C131.709 136.954 131.695 136.886 131.696 136.816C131.697 136.722 131.724 136.629 131.774 136.548L132.715 135.035L130.876 135.093C130.808 135.098 130.74 135.089 130.676 135.066C130.612 135.043 130.554 135.008 130.504 134.961C130.455 134.915 130.415 134.859 130.389 134.796C130.362 134.734 130.349 134.666 130.35 134.599C130.35 134.534 130.362 134.47 130.387 134.411C130.411 134.351 130.447 134.297 130.492 134.252C130.54 134.201 130.599 134.161 130.665 134.136C130.73 134.111 130.8 134.1 130.87 134.105L132.689 134.173L131.753 132.664C131.703 132.582 131.675 132.488 131.675 132.391C131.677 132.253 131.733 132.12 131.832 132.023C131.93 131.926 132.062 131.871 132.2 131.871C132.29 131.871 132.377 131.897 132.453 131.946C132.528 131.994 132.588 132.063 132.626 132.144L133.519 133.768L134.413 132.155C134.454 132.069 134.519 131.997 134.598 131.945C134.678 131.893 134.77 131.864 134.865 131.86C134.932 131.86 134.999 131.874 135.06 131.901C135.122 131.928 135.177 131.968 135.222 132.018C135.319 132.118 135.371 132.252 135.369 132.391C135.369 132.481 135.345 132.57 135.301 132.649L134.35 134.173L136.194 134.105C136.264 134.1 136.335 134.111 136.4 134.136C136.465 134.161 136.524 134.201 136.573 134.252C136.662 134.345 136.712 134.469 136.709 134.599C136.709 134.729 136.66 134.854 136.573 134.951C136.523 135 136.464 135.038 136.399 135.062C136.334 135.087 136.264 135.097 136.194 135.093L134.339 135.035L135.259 136.533C135.311 136.616 135.338 136.713 135.338 136.811C135.336 136.95 135.279 137.082 135.18 137.179C135.084 137.277 134.954 137.333 134.817 137.337C134.728 137.335 134.641 137.307 134.567 137.257C134.494 137.207 134.436 137.136 134.402 137.053L133.519 135.476L132.647 137.053C132.609 137.135 132.549 137.205 132.474 137.255C132.399 137.305 132.311 137.333 132.221 137.337Z" fill="#263238"/>
<g style="mix-blend-mode:multiply">
<path d="M158.736 30.8631H65.7007V36.6916H158.736V30.8631Z" fill="#32BAB0"/>
</g>
<path d="M122.335 20.1258H102.101C101.736 20.1258 101.385 19.9808 101.127 19.7225C100.869 19.4643 100.724 19.1141 100.724 18.7489C100.724 18.3837 100.869 18.0334 101.127 17.7752C101.385 17.517 101.736 17.3719 102.101 17.3719H122.335C122.7 17.3719 123.05 17.517 123.309 17.7752C123.567 18.0334 123.712 18.3837 123.712 18.7489C123.712 19.1141 123.567 19.4643 123.309 19.7225C123.05 19.9808 122.7 20.1258 122.335 20.1258Z" fill="#32BAB0" stroke="#263238" stroke-width="1.33739" stroke-linecap="round" stroke-linejoin="round"/>
<path d="M117.737 189.688C117.738 188.596 117.415 187.528 116.809 186.62C116.203 185.712 115.341 185.004 114.333 184.585C113.324 184.167 112.214 184.057 111.143 184.27C110.072 184.483 109.088 185.009 108.316 185.781C107.544 186.553 107.018 187.536 106.806 188.607C106.593 189.678 106.703 190.788 107.121 191.797C107.539 192.806 108.247 193.667 109.156 194.273C110.064 194.879 111.132 195.202 112.224 195.201C113.685 195.2 115.087 194.618 116.12 193.585C117.154 192.551 117.735 191.15 117.737 189.688Z" fill="#32BAB0"/>
<path d="M115.019 186.892H109.427V192.484H115.019V186.892Z" fill="#32BAB0" stroke="#263238" stroke-width="1.33739" stroke-linecap="round" stroke-linejoin="round"/>
<path d="M40.9674 89.3529L23.6606 83.7031L22.1207 79.6353L18.6047 79.5249L12.2244 78.3161L12.9917 79.6353L21.0223 85.4637L23.0036 86.4518L41.104 95.9067L40.9674 89.3529Z" fill="white" stroke="#263238" stroke-width="1.00396" stroke-miterlimit="10"/>
<path d="M22.1208 79.6352L20.4706 78.6472L17.1753 79.856L17.7219 80.5129L22.1208 79.6352Z" fill="white" stroke="#263238" stroke-width="1.00396" stroke-linejoin="round"/>
<path d="M40.9674 89.3529L23.6606 83.7031L22.1207 79.6353L18.6047 79.5249L12.2244 78.3161L12.9917 79.6353L21.0223 85.4637L23.0036 86.4518L41.104 95.9067L40.9674 89.3529Z" fill="white"/>
<path opacity="0.5" d="M40.9674 89.3529L23.6606 83.7031L22.1207 79.6353L18.6047 79.5249L12.2244 78.3161L12.9917 79.6353L21.0223 85.4637L23.0036 86.4518L41.104 95.9067L40.9674 89.3529Z" fill="#32BAB0" stroke="#263238" stroke-width="1.00396" stroke-miterlimit="10"/>
<path d="M40.9674 89.3529L23.6606 83.7031L22.1207 79.6353L18.6047 79.5249L12.2244 78.3161L12.9917 79.6353L21.0223 85.4637L23.0036 86.4518L41.104 95.9067L40.9674 89.3529Z" stroke="#263238" stroke-width="1.00396" stroke-miterlimit="10"/>
<path d="M22.1208 79.6352L20.4706 78.6472L17.1753 79.856L17.7219 80.5129L22.1208 79.6352Z" fill="white"/>
<path opacity="0.5" d="M22.1208 79.6352L20.4706 78.6472L17.1753 79.856L17.7219 80.5129L22.1208 79.6352Z" fill="#32BAB0" stroke="#263238" stroke-width="1.00396" stroke-linejoin="round"/>
<path d="M22.1208 79.6352L20.4706 78.6472L17.1753 79.856L17.7219 80.5129L22.1208 79.6352Z" stroke="#263238" stroke-width="1.00396" stroke-linejoin="round"/>
<path d="M44.6411 52.6844C44.6411 52.6844 44.373 55.0494 45.0405 56.5683C45.708 58.0872 49.4132 63.2324 49.4132 63.2324L42.4968 68.7771C42.4968 68.7771 39.6272 62.9959 39.0806 62.0604C38.534 61.1249 37.8771 57.0991 39.6587 54.2138C41.4404 51.3285 44.0051 50.5506 44.6411 52.6844Z" fill="white"/>
<g style="mix-blend-mode:multiply" opacity="0.5">
<path d="M41.0883 60.2841L44.0893 66.5067L42.4916 68.7824L39.4749 63.3954L41.0883 60.2841Z" fill="#32BAB0"/>
</g>
<path d="M44.6411 52.6844C44.6411 52.6844 44.373 55.0494 45.0405 56.5683C45.708 58.0872 49.4132 63.2324 49.4132 63.2324L42.4968 68.7771C42.4968 68.7771 39.6272 62.9959 39.0806 62.0604C38.534 61.1249 37.8771 57.0991 39.6587 54.2138C41.4404 51.3285 44.0051 50.5506 44.6411 52.6844Z" stroke="#263238" stroke-width="1.00396" stroke-miterlimit="10"/>
<path d="M46.7853 48.3538C46.3596 45.726 43.3481 40.381 38.5708 40.586C35.47 40.7226 34.0194 41.3481 32.674 42.1101C31.5773 42.7563 30.555 43.5212 29.6257 44.3911C27.2922 47.1923 26.4723 47.9596 26.9243 50.1039C26.8872 50.9592 27.0212 51.8133 27.3185 52.6161C28.0333 54.5239 28.522 55.7695 29.1422 56.6787C28.953 57.5669 28.459 59.9109 28.4327 60.447C28.4064 60.9831 30.0094 60.6099 30.8187 60.4049C32.3218 63.7685 35.0758 66.102 35.9325 66.3701C37.4251 66.8378 39.7848 64.3834 41.0357 62.4809C42.2865 60.5784 41.3405 58.4393 41.3457 57.5879C41.351 56.7365 44.1575 54.8655 45.1981 54.2716C46.2387 53.6777 47.2058 50.9764 46.7853 48.3538Z" fill="white"/>
<g style="mix-blend-mode:multiply" opacity="0.5">
<path d="M26.9454 50.1039C26.9083 50.9592 27.0423 51.8133 27.3396 52.6161C28.0543 54.5239 28.5431 55.7695 29.1633 56.6787C28.9741 57.5669 28.48 59.9109 28.4538 60.447C28.4275 60.9831 30.0304 60.6099 30.8398 60.405C32.3429 63.7686 35.0969 66.1021 35.9535 66.3701C37.4461 66.8378 39.8059 64.3835 41.0567 62.4809C41.3692 62.0059 41.5721 61.4674 41.6506 60.9042C41.5823 60.6572 41.535 60.5048 41.535 60.5048C41.535 60.5048 40.8307 63.2115 39.4328 62.8593C38.0348 62.5072 35.8957 59.706 34.7027 58.7389C33.5097 57.7719 33.9984 56.5 33.7619 55.06C33.5254 53.62 29.9937 52.3533 29.7572 51.5282C29.5207 50.7031 30.3458 47.2869 30.3458 47.2869C30.3458 47.2869 31.686 45.5 31.3969 46.2358C31.1926 46.8738 31.1185 47.5463 31.179 48.2135C31.2395 48.8806 31.4333 49.5289 31.749 50.1197C31.9706 50.5859 32.322 50.9782 32.7611 51.2495C33.2003 51.5208 33.7084 51.6596 34.2244 51.6491L35.5068 45.295L32.8002 43.0562L29.6468 44.3701C27.2923 47.1923 26.4882 47.9596 26.9454 50.1039Z" fill="#32BAB0"/>
</g>
<path d="M46.7853 48.3538C46.3596 45.726 43.3481 40.381 38.5708 40.586C35.47 40.7226 34.0194 41.3481 32.674 42.1101C31.5773 42.7563 30.555 43.5212 29.6257 44.3911C27.2922 47.1923 26.4723 47.9596 26.9243 50.1039C26.8872 50.9592 27.0212 51.8133 27.3185 52.6161C28.0333 54.5239 28.522 55.7695 29.1422 56.6787C28.953 57.5669 28.459 59.9109 28.4327 60.447C28.4064 60.9831 30.0094 60.6099 30.8187 60.4049C32.3218 63.7685 35.0758 66.102 35.9325 66.3701C37.4251 66.8378 39.7848 64.3834 41.0357 62.4809C42.2865 60.5784 41.3405 58.4393 41.3457 57.5879C41.351 56.7365 44.1575 54.8655 45.1981 54.2716C46.2387 53.6777 47.2058 50.9764 46.7853 48.3538Z" stroke="#263238" stroke-miterlimit="10"/>
<path d="M29.7939 55.0915L30.3195 56.5946C30.3195 56.5946 31.4495 56.9678 32.8264 55.4646" stroke="#263238" stroke-miterlimit="10" stroke-linecap="round"/>
<path d="M33.6777 62.113C33.6777 62.113 34.9286 61.9869 35.4331 60.2315" stroke="#263238" stroke-miterlimit="10" stroke-linecap="round"/>
<path d="M28.9163 53.8354C28.9163 53.8354 29.2894 52.7054 31.5441 52.7054" stroke="#263238" stroke-miterlimit="10" stroke-linecap="round"/>
<path d="M40.4735 38.4942C38.8352 38.2587 37.183 38.1322 35.5279 38.1158C35.5279 38.1158 30.5771 35.262 25.8208 38.305C21.0645 41.348 23.3507 46.6772 23.3507 48.0069C23.3507 49.3366 21.8265 49.3419 22.7778 51.0552C23.7291 52.7685 26.9455 51.8225 26.9455 51.8225C26.9795 51.1763 27.1503 50.5446 27.4465 49.9693C27.7428 49.394 28.1578 48.8882 28.6641 48.4852C30.3774 47.1555 31.7439 46.8664 32.3115 47.2501C32.3115 47.2501 31.9331 50.1039 32.5007 51.2444C32.5007 51.2444 34.4032 52.1957 34.9761 52.1957C35.549 52.1957 34.603 52.9998 36.5002 53.7145C36.8459 53.8387 37.2156 53.881 37.5804 53.8381C37.9452 53.7952 38.295 53.6684 38.6025 53.4675C38.881 52.3113 39.4907 50.5717 40.6259 50.9763C42.2919 51.5702 43.8108 55.6696 41.5561 57.0676C44.268 57.5616 47.5528 52.7633 47.7473 48.3906C47.9417 44.0179 43.2905 38.9883 40.4735 38.4942Z" fill="#263238"/>
<path d="M32.3955 45.3738C32.3955 45.3738 33.7935 44.6223 35.5068 46.2305C37.2202 47.8387 40.5522 49.9883 44.9669 48.8058" stroke="white" stroke-width="0.5" stroke-linecap="round" stroke-linejoin="round"/>
<path d="M32.2012 44.0862C32.2012 44.0862 33.163 42.5831 34.7712 42.5831C36.3794 42.5831 40.1372 44.8378 43.1381 44.8378" stroke="white" stroke-width="0.5" stroke-linecap="round" stroke-linejoin="round"/>
<path d="M31.1079 46.9821C31.1079 46.9821 29.2842 44.7327 27.5709 46.5564C25.8576 48.3801 26.9455 50.1039 26.9455 50.1039" stroke="white" stroke-width="0.5" stroke-linecap="round" stroke-linejoin="round"/>
<path d="M23.8184 48.4852C24.8634 47.5427 25.5131 46.2396 25.6368 44.8378C25.8523 42.478 29.074 40.4388 31.1079 42.3729" stroke="white" stroke-width="0.5" stroke-linecap="round" stroke-linejoin="round"/>
<path d="M27.1399 39.9028C27.1399 39.9028 30.3616 36.7914 33.042 40.7594" stroke="white" stroke-width="0.5" stroke-linecap="round" stroke-linejoin="round"/>
<path d="M53.3602 192.878C53.3602 192.878 55.3415 195.958 55.1208 197.939L54.9053 199.921C54.9053 199.921 47.6368 201.913 46.0969 201.913C44.557 201.913 36.4055 201.14 36.4055 201.14L36.0534 199.742C36.0288 199.639 36.0404 199.53 36.0863 199.434C36.1323 199.339 36.2097 199.262 36.3057 199.216L43.5742 195.827L45.8657 193.32L53.3602 192.878Z" fill="white" stroke="#263238" stroke-width="1.00396" stroke-miterlimit="10"/>
<path d="M47.2006 200.362C49.1715 200.515 52.9135 199.311 55.0841 198.544L54.9317 199.921C54.9317 199.921 47.6369 201.913 46.097 201.913C44.5571 201.913 36.4056 201.14 36.4056 201.14L36.1533 200.141C37.4567 200.147 44.5938 200.162 47.2006 200.362Z" fill="#32BAB0" stroke="#263238" stroke-width="1.00396" stroke-miterlimit="10"/>
<path d="M43.5848 195.827L33.0053 200.43C33.0053 200.43 32.1013 202.696 33.0053 203.148C33.9092 203.6 53.6178 203.148 53.6178 203.148C53.6178 203.148 54.979 199.569 52.8295 197.167C50.6799 194.765 43.5848 195.827 43.5848 195.827Z" fill="white" stroke="#263238" stroke-width="1.00396" stroke-miterlimit="10"/>
<path d="M53.6179 203.148C53.6179 203.148 33.9093 203.6 33.0054 203.148C32.5691 202.927 32.5534 202.291 32.6532 201.687H53.9648C53.8951 202.183 53.779 202.673 53.6179 203.148Z" fill="#32BAB0" stroke="#263238" stroke-width="1.00396" stroke-miterlimit="10"/>
<path d="M38.5812 115.831C38.5812 115.831 35.8168 128.082 34.7709 135.744C33.725 143.407 33.1101 158.759 33.3308 160.519C33.5516 162.28 44.5568 191.78 44.5568 191.78L45.6553 194.408L53.36 192.868C53.36 192.868 49.8388 181.642 48.5196 175.477C47.2004 169.312 44.3151 159.184 44.3151 157.424C44.3151 155.663 51.1474 122.038 51.6362 119.83C52.1249 117.623 54.3428 114.233 54.3428 114.233L39.5903 113.933L38.5812 115.831Z" fill="#32BAB0" stroke="#263238" stroke-width="1.00396" stroke-miterlimit="10"/>
<path d="M38.5814 115.831C38.5814 115.831 36.9627 127.02 37.6301 134.798C38.2976 142.577 39.7324 159.137 39.7324 161.602C39.7324 164.067 43.7109 178.788 43.9369 183.413C44.289 190.093 43.795 193.398 43.795 193.398L43.5585 195.821C43.5585 195.821 48.1992 196.483 49.2135 196.773C50.3851 197.074 51.5941 197.205 52.8031 197.161C52.8031 197.161 54.4902 189.735 54.4902 183.408C54.4902 177.08 53.0869 164.056 52.3879 158.78C51.6889 153.503 53.891 133.148 55.1419 129.348C56.3927 125.548 59.1256 117.502 57.2862 113.392C55.4467 109.282 38.5814 115.831 38.5814 115.831Z" fill="#32BAB0" stroke="#263238" stroke-width="1.00396" stroke-miterlimit="10"/>
<path d="M59.3306 111.332L59.1625 116.335C59.1625 116.335 56.1668 116.929 52.1304 117.628C48.7984 118.206 40.4314 117.476 37.6144 117.202C37.3577 117.18 37.1204 117.057 36.954 116.86C36.7877 116.663 36.7058 116.408 36.7262 116.151L36.9995 111.632L59.3306 111.332Z" fill="#263238"/>
<path d="M47.621 61.4561C47.621 61.4561 42.8909 66.5698 41.1092 69.7494C39.3276 72.9291 38.6233 77.801 37.9559 81.6376C37.2884 85.4742 39.0963 94.4824 38.5865 98.6186L36.9731 111.647C36.9731 111.647 36.6262 112.53 37.7877 113.497C38.9492 114.464 44.62 114.816 49.7442 115.074C51.6152 115.169 57.202 113.965 58.1164 113.907C59.2201 113.839 59.2569 112.436 59.3042 111.332C59.5249 106.145 60.4604 92.3171 61.0753 86.2941C62.342 74.0117 55.4098 62.1551 47.621 61.4561Z" fill="white" stroke="#263238" stroke-width="1.00396" stroke-miterlimit="10"/>
<g style="mix-blend-mode:multiply">
<path d="M60.4973 93.2788C60.7075 90.5512 60.9178 88.0758 61.1017 86.2941C61.1543 85.7686 61.1858 85.243 61.2121 84.7174L48.6459 86.8197L37.8508 83.1407C37.852 85.3744 37.9783 87.6063 38.2292 89.8259L48.8193 92.7901L60.4973 93.2788Z" fill="#32BAB0"/>
</g>
<g style="mix-blend-mode:multiply">
<path d="M47.1532 61.9711C46.4384 62.7647 45.0194 64.3782 43.6687 66.0915L51.6467 74.2009L54.2745 73.1498L47.1532 61.9711Z" fill="#32BAB0"/>
</g>
<path d="M47.6209 61.4561C47.6209 61.4561 42.8908 66.5698 41.1091 69.7494C40.5809 70.7158 40.1529 71.7336 39.832 72.7872L49.3447 61.7977C48.7827 61.6274 48.2053 61.513 47.6209 61.4561Z" fill="#263238"/>
<g style="mix-blend-mode:multiply">
<path d="M38.324 79.5669L48.646 82.9621L61.1807 81.522C60.9842 78.3995 60.2905 75.3284 59.1257 72.4246L49.0192 76.4766L39.9847 72.3825C39.246 74.7307 38.6908 77.1328 38.324 79.5669Z" fill="#32BAB0"/>
</g>
<g style="mix-blend-mode:multiply">
<path d="M56.0931 106.145C50.8578 107.024 45.486 106.585 40.4629 104.868L37.9454 104.006L37.1624 110.312L40.0319 111.116C45.4871 112.642 51.1887 113.081 56.8131 112.409L59.1309 112.131C59.2515 111.875 59.3194 111.598 59.3306 111.316C59.3936 109.913 59.504 107.874 59.6459 105.535L56.0931 106.145Z" fill="#32BAB0"/>
</g>
<g style="mix-blend-mode:multiply">
<path d="M57.4963 97.5569C52.2608 98.4394 46.8878 97.9986 41.8661 96.2746L38.6602 95.1761C38.7397 96.3212 38.7239 97.4709 38.6129 98.6133L38.2397 101.646L41.4352 102.539C46.8882 104.066 52.5881 104.507 58.2111 103.837L59.7878 103.648C59.9192 101.546 60.0716 99.3071 60.2345 97.0944L57.4963 97.5569Z" fill="#32BAB0"/>
</g>
<path d="M8.18865 75.332L18.3506 83.5024L18.7886 82.9576L8.62664 74.7872L8.18865 75.332Z" fill="#263238"/>
<path d="M52.5142 67.1269C52.5142 67.1269 56.2404 69.6654 56.3245 75.662C56.3613 78.2898 56.088 80.7442 55.4836 85.0486C54.8792 89.3529 51.1267 103.37 48.2046 105.072C45.2824 106.775 40.7468 103.559 40.7468 103.559L18.8099 88.9955L13.507 84.7122L10.8792 79.7509L11.7043 78.1742L18.174 83.1355L14.6895 79.9138L15.3727 79.0466L16.6341 79.9243L20.313 81.3013L21.1171 86.5569L22.2523 87.3348L43.238 95.0027C43.238 95.0027 42.9752 83.7084 43.1697 81.5483C43.3642 79.3883 43.6322 73.9592 45.9447 70.0227" fill="white"/>
<g style="mix-blend-mode:multiply" opacity="0.5">
<path d="M43.0906 86.4676C43.0906 90.3672 43.222 95.0027 43.222 95.0027L22.2573 87.3663L21.1221 86.5885L20.3179 81.3328L16.639 79.9559L15.3829 79.0624L14.6997 79.9296L18.1737 83.1355L11.704 78.1742L10.9209 79.7246L13.5487 84.6859L18.8516 88.9955L20.1866 89.8837L49.1713 99.223L43.0906 86.4676Z" fill="#32BAB0"/>
</g>
<path d="M52.5142 67.1269C52.5142 67.1269 56.2404 69.6654 56.3245 75.662C56.3613 78.2898 56.088 80.7442 55.4836 85.0486C54.8792 89.3529 51.1267 103.37 48.2046 105.072C45.2824 106.775 40.7468 103.559 40.7468 103.559L18.8099 88.9955L13.507 84.7122L10.8792 79.7509L11.7043 78.1742L18.174 83.1355L14.6895 79.9138L15.3727 79.0466L16.6341 79.9243L20.313 81.3013L21.1171 86.5569L22.2523 87.3348L43.238 95.0027C43.238 95.0027 42.9752 83.7084 43.1697 81.5483C43.3641 79.3883 43.6322 73.9592 45.9447 70.0227" stroke="#263238" stroke-width="1.00396" stroke-miterlimit="10"/>
<path d="M43.2377 95.0027L51.2473 100.784L53.3233 97.105C53.3233 97.105 54.7581 95.975 54.9683 95.1236C55.1785 94.2722 54.9105 92.8899 55.126 92.0385C55.3414 91.1871 56.4136 90.3883 56.5134 88.3281C56.6133 86.2679 56.5134 84.5493 56.5134 84.5493C56.5134 84.5493 58.2478 77.4174 58.0586 74.3166C57.8694 71.2158 54.8789 65.7341 52.4824 65.6133C50.0858 65.4924 46.9692 65.855 44.5517 69.5129C42.1341 73.1708 42.6281 83.8503 42.2497 84.5177C41.8713 85.1852 42.3968 88.4805 42.3968 88.4805C42.1868 88.6371 42.0125 88.8367 41.8857 89.066C41.7588 89.2953 41.6822 89.549 41.6611 89.8101C41.619 90.6668 42.544 92.7743 42.544 92.7743L43.2377 95.0027Z" fill="white" stroke="#263238" stroke-width="1.00396" stroke-miterlimit="10"/>
<g style="mix-blend-mode:multiply">
<path d="M42.46 81.7743C42.4765 82.6914 42.4079 83.608 42.255 84.5125C41.9187 85.1116 42.3023 87.8183 42.3864 88.3701C46.8914 89.7693 51.6551 90.1287 56.3191 89.4212C56.4193 89.0557 56.4792 88.6803 56.4977 88.3018C56.6029 86.2468 56.4977 84.523 56.4977 84.523C56.4977 84.523 56.6502 83.887 56.8604 82.92C52.0302 83.227 47.1809 82.8412 42.46 81.7743Z" fill="#32BAB0"/>
</g>
<g style="mix-blend-mode:multiply">
<path d="M44.226 70.0963C43.4745 71.6047 43.054 73.8699 42.8123 76.1666C47.5834 77.9874 52.7275 78.6135 57.796 77.9903C57.9983 76.7748 58.088 75.5433 58.0641 74.3113C57.9731 73.3375 57.743 72.3818 57.3808 71.4733C52.9551 71.5766 48.5344 71.1138 44.226 70.0963Z" fill="#32BAB0"/>
</g>
<path d="M42.5439 92.8321L43.2219 95.0027L51.2315 100.784L53.3075 97.1049C53.3075 97.1049 54.7422 95.975 54.9525 95.1236C54.99 94.9755 55.0129 94.8241 55.0208 94.6716C50.7999 94.5987 46.6062 93.9804 42.5439 92.8321Z" fill="#263238"/>
<path d="M48.3409 196.704C48.3409 196.704 48.5196 192.153 49.3921 185.499C50.2645 178.846 48.1675 169.396 47.8154 167.819C47.4632 166.243 47.9941 162.742 47.6419 161.513C47.2898 160.283 45.587 155.038 46.5908 148.952C47.5946 142.866 48.4093 126.778 48.4093 126.778C48.4093 126.778 45.8813 124.723 45.1403 122.048C44.3992 119.373 44.9668 118.532 44.9668 118.532" stroke="#263238" stroke-width="1.00396" stroke-miterlimit="10"/>
<path d="M49.5128 118.779L48.5405 124.161" stroke="#263238" stroke-width="1.00396" stroke-miterlimit="10"/>
</svg>
