<svg width="36" height="36" viewBox="0 0 36 36" fill="none" xmlns="http://www.w3.org/2000/svg">
<path d="M6.38839 24.8908C4.7111 22.0633 4.1237 18.7207 4.73649 15.4908C5.34928 12.2608 7.1201 9.3657 9.71643 7.349C12.3128 5.33229 15.556 4.33275 18.8371 4.53808C22.1183 4.7434 25.2116 6.13947 27.5363 8.46411C29.8609 10.7888 31.257 13.8821 31.4623 17.1632C31.6677 20.4444 30.6682 23.6876 28.6515 26.2839C26.6348 28.8803 23.7396 30.6511 20.5097 31.2639C17.2798 31.8767 13.9372 31.2893 11.1097 29.6121L11.1097 29.6119L6.44708 30.9441C6.25418 30.9992 6.05004 31.0018 5.85582 30.9514C5.66161 30.9011 5.48439 30.7998 5.34252 30.6579C5.20066 30.516 5.09931 30.3388 5.04898 30.1446C4.99866 29.9504 5.00119 29.7462 5.0563 29.5533L6.38849 24.8907L6.38839 24.8908Z" stroke="#5B716F" stroke-width="2" stroke-linecap="round" stroke-linejoin="round"/>
<path d="M11.2498 19.6929C12.1818 19.6929 12.9373 18.9374 12.9373 18.0054C12.9373 17.0734 12.1818 16.3179 11.2498 16.3179C10.3178 16.3179 9.56229 17.0734 9.56229 18.0054C9.56229 18.9374 10.3178 19.6929 11.2498 19.6929Z" fill="#5B716F"/>
<path d="M18 19.6929C18.932 19.6929 19.6875 18.9374 19.6875 18.0054C19.6875 17.0734 18.932 16.3179 18 16.3179C17.068 16.3179 16.3125 17.0734 16.3125 18.0054C16.3125 18.9374 17.068 19.6929 18 19.6929Z" fill="#5B716F"/>
<path d="M24.7502 19.6929C25.6822 19.6929 26.4377 18.9374 26.4377 18.0054C26.4377 17.0734 25.6822 16.3179 24.7502 16.3179C23.8182 16.3179 23.0627 17.0734 23.0627 18.0054C23.0627 18.9374 23.8182 19.6929 24.7502 19.6929Z" fill="#5B716F"/>
</svg>
