<svg width="290" height="65" viewBox="0 0 290 65" fill="none" xmlns="http://www.w3.org/2000/svg">
<rect width="290" height="65" rx="10" fill="#32BAB0"/>
<path d="M78.168 38L75.752 34.56C75.4533 34.5813 75.2187 34.592 75.048 34.592H72.28V38H70.68V26.8H75.048C76.4987 26.8 77.64 27.1467 78.472 27.84C79.304 28.5333 79.72 29.488 79.72 30.704C79.72 31.568 79.5067 32.304 79.08 32.912C78.6533 33.52 78.0453 33.9627 77.256 34.24L79.912 38H78.168ZM75 33.232C76.0133 33.232 76.7867 33.0133 77.32 32.576C77.8533 32.1387 78.12 31.5147 78.12 30.704C78.12 29.8933 77.8533 29.2747 77.32 28.848C76.7867 28.4107 76.0133 28.192 75 28.192H72.28V33.232H75ZM89.745 33.808C89.745 33.9253 89.7343 34.08 89.713 34.272H82.833C82.929 35.0187 83.2543 35.6213 83.809 36.08C84.3743 36.528 85.073 36.752 85.905 36.752C86.9183 36.752 87.7343 36.4107 88.353 35.728L89.201 36.72C88.817 37.168 88.337 37.5093 87.761 37.744C87.1957 37.9787 86.561 38.096 85.857 38.096C84.961 38.096 84.1663 37.9147 83.473 37.552C82.7797 37.1787 82.241 36.6613 81.857 36C81.4837 35.3387 81.297 34.592 81.297 33.76C81.297 32.9387 81.4783 32.1973 81.841 31.536C82.2143 30.8747 82.721 30.3627 83.361 30C84.0117 29.6267 84.7423 29.44 85.553 29.44C86.3637 29.44 87.0837 29.6267 87.713 30C88.353 30.3627 88.849 30.8747 89.201 31.536C89.5637 32.1973 89.745 32.9547 89.745 33.808ZM85.553 30.736C84.817 30.736 84.1983 30.96 83.697 31.408C83.2063 31.856 82.9183 32.4427 82.833 33.168H88.273C88.1877 32.4533 87.8943 31.872 87.393 31.424C86.9023 30.9653 86.289 30.736 85.553 30.736ZM99.9899 29.52V36.848C99.9899 38.3307 99.6219 39.424 98.8859 40.128C98.1499 40.8427 97.0512 41.2 95.5899 41.2C94.7899 41.2 94.0272 41.088 93.3019 40.864C92.5765 40.6507 91.9899 40.3413 91.5419 39.936L92.2779 38.752C92.6725 39.0933 93.1579 39.36 93.7339 39.552C94.3205 39.7547 94.9232 39.856 95.5419 39.856C96.5339 39.856 97.2645 39.6213 97.7339 39.152C98.2139 38.6827 98.4539 37.968 98.4539 37.008V36.336C98.0912 36.7733 97.6432 37.104 97.1099 37.328C96.5872 37.5413 96.0165 37.648 95.3979 37.648C94.5872 37.648 93.8512 37.4773 93.1899 37.136C92.5392 36.784 92.0272 36.2987 91.6539 35.68C91.2805 35.0507 91.0939 34.336 91.0939 33.536C91.0939 32.736 91.2805 32.0267 91.6539 31.408C92.0272 30.7787 92.5392 30.2933 93.1899 29.952C93.8512 29.6107 94.5872 29.44 95.3979 29.44C96.0379 29.44 96.6299 29.5573 97.1739 29.792C97.7285 30.0267 98.1819 30.3733 98.5339 30.832V29.52H99.9899ZM95.5739 36.304C96.1285 36.304 96.6245 36.1867 97.0619 35.952C97.5099 35.7173 97.8565 35.392 98.1019 34.976C98.3579 34.5493 98.4859 34.0693 98.4859 33.536C98.4859 32.7147 98.2139 32.0533 97.6699 31.552C97.1259 31.04 96.4272 30.784 95.5739 30.784C94.7099 30.784 94.0059 31.04 93.4619 31.552C92.9179 32.0533 92.6459 32.7147 92.6459 33.536C92.6459 34.0693 92.7685 34.5493 93.0139 34.976C93.2699 35.392 93.6165 35.7173 94.0539 35.952C94.5019 36.1867 95.0085 36.304 95.5739 36.304ZM102.925 29.52H104.461V38H102.925V29.52ZM103.693 27.888C103.394 27.888 103.143 27.792 102.941 27.6C102.749 27.408 102.653 27.1733 102.653 26.896C102.653 26.6187 102.749 26.384 102.941 26.192C103.143 25.9893 103.394 25.888 103.693 25.888C103.991 25.888 104.237 25.984 104.429 26.176C104.631 26.3573 104.733 26.5867 104.733 26.864C104.733 27.152 104.631 27.3973 104.429 27.6C104.237 27.792 103.991 27.888 103.693 27.888ZM109.826 38.096C109.132 38.096 108.466 38.0053 107.826 37.824C107.186 37.632 106.684 37.392 106.322 37.104L106.962 35.888C107.335 36.1547 107.788 36.368 108.322 36.528C108.855 36.688 109.394 36.768 109.938 36.768C111.282 36.768 111.954 36.384 111.954 35.616C111.954 35.36 111.863 35.1573 111.682 35.008C111.5 34.8587 111.271 34.752 110.994 34.688C110.727 34.6133 110.343 34.5333 109.842 34.448C109.159 34.3413 108.599 34.2187 108.162 34.08C107.735 33.9413 107.367 33.7067 107.058 33.376C106.748 33.0453 106.594 32.5813 106.594 31.984C106.594 31.216 106.914 30.6027 107.554 30.144C108.194 29.6747 109.052 29.44 110.13 29.44C110.695 29.44 111.26 29.5093 111.826 29.648C112.391 29.7867 112.855 29.9733 113.218 30.208L112.562 31.424C111.868 30.976 111.052 30.752 110.114 30.752C109.463 30.752 108.967 30.8587 108.626 31.072C108.284 31.2853 108.114 31.568 108.114 31.92C108.114 32.1973 108.21 32.416 108.402 32.576C108.594 32.736 108.828 32.8533 109.106 32.928C109.394 33.0027 109.794 33.088 110.306 33.184C110.988 33.3013 111.538 33.4293 111.954 33.568C112.38 33.696 112.743 33.92 113.042 34.24C113.34 34.56 113.49 35.008 113.49 35.584C113.49 36.352 113.159 36.9653 112.498 37.424C111.847 37.872 110.956 38.096 109.826 38.096ZM120.177 37.504C119.953 37.696 119.676 37.8453 119.345 37.952C119.014 38.048 118.673 38.096 118.321 38.096C117.468 38.096 116.806 37.8667 116.337 37.408C115.868 36.9493 115.633 36.2933 115.633 35.44V30.784H114.193V29.52H115.633V27.664H117.169V29.52H119.601V30.784H117.169V35.376C117.169 35.8347 117.281 36.1867 117.505 36.432C117.74 36.6773 118.07 36.8 118.497 36.8C118.966 36.8 119.366 36.6667 119.697 36.4L120.177 37.504ZM123.506 30.944C123.773 30.4533 124.167 30.08 124.69 29.824C125.213 29.568 125.847 29.44 126.594 29.44V30.928C126.509 30.9173 126.391 30.912 126.242 30.912C125.41 30.912 124.754 31.1627 124.274 31.664C123.805 32.1547 123.57 32.8587 123.57 33.776V38H122.034V29.52H123.506V30.944ZM132.041 38.096C131.198 38.096 130.441 37.9093 129.769 37.536C129.097 37.1627 128.569 36.6507 128.185 36C127.812 35.3387 127.625 34.592 127.625 33.76C127.625 32.928 127.812 32.1867 128.185 31.536C128.569 30.8747 129.097 30.3627 129.769 30C130.441 29.6267 131.198 29.44 132.041 29.44C132.884 29.44 133.636 29.6267 134.297 30C134.969 30.3627 135.492 30.8747 135.865 31.536C136.249 32.1867 136.441 32.928 136.441 33.76C136.441 34.592 136.249 35.3387 135.865 36C135.492 36.6507 134.969 37.1627 134.297 37.536C133.636 37.9093 132.884 38.096 132.041 38.096ZM132.041 36.752C132.585 36.752 133.07 36.6293 133.497 36.384C133.934 36.128 134.276 35.776 134.521 35.328C134.766 34.8693 134.889 34.3467 134.889 33.76C134.889 33.1733 134.766 32.656 134.521 32.208C134.276 31.7493 133.934 31.3973 133.497 31.152C133.07 30.9067 132.585 30.784 132.041 30.784C131.497 30.784 131.006 30.9067 130.569 31.152C130.142 31.3973 129.801 31.7493 129.545 32.208C129.3 32.656 129.177 33.1733 129.177 33.76C129.177 34.3467 129.3 34.8693 129.545 35.328C129.801 35.776 130.142 36.128 130.569 36.384C131.006 36.6293 131.497 36.752 132.041 36.752ZM146.558 38.096C145.694 38.096 144.921 37.9093 144.238 37.536C143.566 37.1627 143.038 36.6507 142.654 36C142.27 35.3387 142.078 34.592 142.078 33.76C142.078 32.928 142.27 32.1867 142.654 31.536C143.038 30.8747 143.566 30.3627 144.238 30C144.921 29.6267 145.694 29.44 146.558 29.44C147.326 29.44 148.009 29.5947 148.606 29.904C149.214 30.2133 149.684 30.6613 150.014 31.248L148.846 32C148.58 31.5947 148.249 31.2907 147.854 31.088C147.46 30.8853 147.022 30.784 146.542 30.784C145.988 30.784 145.486 30.9067 145.038 31.152C144.601 31.3973 144.254 31.7493 143.998 32.208C143.753 32.656 143.63 33.1733 143.63 33.76C143.63 34.3573 143.753 34.8853 143.998 35.344C144.254 35.792 144.601 36.1387 145.038 36.384C145.486 36.6293 145.988 36.752 146.542 36.752C147.022 36.752 147.46 36.6507 147.854 36.448C148.249 36.2453 148.58 35.9413 148.846 35.536L150.014 36.272C149.684 36.8587 149.214 37.312 148.606 37.632C148.009 37.9413 147.326 38.096 146.558 38.096ZM155.51 38.096C154.667 38.096 153.91 37.9093 153.238 37.536C152.566 37.1627 152.038 36.6507 151.654 36C151.281 35.3387 151.094 34.592 151.094 33.76C151.094 32.928 151.281 32.1867 151.654 31.536C152.038 30.8747 152.566 30.3627 153.238 30C153.91 29.6267 154.667 29.44 155.51 29.44C156.353 29.44 157.105 29.6267 157.766 30C158.438 30.3627 158.961 30.8747 159.334 31.536C159.718 32.1867 159.91 32.928 159.91 33.76C159.91 34.592 159.718 35.3387 159.334 36C158.961 36.6507 158.438 37.1627 157.766 37.536C157.105 37.9093 156.353 38.096 155.51 38.096ZM155.51 36.752C156.054 36.752 156.539 36.6293 156.966 36.384C157.403 36.128 157.745 35.776 157.99 35.328C158.235 34.8693 158.358 34.3467 158.358 33.76C158.358 33.1733 158.235 32.656 157.99 32.208C157.745 31.7493 157.403 31.3973 156.966 31.152C156.539 30.9067 156.054 30.784 155.51 30.784C154.966 30.784 154.475 30.9067 154.038 31.152C153.611 31.3973 153.27 31.7493 153.014 32.208C152.769 32.656 152.646 33.1733 152.646 33.76C152.646 34.3467 152.769 34.8693 153.014 35.328C153.27 35.776 153.611 36.128 154.038 36.384C154.475 36.6293 154.966 36.752 155.51 36.752ZM166.562 29.44C167.639 29.44 168.493 29.7547 169.122 30.384C169.762 31.0027 170.082 31.9147 170.082 33.12V38H168.546V33.296C168.546 32.4747 168.349 31.856 167.954 31.44C167.559 31.024 166.994 30.816 166.258 30.816C165.426 30.816 164.77 31.0613 164.29 31.552C163.81 32.032 163.57 32.7253 163.57 33.632V38H162.034V29.52H163.506V30.8C163.815 30.3627 164.231 30.0267 164.754 29.792C165.287 29.5573 165.89 29.44 166.562 29.44ZM184.886 33.808C184.886 33.9253 184.875 34.08 184.854 34.272H177.974C178.07 35.0187 178.395 35.6213 178.95 36.08C179.515 36.528 180.214 36.752 181.046 36.752C182.059 36.752 182.875 36.4107 183.494 35.728L184.342 36.72C183.958 37.168 183.478 37.5093 182.902 37.744C182.336 37.9787 181.702 38.096 180.998 38.096C180.102 38.096 179.307 37.9147 178.614 37.552C177.92 37.1787 177.382 36.6613 176.998 36C176.624 35.3387 176.438 34.592 176.438 33.76C176.438 32.9387 176.619 32.1973 176.982 31.536C177.355 30.8747 177.862 30.3627 178.502 30C179.152 29.6267 179.883 29.44 180.694 29.44C181.504 29.44 182.224 29.6267 182.854 30C183.494 30.3627 183.99 30.8747 184.342 31.536C184.704 32.1973 184.886 32.9547 184.886 33.808ZM180.694 30.736C179.958 30.736 179.339 30.96 178.838 31.408C178.347 31.856 178.059 32.4427 177.974 33.168H183.414C183.328 32.4533 183.035 31.872 182.534 31.424C182.043 30.9653 181.43 30.736 180.694 30.736ZM197.627 29.44C198.693 29.44 199.536 29.7493 200.155 30.368C200.784 30.9867 201.099 31.904 201.099 33.12V38H199.563V33.296C199.563 32.4747 199.371 31.856 198.987 31.44C198.613 31.024 198.075 30.816 197.371 30.816C196.592 30.816 195.973 31.0613 195.515 31.552C195.056 32.032 194.827 32.7253 194.827 33.632V38H193.291V33.296C193.291 32.4747 193.099 31.856 192.715 31.44C192.341 31.024 191.803 30.816 191.099 30.816C190.32 30.816 189.701 31.0613 189.243 31.552C188.784 32.032 188.555 32.7253 188.555 33.632V38H187.019V29.52H188.491V30.784C188.8 30.3467 189.205 30.016 189.707 29.792C190.208 29.5573 190.779 29.44 191.419 29.44C192.08 29.44 192.667 29.5733 193.179 29.84C193.691 30.1067 194.085 30.496 194.363 31.008C194.683 30.5173 195.125 30.1333 195.691 29.856C196.267 29.5787 196.912 29.44 197.627 29.44ZM207.013 29.44C208.186 29.44 209.082 29.728 209.701 30.304C210.33 30.88 210.645 31.7387 210.645 32.88V38H209.189V36.88C208.933 37.2747 208.565 37.5787 208.085 37.792C207.615 37.9947 207.055 38.096 206.405 38.096C205.455 38.096 204.693 37.8667 204.117 37.408C203.551 36.9493 203.269 36.3467 203.269 35.6C203.269 34.8533 203.541 34.256 204.085 33.808C204.629 33.3493 205.493 33.12 206.677 33.12H209.109V32.816C209.109 32.1547 208.917 31.648 208.533 31.296C208.149 30.944 207.583 30.768 206.837 30.768C206.335 30.768 205.845 30.8533 205.365 31.024C204.885 31.184 204.479 31.4027 204.149 31.68L203.509 30.528C203.946 30.176 204.469 29.9093 205.077 29.728C205.685 29.536 206.33 29.44 207.013 29.44ZM206.661 36.912C207.247 36.912 207.754 36.784 208.181 36.528C208.607 36.2613 208.917 35.888 209.109 35.408V34.224H206.741C205.439 34.224 204.789 34.6613 204.789 35.536C204.789 35.9627 204.954 36.2987 205.285 36.544C205.615 36.7893 206.074 36.912 206.661 36.912ZM213.487 29.52H215.023V38H213.487V29.52ZM214.255 27.888C213.957 27.888 213.706 27.792 213.503 27.6C213.311 27.408 213.215 27.1733 213.215 26.896C213.215 26.6187 213.311 26.384 213.503 26.192C213.706 25.9893 213.957 25.888 214.255 25.888C214.554 25.888 214.799 25.984 214.991 26.176C215.194 26.3573 215.295 26.5867 215.295 26.864C215.295 27.152 215.194 27.3973 214.991 27.6C214.799 27.792 214.554 27.888 214.255 27.888ZM217.956 26.128H219.492V38H217.956V26.128Z" fill="white"/>
<path d="M46 23L34 34L22 23" stroke="white" stroke-width="2" stroke-linecap="round" stroke-linejoin="round"/>
<path d="M22 23H46V40C46 40.2652 45.8946 40.5196 45.7071 40.7071C45.5196 40.8946 45.2652 41 45 41H23C22.7348 41 22.4804 40.8946 22.2929 40.7071C22.1054 40.5196 22 40.2652 22 40V23Z" stroke="white" stroke-width="2" stroke-linecap="round" stroke-linejoin="round"/>
<path d="M31.8182 32L22.3083 40.7174" stroke="white" stroke-width="2" stroke-linecap="round" stroke-linejoin="round"/>
<path d="M45.6918 40.7174L36.1818 32" stroke="white" stroke-width="2" stroke-linecap="round" stroke-linejoin="round"/>
</svg>
