<svg width="254" height="138" viewBox="0 0 254 138" fill="none" xmlns="http://www.w3.org/2000/svg">
<path d="M99.0998 86.0472C98.4271 86.0466 97.7725 86.2649 97.235 86.6694C96.6974 87.0738 96.3062 87.6422 96.1204 88.2887C95.9347 88.9352 95.9645 89.6247 96.2053 90.2527C96.4462 90.8808 96.885 91.4134 97.4554 91.7699L105.779 100.094C106.067 100.381 106.409 100.609 106.784 100.765C107.16 100.92 107.563 101 107.97 101C108.376 101 108.779 100.92 109.155 100.764C109.531 100.608 109.872 100.38 110.16 100.092C110.447 99.8045 110.675 99.4629 110.831 99.0871C110.986 98.7113 111.066 98.3085 111.066 97.9017C111.066 97.495 110.986 97.0923 110.83 96.7165C110.674 96.3408 110.446 95.9994 110.158 95.7119L106.687 92.2437H130.066C130.888 92.2437 131.675 91.9174 132.256 91.3367C132.837 90.7559 133.163 89.9683 133.163 89.147C133.163 88.3257 132.837 87.5381 132.256 86.9573C131.675 86.3766 130.888 86.0503 130.066 86.0503H99.0998V86.0472Z" fill="#5B716F"/>
<path d="M142.496 79.9529C143.169 79.9536 143.824 79.7352 144.361 79.3308C144.899 78.9264 145.29 78.3579 145.476 77.7114C145.662 77.0649 145.632 76.3755 145.391 75.7474C145.15 75.1193 144.711 74.5868 144.141 74.2302L135.817 65.9064C135.236 65.3258 134.448 64.9997 133.626 65C132.805 65.0003 132.017 65.3269 131.437 65.908C130.856 66.489 130.53 67.2769 130.53 68.0984C130.531 68.9198 130.857 69.7075 131.438 70.2882L134.91 73.7565H111.53C110.708 73.7565 109.921 74.0827 109.34 74.6634C108.759 75.2442 108.433 76.0318 108.433 76.8531C108.433 77.6744 108.759 78.4621 109.34 79.0428C109.921 79.6235 110.708 79.9498 111.53 79.9498H142.496V79.9529Z" fill="#5B716F"/>
<path d="M226.614 61.5424C226.472 61.6002 226.329 61.6543 226.194 61.7237C226.059 61.7931 225.974 61.8394 225.87 61.8973C225.765 61.9552 225.607 62.0478 225.484 62.1288C225.36 62.2098 225.279 62.2715 225.179 62.3487C225.079 62.4259 224.944 62.5339 224.828 62.6342C224.712 62.7345 224.643 62.8001 224.554 62.8888C224.465 62.9776 224.338 63.1088 224.234 63.2245C224.13 63.3402 224.068 63.4213 223.987 63.5216C223.906 63.6219 223.794 63.7762 223.701 63.9074C223.609 64.0385 223.559 64.1157 223.493 64.2237L223.447 64.3009C223.373 64.4244 223.304 64.5517 223.238 64.6867C223.215 64.7253 223.196 64.7639 223.177 64.8025C223.123 64.9066 223.069 65.0146 223.022 65.1227C222.976 65.2307 222.938 65.3156 222.899 65.412C222.86 65.5085 222.845 65.5316 222.822 65.5972L222.752 65.7708C222.706 65.8943 222.664 66.0216 222.625 66.1566C222.586 66.2917 222.552 66.3804 222.521 66.4923C222.463 66.6968 222.405 66.9051 222.359 67.1212C222.323 67.2652 222.292 67.4118 222.266 67.561C222.266 67.642 222.235 67.7192 222.22 67.804C222.204 67.8889 222.189 67.9777 222.177 68.0703C222.143 68.2863 222.12 68.5139 222.096 68.7416C222.096 68.8496 222.069 68.9538 222.062 69.0618C222.062 69.1042 222.062 69.1428 222.062 69.1852C222.035 69.5711 222.019 69.9337 222.019 70.3234C222.03 71.8942 222.218 73.4589 222.579 74.9878C224.014 81.2958 228.115 87.816 233.131 91.5467C233.718 91.9914 234.331 92.401 234.967 92.7736L235.229 92.9163C235.376 92.9974 235.523 93.0822 235.669 93.1555L236.005 93.3215L236.368 93.4951L236.734 93.6532L237.054 93.7844C237.182 93.8346 237.305 93.8809 237.44 93.9233L237.745 94.0275L238.111 94.1432L238.435 94.2281L238.767 94.313L239.207 94.3979L239.412 94.4364L239.585 94.4557L242.216 92.9434C240.586 92.6817 239.021 92.1094 237.606 91.2574C230.43 87.1215 224.643 77.0519 224.643 68.7956C224.643 65.4429 225.6 62.9043 227.212 61.3379L226.958 61.4112C226.838 61.4498 226.726 61.4961 226.614 61.5424Z" fill="#263238"/>
<path d="M228.937 58.7491C228.536 58.889 228.149 59.0646 227.779 59.2738L225.16 60.7862C226.313 60.1338 227.612 59.7822 228.937 59.7638V58.7491Z" fill="#37474F"/>
<path d="M239.415 94.4366L239.211 94.398L238.771 94.3131L238.439 94.2282L238.223 94.1742L238.115 94.1433L237.76 94.0276L237.456 93.9234L237.07 93.7845L236.75 93.6534L236.383 93.4952L236.02 93.3216L235.685 93.1557C235.538 93.0824 235.388 92.9975 235.237 92.9126C235.156 92.8663 235.071 92.8277 234.986 92.7776C234.374 92.4169 233.781 92.0228 233.212 91.597C231.578 90.3802 230.098 88.9708 228.802 87.3994C227.683 86.0507 226.679 84.6105 225.8 83.0938C224.35 80.6069 223.27 77.9217 222.594 75.123L222.571 74.9918C222.211 73.4654 222.023 71.9034 222.012 70.3351C222.012 69.9724 222.012 69.6213 222.05 69.2741C222.05 69.2239 222.05 69.1738 222.05 69.1236C222.048 69.0889 222.048 69.0542 222.05 69.0195C222.073 68.7301 222.104 68.4446 222.147 68.1668L222.17 67.9894C222.17 67.8968 222.205 67.8119 222.22 67.7193C222.235 67.6267 222.27 67.4647 222.297 67.3335C222.324 67.2023 222.351 67.0634 222.382 66.9477C222.413 66.8319 222.459 66.6699 222.502 66.531C222.502 66.477 222.529 66.423 222.544 66.3728C222.559 66.3227 222.544 66.3304 222.563 66.3111C222.598 66.1992 222.633 66.0835 222.671 65.9716C222.71 65.8597 222.772 65.7092 222.826 65.5858C222.88 65.4623 222.957 65.2501 223.034 65.0881C223.111 64.926 223.146 64.8643 223.204 64.7524L223.273 64.6212C223.335 64.5055 223.401 64.3936 223.466 64.2817C223.532 64.1698 223.593 64.085 223.659 63.9885L223.748 63.8612C223.794 63.7879 223.844 63.7185 223.894 63.6529L224.014 63.5024C224.049 63.46 224.08 63.4137 224.118 63.3712L224.33 63.1282L224.404 63.0549C224.492 62.9623 224.581 62.8697 224.678 62.7809C224.72 62.7424 224.77 62.7076 224.813 62.6729C224.928 62.5726 225.044 62.4761 225.164 62.3874C225.283 62.2987 225.364 62.2369 225.468 62.1675C225.573 62.0981 225.723 62.0093 225.854 61.936C225.985 61.8627 226.066 61.8164 226.178 61.7624C226.29 61.7084 226.456 61.6389 226.599 61.5811C226.742 61.5232 226.823 61.4885 226.938 61.4499C227.054 61.4113 227.112 61.3959 227.201 61.3689L227.398 61.3187C227.513 61.2917 227.629 61.257 227.749 61.2338C227.868 61.2107 228.088 61.1798 228.258 61.1605C228.428 61.1412 228.486 61.1258 228.605 61.1181C228.725 61.1104 228.813 61.1181 228.921 61.1181V59.8218C227.597 59.8402 226.298 60.1918 225.144 60.8442C224.982 60.9406 224.824 61.0409 224.666 61.149L224.585 61.203C224.134 61.5242 223.719 61.8929 223.347 62.3025L223.219 62.4414C223.107 62.5687 222.999 62.6999 222.891 62.8272L222.799 62.9623C222.62 63.203 222.454 63.4528 222.301 63.7107C222.247 63.8072 222.189 63.9036 222.135 64.0039C222.081 64.1043 222 64.2586 221.934 64.3898C221.869 64.5209 221.811 64.656 221.749 64.7756C221.688 64.8952 221.634 65.0456 221.58 65.1845C221.495 65.4006 221.417 65.6243 221.344 65.852C221.313 65.96 221.279 66.0719 221.248 66.1838C221.194 66.3767 221.144 66.5696 221.093 66.7741C221.07 66.8744 221.047 66.9708 221.028 67.0711C220.964 67.3643 220.91 67.6653 220.866 67.9739C220.866 68.0511 220.846 68.1282 220.839 68.2015C220.804 68.4639 220.777 68.7262 220.758 68.9732C220.758 69.0696 220.758 69.1661 220.738 69.2625C220.715 69.6059 220.704 69.9531 220.704 70.3081C220.735 72.5968 221.1 74.8687 221.788 77.052C222.141 78.2084 222.561 79.3433 223.046 80.451C223.303 81.0117 223.56 81.566 223.817 82.1138C224.652 83.761 225.621 85.3366 226.715 86.8245C228.887 89.776 231.506 92.2799 234.323 93.9041C235.441 94.5699 236.641 95.0886 237.892 95.4474L239.574 94.4828L239.415 94.4366Z" fill="#455A64"/>
<path d="M252.618 81.3383C252.618 73.7918 247.321 64.6173 240.785 60.8441C237.506 58.9536 234.543 58.78 232.401 60.0262C231.749 60.412 227.386 62.9236 226.718 63.2978C224.566 64.5286 223.246 67.1829 223.246 70.9677C223.246 78.5141 228.543 87.6887 235.079 91.4619C238.351 93.3524 241.314 93.526 243.455 92.2837C244.111 91.8979 248.509 89.3747 249.169 88.9927C251.295 87.7581 252.618 85.1076 252.618 81.3383Z" fill="#32BAB0"/>
<path opacity="0.3" d="M252.618 81.3383C252.618 73.7918 247.321 64.6173 240.785 60.8441C237.506 58.9536 234.543 58.78 232.401 60.0262C231.749 60.412 227.386 62.9236 226.718 63.2978C224.566 64.5286 223.246 67.1829 223.246 70.9677C223.246 78.5141 228.543 87.6887 235.079 91.4619C238.351 93.3524 241.314 93.526 243.455 92.2837C244.111 91.8979 248.509 89.3747 249.169 88.9927C251.295 87.7581 252.618 85.1076 252.618 81.3383Z" fill="black"/>
<path d="M235.06 64.1351C241.591 67.9083 246.889 77.0867 246.889 84.6292C246.889 92.1718 241.618 95.2351 235.06 91.4619C228.501 87.6887 223.227 78.5142 223.227 70.9677C223.227 63.4213 228.532 60.3619 235.06 64.1351Z" fill="#32BAB0"/>
<path d="M240.075 94.5137H240.133C240.334 94.5137 240.519 94.5368 240.727 94.5407H240.824C241.107 94.5417 241.391 94.525 241.672 94.4905H241.703C241.939 94.4594 242.174 94.4156 242.405 94.3593C242.502 94.3401 242.602 94.3169 242.699 94.2899C242.88 94.2398 243.061 94.1819 243.239 94.1163C243.416 94.0507 243.505 94.0083 243.625 93.9465C243.69 93.9195 243.748 93.8887 243.81 93.8578C244.377 93.5707 244.898 93.1986 245.353 92.7544C244.326 93.0377 243.251 93.1021 242.197 92.9434L239.566 94.4558C239.751 94.479 239.913 94.5021 240.075 94.5137Z" fill="#263238"/>
<path d="M238.258 61.8974C238.325 62.9089 238.762 63.8605 239.485 64.571C245.122 69.7525 249.242 78.1631 249.242 85.289C249.242 90.4743 247.066 94.1626 243.509 95.401C243.963 95.2529 244.4 95.0536 244.809 94.8069L247.429 93.2945C250.214 91.6896 251.873 88.279 251.873 83.7689C251.873 76.6469 247.749 68.2324 242.112 63.0548C241.391 62.3428 240.955 61.3921 240.885 60.3812V49.8833L238.258 51.4034L236.962 50.6549L238.258 51.4034V61.8974Z" fill="#37474F"/>
<path d="M239.485 64.571C238.762 63.8605 238.325 62.9089 238.258 61.8974V51.4034L236.962 50.6549V62.5262C236.965 62.6845 236.983 62.8421 237.016 62.9969L237.039 63.1127C237.076 63.2777 237.124 63.4401 237.182 63.5988C237.276 63.8448 237.391 64.0823 237.525 64.3087L237.633 64.4669C237.733 64.6266 237.847 64.7776 237.973 64.9183C238.049 65.0063 238.132 65.0888 238.22 65.1652C238.532 65.4391 238.837 65.7246 239.138 66.014L239.377 66.2493C239.639 66.5117 239.898 66.7779 240.149 67.0556L240.264 67.1752C240.55 67.4877 240.828 67.808 241.105 68.1398L241.314 68.3944C241.541 68.6722 241.765 68.9577 241.981 69.2432L242.139 69.4515C242.398 69.7949 242.649 70.1498 242.892 70.5048L243.061 70.7633C243.262 71.0603 243.447 71.3651 243.644 71.6699L243.806 71.9323C244.034 72.3181 244.25 72.6807 244.462 73.0627L244.582 73.2903C244.755 73.6105 244.925 73.9346 245.087 74.2626L245.237 74.5673C245.428 74.9557 245.609 75.3492 245.781 75.7479C245.801 75.8019 245.824 75.8521 245.843 75.9061C245.994 76.2572 246.136 76.6121 246.275 76.9709C246.314 77.079 246.356 77.1831 246.395 77.2912C246.545 77.677 246.688 78.1052 246.815 78.5103C246.943 78.9154 247.062 79.3282 247.17 79.7372L247.24 79.9995C247.34 80.3853 247.433 80.7943 247.514 81.1917L247.548 81.3923C247.62 81.7575 247.682 82.1202 247.734 82.4803C247.734 82.5459 247.753 82.6153 247.764 82.6809C247.815 83.0667 247.857 83.4525 247.884 83.8383C247.884 83.9232 247.884 84.0081 247.903 84.093C247.926 84.4788 247.946 84.8877 247.946 85.2774C247.946 87.5923 247.487 89.5213 246.665 91.0298C246.489 91.3528 246.289 91.6623 246.067 91.9558C245.959 92.0985 245.847 92.2374 245.731 92.3686C245.615 92.4997 245.496 92.6232 245.372 92.7544C244.917 93.1986 244.397 93.5707 243.829 93.8578C243.771 93.8887 243.71 93.9195 243.644 93.9465C243.517 94.0083 243.386 94.0661 243.258 94.1163C243.131 94.1664 242.926 94.232 242.761 94.2783H242.718C242.622 94.3053 242.525 94.3285 242.425 94.3478L242.251 94.3941C242.078 94.4288 241.9 94.4558 241.723 94.4789H241.692C241.41 94.5134 241.127 94.5302 240.843 94.5291H240.623C240.469 94.5291 240.311 94.5291 240.152 94.5021H240.075C239.913 94.5021 239.751 94.4712 239.585 94.4481L237.903 95.4126C238.836 95.6818 239.802 95.822 240.774 95.8293C240.905 95.8293 241.032 95.8293 241.159 95.81C241.287 95.7907 241.51 95.81 241.673 95.783L241.97 95.7405C242.159 95.7135 242.355 95.6865 242.521 95.6518C242.61 95.6518 242.699 95.6132 242.788 95.5901L242.896 95.5592C243.061 95.5168 243.227 95.4782 243.389 95.4242L243.505 95.3895C247.062 94.1626 249.238 90.4627 249.238 85.2774C249.242 78.1631 245.122 69.7524 239.485 64.571Z" fill="#455A64"/>
<path d="M232.359 61.3263L232.413 61.3032C232.444 61.2917 232.474 61.2761 232.502 61.2569L235.133 59.7368C235.302 59.6289 235.439 59.4774 235.53 59.2981C235.62 59.1188 235.66 58.9185 235.646 58.7183V46.8469L233.019 48.367V60.2383C233.037 60.4661 232.984 60.6939 232.865 60.8893C232.747 61.0847 232.57 61.2377 232.359 61.3263Z" fill="#37474F"/>
<path d="M229.188 59.7599C229.819 59.7625 230.449 59.8219 231.07 59.9374C231.147 59.9582 231.227 59.9606 231.305 59.9444C231.382 59.9282 231.455 59.8939 231.517 59.8442C231.578 59.7945 231.628 59.7309 231.66 59.6586C231.692 59.5863 231.707 59.5073 231.703 59.4281V58.2476C230.759 58.2587 229.824 58.4282 228.937 58.7491V59.7754C229.022 59.7715 229.103 59.7599 229.188 59.7599Z" fill="#37474F"/>
<path d="M229.519 61.0642C229.832 61.0757 230.144 61.1041 230.453 61.1491C230.754 61.1953 231.063 61.2571 231.371 61.3342H231.429H231.46C231.559 61.3581 231.66 61.3749 231.761 61.3844H231.788C231.871 61.3922 231.955 61.3922 232.039 61.3844H232.085C232.164 61.3715 232.241 61.3521 232.317 61.3265C232.527 61.2378 232.704 61.0849 232.823 60.8895C232.941 60.6941 232.995 60.4663 232.976 60.2385V48.3672L231.68 47.5956V59.4091C231.684 59.4882 231.669 59.5672 231.637 59.6395C231.604 59.7118 231.555 59.7754 231.494 59.8251C231.432 59.8748 231.359 59.9092 231.282 59.9254C231.204 59.9416 231.124 59.9391 231.047 59.9183C230.426 59.8028 229.796 59.7434 229.164 59.7409C229.08 59.7409 228.999 59.7409 228.914 59.7409V61.0372C229.006 61.0372 229.095 61.0372 229.188 61.0372C229.28 61.0372 229.415 61.0603 229.519 61.0642Z" fill="#455A64"/>
<path d="M251.406 88.5144C251.406 77.3645 243.578 63.8226 233.922 58.2322C229.099 55.4467 224.735 55.1843 221.576 57.0053L216.294 60.0532C213.138 61.882 211.182 65.7902 211.182 71.3613C211.182 82.5112 219.01 96.0531 228.663 101.643C233.486 104.425 237.849 104.691 241.009 102.87L246.287 99.8147C249.45 97.9975 251.406 94.0854 251.406 88.5144Z" fill="#32BAB0"/>
<path opacity="0.1" d="M241.026 102.867C247.854 98.9248 247.854 86.142 241.026 74.3155C234.198 62.489 223.128 56.0973 216.3 60.0392C209.472 63.9811 209.473 76.7639 216.301 88.5904C223.129 100.417 234.199 106.809 241.026 102.867Z" fill="black"/>
<path d="M246.155 91.5506C246.155 80.4007 238.327 66.8588 228.671 61.2685C223.84 58.4791 219.469 58.2206 216.305 60.0532L213.69 61.5617C210.518 63.3866 208.558 67.3025 208.558 72.8813C208.558 84.0312 216.386 97.5731 226.039 103.163C230.87 105.949 235.241 106.211 238.405 104.383L241.036 102.863C244.196 101.038 246.155 97.114 246.155 91.5506Z" fill="#F0F0F0"/>
<path d="M226.039 62.7771C235.685 68.352 243.524 81.9093 243.524 93.0592C243.524 104.209 235.696 108.727 226.039 103.152C216.383 97.577 208.558 84.0197 208.558 72.8698C208.558 61.7199 216.386 57.2137 226.039 62.7771Z" fill="#E0E0E0"/>
<path d="M244.809 93.0707C244.809 81.5273 236.676 67.4414 226.676 61.6697C223.732 59.9683 220.889 59.1079 218.219 59.1079C216.394 59.0826 214.595 59.5476 213.011 60.4544C212.139 60.9637 208.612 62.9814 207.717 63.5023C204.129 65.6049 201.992 70.0263 201.992 75.9215C201.992 87.4649 210.125 101.551 220.125 107.322C223.069 109.024 225.912 109.884 228.582 109.884C230.419 109.91 232.23 109.438 233.821 108.518C234.678 108.013 238.161 106.022 239.049 105.509C242.66 103.414 244.809 98.9851 244.809 93.0707Z" fill="#455A64"/>
<path d="M228.582 109.884C225.916 109.884 223.069 109.024 220.125 107.323C210.129 101.535 201.992 87.4649 201.992 75.9215C201.992 67.5495 206.297 62.1443 212.96 62.1443C215.63 62.1443 218.474 63.0046 221.417 64.7061C231.414 70.4932 239.55 84.5637 239.55 96.1071C239.55 104.475 235.245 109.884 228.582 109.884Z" fill="#37474F"/>
<path d="M224.674 97.9358C223.171 97.8904 221.707 97.4485 220.43 96.6549C215.437 93.7729 211.375 86.7396 211.375 80.9717C211.375 76.7934 213.528 74.0928 216.853 74.0928C218.349 74.1412 219.806 74.5816 221.078 75.3698C226.07 78.2557 230.133 85.2889 230.133 91.0568C230.152 95.2351 227.999 97.9358 224.674 97.9358Z" fill="#263238"/>
<path d="M202.374 117.562C202.374 106.019 194.241 91.9327 184.241 86.1571C181.297 84.4596 178.454 83.5992 175.788 83.5992C173.962 83.5729 172.163 84.038 170.579 84.9457C169.708 85.4549 166.177 87.4727 165.286 87.9936C161.694 90.0962 159.557 94.5176 159.557 100.409C159.557 111.952 167.69 126.042 177.69 131.814C180.634 133.515 183.477 134.376 186.143 134.376C187.983 134.397 189.795 133.92 191.386 132.994C192.246 132.489 195.73 130.498 196.614 129.985C200.225 127.905 202.374 123.476 202.374 117.562Z" fill="#455A64"/>
<path d="M186.147 134.375C183.481 134.375 180.637 133.515 177.694 131.814C167.694 126.027 159.561 111.952 159.561 100.409C159.561 92.0407 163.866 86.6355 170.533 86.6355C173.199 86.6355 176.042 87.4959 178.986 89.1934C188.982 94.9805 197.119 109.055 197.119 120.598C197.115 128.966 192.81 134.375 186.147 134.375Z" fill="#37474F"/>
<path d="M195.823 120.598C195.823 109.448 187.995 95.9064 178.338 90.316C173.508 87.5266 169.137 87.2643 165.992 89.0969L163.376 90.6093C160.209 92.4341 158.245 96.3462 158.245 101.925C158.245 113.075 166.073 126.617 175.73 132.207C180.56 134.997 184.928 135.255 188.076 133.43L190.707 131.91C193.867 130.081 195.823 126.169 195.823 120.598Z" fill="#F0F0F0"/>
<path d="M175.711 91.8323C185.356 97.4073 193.196 110.965 193.196 122.114C193.196 133.264 185.367 137.782 175.711 132.223C166.054 126.663 158.226 113.09 158.226 101.941C158.226 90.7906 166.054 86.2574 175.711 91.8323Z" fill="#E0E0E0"/>
<path d="M193.196 122.114C193.196 110.965 185.368 97.4227 175.711 91.8323C170.888 89.0468 166.525 88.7844 163.365 90.6054L158.083 93.6418C154.923 95.4705 152.967 99.3826 152.967 104.95C152.967 116.1 160.795 129.642 170.452 135.232C175.271 138.017 179.634 138.28 182.798 136.459L188.072 133.415C191.236 131.601 193.196 127.689 193.196 122.114Z" fill="#32BAB0"/>
<path opacity="0.1" d="M170.452 94.8686C180.097 100.443 187.933 114.001 187.933 125.151C187.933 136.301 180.109 140.818 170.452 135.243C160.795 129.669 152.967 116.111 152.967 104.961C152.967 93.8114 160.795 89.2936 170.452 94.8686Z" fill="black"/>
<path d="M157.898 101.215C157.755 101.269 157.612 101.327 157.473 101.393C157.335 101.458 157.257 101.508 157.153 101.57C157.049 101.632 156.891 101.721 156.767 101.802C156.644 101.883 156.563 101.944 156.463 102.022C156.362 102.099 156.227 102.203 156.112 102.303L155.834 102.562C155.726 102.67 155.622 102.782 155.517 102.897C155.413 103.013 155.348 103.094 155.267 103.194C155.186 103.295 155.078 103.449 154.985 103.58C154.892 103.711 154.842 103.792 154.777 103.9L154.73 103.978C154.657 104.101 154.588 104.224 154.518 104.363L154.46 104.479C154.406 104.583 154.352 104.687 154.302 104.795C154.252 104.904 154.221 104.988 154.183 105.085C154.144 105.181 154.128 105.208 154.105 105.27L154.036 105.448C153.99 105.571 153.947 105.698 153.905 105.833C153.862 105.968 153.835 106.057 153.804 106.169C153.743 106.372 153.689 106.58 153.642 106.794C153.608 106.941 153.577 107.087 153.55 107.238L153.503 107.477C153.503 107.566 153.473 107.654 153.461 107.743C153.426 107.963 153.403 108.187 153.38 108.414C153.38 108.522 153.353 108.627 153.345 108.738C153.345 108.777 153.345 108.819 153.345 108.862C153.318 109.228 153.303 109.607 153.303 110C153.314 111.571 153.502 113.136 153.862 114.664C155.305 120.984 159.41 127.504 164.433 131.235C165.023 131.677 165.636 132.087 166.27 132.462L166.532 132.605L166.972 132.844L167.308 133.01L167.67 133.179C167.794 133.237 167.913 133.287 168.056 133.338C168.199 133.388 168.268 133.43 168.376 133.469L168.762 133.612L169.063 133.716L169.449 133.828L169.773 133.916L170.105 133.997C170.251 134.032 170.398 134.059 170.545 134.086L170.745 134.125L170.919 134.144L173.492 132.608C171.855 132.351 170.282 131.778 168.863 130.922C161.698 126.787 155.892 116.736 155.892 108.461C155.892 105.112 156.848 102.573 158.461 101.007C158.376 101.03 158.288 101.049 158.206 101.076L157.898 101.215Z" fill="#263238"/>
<path d="M160.213 98.4219C159.813 98.5621 159.426 98.7363 159.055 98.9427L156.436 100.455C157.59 99.8081 158.889 99.4618 160.213 99.4481V98.4219Z" fill="#37474F"/>
<path d="M170.684 134.109L170.483 134.071C170.336 134.044 170.194 134.017 170.043 133.982C169.893 133.947 169.823 133.928 169.711 133.901L169.491 133.847L169.387 133.812L169.001 133.7L168.693 133.596L168.307 133.453C168.199 133.415 168.095 133.368 167.987 133.322L167.601 133.168L167.238 132.994L166.903 132.828L166.455 132.585L166.204 132.45C165.592 132.088 165 131.694 164.43 131.27C162.796 130.053 161.316 128.643 160.02 127.072C158.905 125.723 157.907 124.283 157.034 122.766C155.577 120.273 154.493 117.58 153.816 114.772C153.816 114.73 153.816 114.688 153.789 114.641C153.443 113.114 153.269 111.554 153.268 109.988C153.268 109.626 153.268 109.275 153.307 108.927C153.307 108.877 153.307 108.823 153.307 108.773C153.305 108.738 153.305 108.704 153.307 108.669C153.33 108.38 153.361 108.098 153.403 107.82L153.426 107.643C153.426 107.55 153.461 107.461 153.476 107.373C153.492 107.284 153.527 107.118 153.55 106.987C153.573 106.856 153.604 106.717 153.638 106.601C153.673 106.485 153.716 106.319 153.754 106.181L153.801 106.026C153.802 106.006 153.802 105.985 153.801 105.964C153.839 105.849 153.874 105.737 153.912 105.625C153.951 105.513 154.013 105.359 154.063 105.239C154.113 105.12 154.198 104.904 154.275 104.745C154.352 104.587 154.387 104.522 154.445 104.41L154.514 104.275C154.576 104.163 154.642 104.047 154.707 103.939C154.773 103.831 154.835 103.742 154.9 103.646L154.985 103.515L155.197 103.287L155.313 103.14C155.351 103.098 155.382 103.052 155.421 103.009C155.46 102.967 155.56 102.847 155.633 102.766L155.703 102.693L155.976 102.419C156.019 102.38 156.069 102.349 156.112 102.311C156.227 102.211 156.343 102.118 156.463 102.029C156.582 101.94 156.663 101.879 156.767 101.809C156.872 101.74 157.022 101.651 157.153 101.578C157.284 101.505 157.365 101.454 157.473 101.4C157.581 101.346 157.755 101.277 157.898 101.223L158.237 101.088L158.5 101.011L158.669 100.972C158.785 100.941 158.901 100.91 159.021 100.887C159.14 100.864 159.356 100.833 159.53 100.814C159.646 100.814 159.757 100.779 159.877 100.768C159.997 100.756 160.085 100.768 160.193 100.768V99.4713C158.869 99.4897 157.57 99.8413 156.416 100.494C156.25 100.586 156.092 100.69 155.938 100.795L155.857 100.853C155.405 101.174 154.988 101.542 154.615 101.952L154.491 102.091C154.379 102.218 154.271 102.349 154.163 102.477C154.132 102.519 154.101 102.566 154.067 102.608C153.893 102.847 153.727 103.098 153.573 103.38L153.407 103.669C153.338 103.796 153.272 103.927 153.206 104.055C153.141 104.182 153.083 104.321 153.021 104.46C152.959 104.599 152.905 104.726 152.851 104.869C152.767 105.085 152.689 105.305 152.616 105.532C152.581 105.64 152.551 105.752 152.52 105.864C152.466 106.061 152.412 106.25 152.365 106.458L152.296 106.755C152.234 107.049 152.18 107.35 152.138 107.658C152.138 107.731 152.138 107.813 152.111 107.886C152.076 108.144 152.049 108.407 152.03 108.657L152.007 108.947C151.987 109.29 151.972 109.637 151.972 109.992C151.999 112.277 152.36 114.545 153.044 116.725C153.397 117.88 153.817 119.013 154.302 120.12C154.546 120.678 154.804 121.232 155.074 121.783C155.907 123.431 156.876 125.007 157.971 126.493C160.143 129.445 162.763 131.949 165.579 133.577C166.699 134.239 167.898 134.758 169.148 135.12L170.83 134.152L170.684 134.109Z" fill="#455A64"/>
<path d="M182.285 121.887C182.285 114.344 176.988 105.166 170.452 101.393C167.173 99.5022 164.21 99.3286 162.068 100.579L156.385 103.846C154.233 105.077 152.913 107.735 152.913 111.516C152.913 119.063 158.21 128.237 164.746 132.01C168.018 133.901 170.981 134.078 173.122 132.832L178.836 129.545C180.962 128.307 182.285 125.664 182.285 121.887Z" fill="#32BAB0"/>
<path opacity="0.3" d="M182.285 121.887C182.285 114.344 176.988 105.166 170.452 101.393C167.173 99.5022 164.21 99.3286 162.068 100.579L156.385 103.846C154.233 105.077 152.913 107.735 152.913 111.516C152.913 119.063 158.21 128.237 164.746 132.01C168.018 133.901 170.981 134.078 173.122 132.832L178.836 129.545C180.962 128.307 182.285 125.664 182.285 121.887Z" fill="black"/>
<path d="M173.099 132.838C177.72 130.17 177.72 121.52 173.099 113.517C168.478 105.514 160.987 101.189 156.366 103.856C151.746 106.524 151.746 115.174 156.366 123.177C160.987 131.18 168.478 135.506 173.099 132.838Z" fill="#32BAB0"/>
<path d="M170.879 130.452C174.481 128.382 174.494 121.646 170.908 115.406C167.322 109.166 161.495 105.786 157.893 107.856C154.291 109.926 154.278 116.663 157.865 122.902C161.451 129.142 167.278 132.522 170.879 130.452Z" fill="#263238"/>
<path d="M169.295 113.445L163.862 118.87L157.377 107.631C159.032 106.667 161.331 106.806 163.862 108.268C166.017 109.592 167.869 111.356 169.295 113.445Z" fill="#455A64"/>
<path d="M173.049 124.179C173.049 127.103 172.019 129.163 170.348 130.112L163.863 118.87L169.295 113.445C171.567 116.69 173.049 120.648 173.049 124.179Z" fill="#37474F"/>
<path d="M170.356 130.112C168.701 131.065 166.386 130.942 163.862 129.479C161.704 128.16 159.854 126.391 158.438 124.294L163.862 118.87L170.356 130.112Z" fill="#455A64"/>
<path d="M163.862 118.87L158.438 124.294C156.158 121.053 154.684 117.083 154.684 113.576C154.684 110.644 155.714 108.592 157.385 107.631L163.862 118.87Z" fill="#37474F"/>
<path d="M171.347 134.186H171.401C171.602 134.186 171.787 134.21 171.995 134.21H172.092C172.381 134.21 172.663 134.19 172.941 134.159H172.971C173.208 134.131 173.442 134.088 173.674 134.032C173.77 134.009 173.87 133.99 173.967 133.963C174.148 133.912 174.329 133.851 174.503 133.785C174.677 133.72 174.773 133.677 174.889 133.619L175.074 133.527C175.642 133.242 176.163 132.871 176.617 132.427C175.59 132.709 174.515 132.772 173.461 132.612L170.826 134.129C171.015 134.152 171.185 134.175 171.347 134.186Z" fill="#263238"/>
<path d="M169.53 101.57C169.598 102.581 170.034 103.533 170.757 104.244C176.39 109.421 180.514 117.836 180.514 124.958C180.514 130.147 178.338 133.831 174.781 135.07C175.236 134.924 175.672 134.726 176.081 134.48L178.701 132.967C181.486 131.362 183.145 127.952 183.145 123.442C183.145 116.32 179.021 107.905 173.384 102.728C172.668 102.014 172.237 101.063 172.173 100.054V89.556L169.545 91.0761L168.249 90.3276L169.545 91.0761L169.53 101.57Z" fill="#37474F"/>
<path d="M170.757 104.244C170.034 103.533 169.598 102.581 169.53 101.57V91.0761L168.234 90.3276V102.199C168.237 102.356 168.255 102.512 168.288 102.666L168.311 102.785C168.348 102.95 168.395 103.113 168.454 103.272C168.547 103.517 168.662 103.753 168.797 103.978C168.832 104.035 168.866 104.086 168.905 104.14C169.005 104.298 169.117 104.449 169.241 104.591C169.319 104.678 169.403 104.761 169.491 104.838C169.804 105.108 170.109 105.393 170.41 105.687L170.649 105.922C170.911 106.184 171.17 106.451 171.42 106.725L171.536 106.848C171.822 107.16 172.099 107.481 172.373 107.809C172.447 107.894 172.516 107.982 172.586 108.067C172.813 108.345 173.037 108.627 173.253 108.916C173.307 108.985 173.361 109.051 173.411 109.12C173.67 109.468 173.917 109.819 174.183 110.177L174.353 110.436C174.553 110.733 174.738 111.034 174.935 111.339L175.097 111.605C175.325 111.991 175.541 112.353 175.753 112.732L175.873 112.963C176.046 113.283 176.216 113.607 176.378 113.935L176.529 114.236C176.718 114.622 176.914 115.008 177.069 115.421C177.092 115.471 177.115 115.525 177.134 115.575C177.286 115.93 177.429 116.285 177.563 116.64C177.605 116.748 177.647 116.856 177.686 116.964C177.833 117.369 177.979 117.774 178.106 118.183C178.234 118.592 178.35 119.001 178.461 119.41C178.485 119.495 178.508 119.584 178.527 119.672C178.632 120.068 178.725 120.466 178.805 120.864L178.84 121.065C178.913 121.428 178.971 121.79 179.025 122.153C179.025 122.219 179.025 122.284 179.052 122.35C179.106 122.736 179.144 123.121 179.175 123.507C179.175 123.592 179.175 123.677 179.175 123.762C179.198 124.148 179.218 124.553 179.218 124.942C179.218 127.257 178.759 129.206 177.937 130.699C177.76 131.022 177.561 131.331 177.339 131.625C177.231 131.767 177.119 131.906 177.003 132.037C176.887 132.169 176.768 132.292 176.644 132.423C176.19 132.867 175.669 133.238 175.101 133.523L174.916 133.615C174.785 133.673 174.654 133.731 174.53 133.781C174.407 133.831 174.202 133.901 174.036 133.947H173.994C173.897 133.974 173.797 133.993 173.701 134.017L173.527 134.059C173.353 134.094 173.176 134.125 172.998 134.144H172.944C172.663 134.176 172.379 134.193 172.096 134.194H171.876C171.721 134.194 171.563 134.194 171.405 134.167H171.347C171.185 134.167 171.019 134.132 170.857 134.109L169.175 135.078C170.108 135.347 171.074 135.487 172.045 135.494C172.177 135.494 172.304 135.494 172.431 135.494C172.559 135.494 172.782 135.494 172.944 135.467L173.241 135.425C173.43 135.398 173.627 135.371 173.789 135.336L174.059 135.274L174.167 135.244C174.333 135.201 174.499 135.159 174.661 135.108L174.777 135.07C178.334 133.847 180.51 130.147 180.51 124.958C180.514 117.836 176.39 109.421 170.757 104.244Z" fill="#455A64"/>
<path d="M163.608 100.999L163.685 100.972L163.774 100.926L166.386 99.4288C166.555 99.321 166.692 99.1694 166.782 98.9901C166.873 98.8109 166.913 98.6105 166.899 98.4103V86.5197L164.271 88.0397V99.9072C164.291 100.136 164.237 100.365 164.118 100.561C163.998 100.758 163.82 100.911 163.608 100.999Z" fill="#37474F"/>
<path d="M160.46 99.4289C161.091 99.4295 161.722 99.4889 162.342 99.6063C162.419 99.6263 162.499 99.6281 162.576 99.6115C162.653 99.595 162.725 99.5606 162.787 99.5111C162.849 99.4616 162.898 99.3983 162.93 99.3264C162.963 99.2545 162.978 99.176 162.975 99.0971V97.9165C162.031 97.9235 161.095 98.0931 160.209 98.4181V99.4443C160.294 99.4289 160.375 99.4289 160.46 99.4289Z" fill="#37474F"/>
<path d="M160.791 100.733C161.096 100.733 161.409 100.775 161.725 100.822C162.034 100.867 162.341 100.929 162.643 101.007C162.661 101.005 162.679 101.005 162.697 101.007H162.732C162.832 101.032 162.934 101.049 163.037 101.057H163.064C163.147 101.063 163.231 101.063 163.315 101.057H163.361C163.44 101.046 163.517 101.026 163.592 100.999C163.804 100.911 163.983 100.757 164.102 100.561C164.221 100.365 164.275 100.136 164.256 99.9072V88.0397L162.96 87.2681V99.0854C162.963 99.1643 162.947 99.2428 162.915 99.3147C162.882 99.3866 162.833 99.4499 162.772 99.4994C162.71 99.5489 162.638 99.5833 162.561 99.5998C162.483 99.6164 162.403 99.6146 162.327 99.5947C161.706 99.4772 161.076 99.4178 160.444 99.4172C160.359 99.4172 160.278 99.4172 160.193 99.4172V100.713H160.467C160.598 100.737 160.687 100.729 160.791 100.733Z" fill="#455A64"/>
<path d="M165.093 80.7944C164.615 80.5205 163.959 80.559 163.234 80.9796C162.465 81.477 161.825 82.1498 161.367 82.9426C160.909 83.7353 160.646 84.6255 160.599 85.5398C160.599 86.3847 160.896 86.9789 161.37 87.249L171.88 93.3139L175.583 86.867L165.093 80.7944Z" fill="#32BAB0"/>
<path opacity="0.3" d="M165.093 80.7944C164.615 80.5205 163.959 80.559 163.234 80.9796C162.465 81.477 161.825 82.1498 161.367 82.9426C160.909 83.7353 160.646 84.6255 160.599 85.5398C160.599 86.3847 160.896 86.9789 161.37 87.249L171.88 93.3139L175.583 86.867L165.093 80.7944Z" fill="black"/>
<path opacity="0.3" d="M160.919 83.9386C160.719 84.4495 160.611 84.9914 160.599 85.5397C160.599 86.3846 160.896 86.9788 161.37 87.2488L171.88 93.3138L173.187 91.0375L160.919 83.9386Z" fill="black"/>
<path d="M171.12 91.6046C171.167 90.6919 171.431 89.8036 171.888 89.0123C172.346 88.221 172.984 87.5492 173.751 87.0521C174.468 86.6354 175.12 86.593 175.595 86.8592C176.069 87.1254 176.367 87.7234 176.367 88.5683C176.317 89.4808 176.054 90.3687 175.597 91.1604C175.141 91.952 174.504 92.6249 173.739 93.1247C173.01 93.5414 172.354 93.5838 171.88 93.306C171.405 93.0283 171.12 92.4457 171.12 91.6046Z" fill="#32BAB0"/>
<path opacity="0.2" d="M171.12 91.6046C171.167 90.6919 171.431 89.8036 171.888 89.0123C172.346 88.221 172.984 87.5492 173.751 87.0521C174.468 86.6354 175.12 86.593 175.595 86.8592C176.069 87.1254 176.367 87.7234 176.367 88.5683C176.317 89.4808 176.054 90.3687 175.597 91.1604C175.141 91.952 174.504 92.6249 173.739 93.1247C173.01 93.5414 172.354 93.5838 171.88 93.306C171.405 93.0283 171.12 92.4457 171.12 91.6046Z" fill="black"/>
<path d="M172.258 90.941C172.286 90.4231 172.436 89.9191 172.695 89.47C172.955 89.0208 173.316 88.6392 173.751 88.356C173.893 88.2294 174.072 88.151 174.262 88.132C174.452 88.1129 174.643 88.1542 174.808 88.2499C174.973 88.3456 175.103 88.491 175.181 88.6652C175.258 88.8394 175.279 89.0336 175.24 89.2203C175.212 89.7372 175.062 90.2401 174.803 90.6885C174.545 91.1369 174.184 91.5181 173.751 91.8013C173.608 91.9264 173.429 92.0036 173.24 92.0222C173.051 92.0408 172.861 91.9998 172.697 91.905C172.532 91.8102 172.401 91.6662 172.323 91.4934C172.244 91.3205 172.221 91.1274 172.258 90.941Z" fill="#37474F"/>
<path d="M174.542 88.8346C174.549 88.602 174.495 88.3716 174.384 88.1671C174.16 88.1801 173.943 88.2476 173.751 88.3639C173.316 88.647 172.955 89.0286 172.695 89.4778C172.436 89.9269 172.286 90.4309 172.258 90.9488C172.252 91.1812 172.307 91.411 172.416 91.6162C172.641 91.6034 172.86 91.5359 173.053 91.4195C173.486 91.1359 173.847 90.7541 174.106 90.305C174.365 89.8559 174.514 89.3521 174.542 88.8346Z" fill="#263238"/>
<path d="M233.455 41.326C232.98 41.0521 232.32 41.0906 231.595 41.5112C230.829 42.0097 230.192 42.6818 229.735 43.4728C229.278 44.2638 229.014 45.1515 228.964 46.0637C228.964 46.9086 229.265 47.4989 229.735 47.7729L240.241 53.8378L243.949 47.3909L233.455 41.326Z" fill="#32BAB0"/>
<path opacity="0.3" d="M233.455 41.326C232.98 41.0521 232.32 41.0906 231.595 41.5112C230.829 42.0097 230.192 42.6818 229.735 43.4728C229.278 44.2638 229.014 45.1515 228.964 46.0637C228.964 46.9086 229.265 47.4989 229.735 47.7729L240.241 53.8378L243.949 47.3909L233.455 41.326Z" fill="black"/>
<path opacity="0.3" d="M229.273 44.4666C229.077 44.9771 228.97 45.5173 228.956 46.0638C228.956 46.9087 229.257 47.499 229.728 47.7729L240.233 53.8379L241.545 51.5577L229.273 44.4666Z" fill="black"/>
<path d="M239.485 52.1364C239.534 51.2239 239.798 50.3359 240.254 49.5443C240.711 48.7527 241.347 48.0798 242.112 47.58C242.834 47.1672 243.486 47.1247 243.96 47.3909C244.435 47.6571 244.732 48.2552 244.732 49.1001C244.684 50.0128 244.421 50.9011 243.963 51.6924C243.506 52.4837 242.868 53.1555 242.101 53.6526C241.375 54.0732 240.719 54.1117 240.241 53.8378C239.763 53.5639 239.485 52.9736 239.485 52.1364Z" fill="#32BAB0"/>
<path opacity="0.2" d="M239.485 52.1364C239.534 51.2239 239.798 50.3359 240.254 49.5443C240.711 48.7527 241.347 48.0798 242.112 47.58C242.834 47.1672 243.486 47.1247 243.96 47.3909C244.435 47.6571 244.732 48.2552 244.732 49.1001C244.684 50.0128 244.421 50.9011 243.963 51.6924C243.506 52.4837 242.868 53.1555 242.101 53.6526C241.375 54.0732 240.719 54.1117 240.241 53.8378C239.763 53.5639 239.485 52.9736 239.485 52.1364Z" fill="black"/>
<path d="M240.623 51.4805C240.651 50.9629 240.8 50.4591 241.059 50.01C241.318 49.5609 241.679 49.1791 242.112 48.8956C242.263 48.7876 242.439 48.7208 242.623 48.7019C242.807 48.6829 242.993 48.7124 243.162 48.7875C243.316 48.8941 243.439 49.0403 243.517 49.2107C243.595 49.3812 243.626 49.5695 243.605 49.7559C243.578 50.274 243.428 50.7782 243.169 51.2274C242.909 51.6766 242.547 52.0581 242.112 52.3408C241.97 52.4669 241.792 52.545 241.602 52.564C241.413 52.5831 241.223 52.5421 241.058 52.447C240.893 52.3518 240.763 52.2073 240.685 52.0339C240.607 51.8604 240.585 51.6668 240.623 51.4805Z" fill="#37474F"/>
<path d="M242.907 49.3663C242.912 49.1339 242.858 48.9041 242.749 48.6989C242.524 48.7117 242.305 48.7792 242.112 48.8956C241.678 49.179 241.316 49.5607 241.057 50.0098C240.797 50.4588 240.647 50.9627 240.619 51.4805C240.613 51.7135 240.669 51.9438 240.781 52.148C241.005 52.135 241.222 52.0675 241.414 51.9512C241.848 51.6679 242.21 51.2862 242.469 50.8371C242.728 50.388 242.878 49.8841 242.907 49.3663Z" fill="#263238"/>
<path d="M241.545 19.4121L230.202 12.8534C229.476 11.4696 228.604 10.1672 227.602 8.96826C233.69 10.0292 238.505 13.7176 241.545 19.4121Z" fill="#32BAB0"/>
<path opacity="0.2" d="M241.545 19.4121L230.202 12.8534C229.476 11.4696 228.604 10.1672 227.602 8.96826C233.69 10.0292 238.505 13.7176 241.545 19.4121Z" fill="black"/>
<path d="M239.446 47.6456C240.023 44.5782 240.322 41.4649 240.338 38.3437C240.338 17.2438 225.526 8.69043 207.254 19.2423C188.982 29.7942 174.167 55.4466 174.167 76.5465C174.15 79.3314 174.45 82.1092 175.062 84.826L170.795 87.2913C170.264 84.5405 170.006 81.7439 170.024 78.9424C170.024 55.1958 186.698 26.3142 207.266 14.4428C227.833 2.5715 244.504 12.1936 244.504 35.944C244.498 39.0462 244.24 42.1428 243.733 45.2034L239.489 47.661" fill="#37474F"/>
<path d="M239.45 47.6455C240.024 44.5765 240.321 41.462 240.338 38.3398C240.338 24.4237 233.895 15.9629 224.261 14.8479C227.274 18.868 229.002 24.605 229.002 31.8235C228.984 34.9367 228.687 38.042 228.115 41.1022L239.45 47.6455Z" fill="#263238"/>
<path d="M232.911 11.4644C226.229 7.99212 217.197 8.70972 207.254 14.4506C186.683 26.3142 170.012 55.192 170.012 78.9462C169.994 81.7453 170.253 84.5393 170.784 87.2874L159.468 80.7518C158.925 78.0088 158.658 75.2184 158.67 72.4222C158.67 48.6718 175.34 19.794 195.912 7.91881C206.186 1.98507 215.484 1.42565 222.224 5.31074C223.952 6.2907 230.314 9.96746 232.911 11.4644Z" fill="#455A64"/>
<path d="M165.005 77.5186C164.689 77.5074 164.382 77.4143 164.113 77.2486C163.561 76.8882 163.101 76.4035 162.77 75.8333C162.439 75.2632 162.247 74.6234 162.207 73.9653C162.207 73.0857 162.663 72.5186 163.365 72.5186C163.68 72.5283 163.987 72.62 164.256 72.7848C164.809 73.1484 165.27 73.6365 165.601 74.2099C165.932 74.7834 166.124 75.4263 166.162 76.0873C166.158 76.9476 165.703 77.5186 165.005 77.5186Z" fill="#263238"/>
<path d="M234.593 9.1843C231.299 7.41728 227.609 6.51714 223.871 6.56852C218.188 6.56852 212.127 8.40497 205.85 12.0239C191.324 20.4075 178.651 37.0243 172.053 54.5439L160.718 47.9851C167.315 30.4655 180.009 13.8487 194.515 5.4651C200.792 1.84622 206.861 0.00205025 212.536 0.00205025C216.416 -0.0509963 220.241 0.92618 223.62 2.83389C225.414 3.891 232.193 7.79539 234.593 9.1843Z" fill="#32BAB0"/>
<path opacity="0.6" d="M234.593 9.1843C231.299 7.41728 227.609 6.51714 223.871 6.56852C218.188 6.56852 212.127 8.40497 205.85 12.0239C191.324 20.4075 178.651 37.0243 172.053 54.5439L160.718 47.9851C167.315 30.4655 180.009 13.8487 194.515 5.4651C200.792 1.84622 206.861 0.00205025 212.536 0.00205025C216.416 -0.0509963 220.241 0.92618 223.62 2.83389C225.414 3.891 232.193 7.79539 234.593 9.1843Z" fill="white"/>
<path d="M241.541 19.4082C237.907 12.6218 231.738 8.65957 223.871 8.65957C218.559 8.65957 212.845 10.3996 206.896 13.8371C192.659 22.0549 180.248 38.4054 173.867 55.5932L172.053 54.5438C178.651 37.0242 191.324 20.4074 205.85 12.0238C212.127 8.40493 218.196 6.56848 223.871 6.56848C232.151 6.56848 238.729 10.4806 242.776 17.2747L241.541 19.4082Z" fill="#32BAB0"/>
<path d="M25.2866 39.6989C23.4125 40.7791 13.9865 46.1013 6.53629 50.5235C0.346203 54.2163 0 63.1622 0 67.5197L34.6617 38.6141C30.4704 36.1953 27.1653 38.6141 25.2866 39.6989Z" fill="#263238"/>
<path d="M66.1061 108.81C66.1491 111.668 65.9545 114.524 65.5245 117.35C65.3907 118.157 65.2291 118.901 65.0629 119.584C63.932 123.775 61.8917 125.806 58.9651 127.496C51.2102 131.715 40.6441 128.562 26.1914 117.128C12.9942 106.682 7.72729 98.2855 7.72729 98.2855V102.223C10.3492 105.602 15.7453 111.797 24.7697 118.938C35.4557 127.39 44.3831 131.581 51.7965 131.581C54.6782 131.601 57.5179 130.889 60.0499 129.513L60.1007 129.485C63.8858 127.302 66.1431 124.514 67.334 119.981C67.514 119.275 67.6756 118.527 67.7956 117.728C68.2427 114.774 68.4449 111.788 68.4003 108.801L66.1061 108.81Z" fill="#37474F"/>
<path d="M44.4522 105.713C31.255 95.2713 25.9882 86.8748 25.9882 86.8748L7.69946 98.2856C7.69946 98.2856 12.9802 106.682 26.1636 117.128C40.6117 128.562 51.1778 131.715 58.9373 127.496C61.8639 125.806 63.9042 123.775 65.0351 119.584C65.2197 118.901 65.3813 118.158 65.4967 117.35C59.6251 116.034 52.6688 112.212 44.4522 105.713Z" fill="#263238"/>
<path d="M46.2433 124.228V126.716C46.2433 126.716 34.1262 122.33 19.4704 108.981C4.81451 95.6313 0 79.346 0 68.4014C0 57.4568 2.88963 52.4715 6.35626 51.9176L6.72093 54.1979C4.70834 54.5164 2.30801 58.44 2.30801 68.4014C2.30801 73.5206 3.66051 91.4492 21.026 107.273C33.0323 118.208 43.3721 123.018 46.2433 124.228Z" fill="#37474F"/>
<path d="M46.2433 126.716C43.2031 125.499 40.2603 124.051 37.4406 122.386C34.6109 120.742 31.8736 118.938 29.2148 117.022C26.556 115.106 24.0079 113.052 21.5199 110.92L19.6735 109.299C19.0596 108.755 18.4826 108.168 17.8871 107.61C16.6777 106.502 15.5791 105.265 14.4712 104.074C12.3132 101.609 10.3428 98.986 8.57658 96.2268C6.83744 93.4454 5.32319 90.5296 4.04825 87.5071C1.45577 81.4683 0.0800911 74.9773 0 68.406C0.0514604 71.6795 0.450681 74.9382 1.19093 78.1273C1.90392 81.3201 2.90667 84.4412 4.18674 87.4517C5.47619 90.4555 7.00115 93.3526 8.74737 96.116C10.5177 98.8619 12.4895 101.473 14.6466 103.926C15.7683 105.117 16.8346 106.354 18.0394 107.462C18.6303 108.025 19.2027 108.607 19.812 109.152L21.6584 110.781C24.1326 112.918 26.6668 114.991 29.321 116.902C31.9752 118.813 34.694 120.636 37.5098 122.293C40.3057 123.985 43.2252 125.463 46.2433 126.716Z" fill="black"/>
<path d="M38.5391 97.1639C21.1737 81.3402 19.8212 63.4069 19.8212 58.2877C19.8212 50.6621 23.3894 47.8463 25.1711 46.1245C25.5853 45.6724 26.1283 45.3582 26.7267 45.2244L26.3621 42.9441C25.1952 43.1786 24.1377 43.79 23.3524 44.6843C22.3307 45.8067 21.5318 47.1132 20.9983 48.5341L6.7209 54.198C4.70831 54.5165 2.30798 58.4401 2.30798 68.4014C2.30798 73.5206 3.66049 91.4493 21.026 107.273C33.0276 118.208 43.3721 123.018 46.2433 124.228L61.2777 115.55C62.8656 116.283 63.7565 116.607 63.7565 116.607V114.119C60.8853 112.895 50.5454 108.099 38.5391 97.1639Z" fill="#263238"/>
<path d="M6.72086 54.1978C7.18301 54.1368 7.65174 54.2428 8.04269 54.4967C8.43364 54.7505 8.72114 55.1356 8.85346 55.5826V52.6237C8.85346 52.6237 8.21184 51.7005 6.3562 51.9128L6.72086 54.1978Z" fill="#37474F"/>
<path d="M63.7566 114.119V116.607L46.2434 126.716V124.228L61.2778 115.549L63.7566 114.119Z" fill="black"/>
<path d="M14.8311 104.642L13.5063 103.478C13.5063 103.478 12.7354 105.325 12.1215 106.894C11.7845 107.771 11.8584 108.505 12.1584 108.828L12.2184 108.884L23.2553 118.739L24.5109 113.311L14.8311 104.642Z" fill="#263238"/>
<path d="M24.1788 118.504L24.7235 118.938C24.1418 119.538 23.431 118.892 23.2279 118.744C22.8586 118.481 22.734 117.691 23.1032 116.727C23.7126 115.143 24.4881 113.311 24.4881 113.311L44.9093 101.591C44.9756 101.551 45.0512 101.53 45.1283 101.53C45.2053 101.529 45.2812 101.549 45.3479 101.588C45.4147 101.626 45.47 101.682 45.5081 101.749C45.5462 101.816 45.5658 101.892 45.5648 101.969V103.072L25.8452 114.395L24.1788 118.504Z" fill="black"/>
<path d="M34.4863 91.8644C34.4548 91.8222 34.4156 91.7862 34.3709 91.7583C34.3007 91.7177 34.2211 91.6964 34.1401 91.6964C34.0591 91.6964 33.9795 91.7177 33.9093 91.7583L13.488 103.483L24.4834 113.315L45.4401 101.673L34.4863 91.8644Z" fill="#37474F"/>
<path d="M78.8602 51.0406L51.0995 34.9768C46.525 32.3411 39.0978 32.3411 34.5418 34.9768L12.2741 47.8371C9.96611 49.1572 8.84904 50.8836 8.85365 52.6146C8.85365 53.8887 8.85365 58.6662 8.85365 59.9449C8.85365 61.6667 9.99843 63.3838 12.2741 64.6994L40.0395 80.7632C44.6094 83.4035 52.0412 83.4035 56.5926 80.7632L78.8602 67.9075C81.0805 66.6243 82.2207 64.9579 82.2807 63.2915C82.3315 61.9667 82.2807 57.1014 82.2807 55.832C82.2899 54.1056 81.1498 52.3746 78.8602 51.0406Z" fill="#263238"/>
<path d="M8.85346 52.6284L8.90886 58.32V59.7463C8.8967 60.2151 8.9606 60.6828 9.0981 61.1311C9.40367 62.022 9.93674 62.8177 10.6445 63.4391C11.3537 64.0618 12.1365 64.595 12.9756 65.027L15.4451 66.4442L20.3797 69.2784L30.2164 75.0161L35.1325 77.8827L40.0347 80.7815L35.0771 77.9796L30.1379 75.1454L20.2643 69.4769L15.3482 66.6104L12.8879 65.1794C12.0418 64.7354 11.2541 64.1881 10.5429 63.5499C9.82148 62.9079 9.28044 62.0884 8.97348 61.1727C8.83279 60.7124 8.76885 60.232 8.78422 59.7509V58.3246L8.85346 52.6284Z" fill="black"/>
<path d="M48.3159 68.4013V82.7572C51.3117 82.7572 54.3167 82.0971 56.5924 80.7769L78.8601 67.9213C81.0804 66.638 82.2206 64.9716 82.2806 63.3053C82.3314 61.9805 82.2806 57.1152 82.2806 55.8458C82.2806 54.1148 81.1451 52.3838 78.8555 51.0636L73.0716 47.6985L48.3159 68.4013Z" fill="#37474F"/>
<path d="M12.2741 47.8508L34.5418 34.9906C39.1163 32.3549 46.5435 32.3549 51.0995 34.9906L78.8602 51.0405C83.4347 53.6809 83.4347 57.9645 78.8602 60.6003L56.5926 73.4559C52.0227 76.0963 44.5909 76.0963 40.0395 73.4559L12.2741 57.3922C7.69964 54.7703 7.69964 50.4912 12.2741 47.8508Z" fill="#455A64"/>
<path d="M48.3159 73.0637C45.6432 73.0637 43.0628 72.459 41.2303 71.402L13.4695 55.3382C12.0478 54.5212 11.2354 53.5287 11.2354 52.6286C11.2354 51.7285 12.0478 50.7407 13.4695 49.919L35.7187 37.0634C37.5651 36.0063 40.127 35.4016 42.7997 35.4016C45.4724 35.4016 48.0574 36.0063 49.8853 37.0634L77.6507 53.1271C79.0678 53.9442 79.8848 54.932 79.8848 55.8367C79.8848 56.7415 79.0678 57.7247 77.6507 58.5463L55.3784 71.402C53.5735 72.459 50.9885 73.0637 48.3159 73.0637Z" fill="#263238"/>
<path d="M36.7943 75.8515C36.6465 75.8513 36.5015 75.8115 36.3743 75.7361L15.099 63.4206C15.0039 63.3657 14.9204 63.2927 14.8535 63.2056C14.7866 63.1184 14.7375 63.019 14.709 62.9129C14.6805 62.8068 14.6731 62.6962 14.6874 62.5873C14.7016 62.4783 14.7372 62.3733 14.7921 62.2781C14.8469 62.183 14.92 62.0995 15.0071 62.0326C15.0942 61.9657 15.1937 61.9165 15.2997 61.888C15.4058 61.8595 15.5165 61.8522 15.6254 61.8665C15.7343 61.8807 15.8394 61.9163 15.9346 61.9712L37.2098 74.2867C37.3682 74.3796 37.4919 74.5218 37.5618 74.6916C37.6317 74.8615 37.644 75.0495 37.5969 75.227C37.5498 75.4046 37.4458 75.5617 37.3009 75.6745C37.1559 75.7873 36.978 75.8495 36.7943 75.8515Z" fill="#37474F"/>
<g opacity="0.3">
<path opacity="0.3" d="M27.8947 47.4679C27.0388 48.5967 26.5957 49.9848 26.6392 51.4007C26.6392 51.7654 27.2577 52.0239 27.867 51.9315C28.2963 51.8669 28.6056 51.6407 28.5917 51.3869C28.5522 50.1449 28.9346 48.9262 29.6765 47.9295C29.8611 47.671 29.7319 47.3525 29.3165 47.2047C29.0789 47.1096 28.8191 47.0838 28.5675 47.1304C28.3158 47.1769 28.0825 47.294 27.8947 47.4679Z" fill="white"/>
<path opacity="0.3" d="M48.999 43.2397C49.3549 43.3266 49.7302 43.2823 50.0561 43.115C50.1409 43.0699 50.2149 43.0069 50.2731 42.9304C50.4762 42.6396 50.2361 42.3118 49.7376 42.1918C43.469 40.7147 36.3511 41.541 31.5459 44.306L31.5089 44.329C31.1304 44.546 31.1443 44.8922 31.5089 45.1138C31.7241 45.2207 31.9611 45.2764 32.2013 45.2764C32.4416 45.2764 32.6786 45.2207 32.8937 45.1138C37.1543 42.6627 43.4644 41.9287 48.999 43.2397Z" fill="white"/>
<path opacity="0.3" d="M53.7998 44.278C53.7178 44.3077 53.6469 44.362 53.5968 44.4335C53.5467 44.5049 53.5198 44.59 53.5198 44.6773C53.5198 44.7646 53.5467 44.8497 53.5968 44.9212C53.6469 44.9926 53.7178 45.0469 53.7998 45.0766L53.846 45.1043C58.0927 47.5508 59.3529 51.2067 57.0772 54.4056C56.8695 54.6964 57.1095 55.0241 57.608 55.1441C57.9655 55.2309 58.3421 55.1867 58.6697 55.0195C58.7533 54.9744 58.8258 54.9114 58.8821 54.8349C61.4763 51.2113 60.0453 47.0799 55.2446 44.3057L55.1939 44.278C54.9785 44.1663 54.7394 44.108 54.4968 44.108C54.2542 44.108 54.0152 44.1663 53.7998 44.278Z" fill="white"/>
</g>
<path d="M28.9611 57.8215C27.7102 57.8215 26.3854 57.6877 25.3468 57.0783C25.1096 56.9651 24.9052 56.7934 24.7526 56.5794C24.6 56.3654 24.5042 56.1162 24.4744 55.8551C24.4513 55.3058 24.7236 54.8857 25.3514 54.4703C26.2281 53.9378 27.2634 53.7288 28.278 53.8794C28.1256 53.187 28.4995 52.6008 29.3904 52.1346C30.042 51.7967 30.7714 51.6374 31.5046 51.673C32.1697 51.6684 32.8259 51.8269 33.4156 52.1346C33.8994 52.3724 34.291 52.7633 34.5298 53.2466C34.7685 53.7299 34.8409 54.2786 34.7358 54.8073C34.6669 55.4148 34.5001 56.0071 34.2419 56.5614L33.9834 57.3738L32.6355 57.5169C31.6645 57.6647 30.6858 57.7572 29.7043 57.7938C29.4689 57.8169 29.215 57.8215 28.9611 57.8215ZM27.6271 54.318C26.9117 54.2979 26.2064 54.4907 25.6007 54.8719C24.996 55.255 24.9221 55.5551 24.936 55.8228C24.9628 56.0087 25.0361 56.1848 25.1491 56.3349C25.262 56.485 25.411 56.6041 25.5822 56.6814C26.7316 57.3507 28.3103 57.3922 29.6997 57.3461C30.6687 57.3083 31.6349 57.2174 32.594 57.0737L33.651 56.9629L33.8264 56.4136C34.0656 55.8951 34.2214 55.3421 34.288 54.7749C34.3814 54.3357 34.3248 53.8778 34.1273 53.4745C33.9299 53.0711 33.6029 52.7457 33.1987 52.55C32.6786 52.2786 32.1004 52.1376 31.5138 52.1392C30.8571 52.1119 30.2047 52.2567 29.6212 52.5593C28.578 53.1039 28.6426 53.6302 28.8457 54.0733L29.0211 54.4611L28.6011 54.3964C28.2789 54.3458 27.9533 54.3196 27.6271 54.318Z" fill="#BA68C8"/>
<path d="M39.901 65.401C39.7666 65.3789 39.6379 65.3303 39.5225 65.2579L39.3748 65.1702C39.2702 65.1252 39.1816 65.0496 39.1209 64.9532C39.0978 64.8932 39.1209 64.8332 39.2224 64.7824L40.6534 63.9562L34.7957 60.568L33.4894 61.5974C33.3518 61.6536 33.1976 61.6536 33.0601 61.5974C32.8748 61.5411 32.6967 61.4636 32.5292 61.3666C32.4 61.2927 32.3907 61.2004 32.5061 61.0896L34.3802 59.4279C34.4839 59.3684 34.5985 59.3307 34.7172 59.3171C34.8192 59.2951 34.9255 59.3047 35.0219 59.3448L41.8443 63.2822L43.0307 62.5991C43.121 62.5455 43.2268 62.5244 43.3307 62.5391C43.4635 62.5619 43.5905 62.6105 43.7046 62.6821L43.8569 62.7699C43.9596 62.8161 44.0463 62.8916 44.1062 62.9868C44.1293 63.0468 44.1062 63.1068 44.0047 63.1576L40.1964 65.3502C40.1064 65.3995 40.0024 65.4174 39.901 65.401Z" fill="#FAFAFA"/>
<path d="M46.0728 61.9297C45.7254 62.0683 45.3652 62.1719 44.9973 62.239C44.7689 62.3022 44.5263 62.2909 44.3049 62.2067C44.1872 62.1287 44.1018 62.0106 44.0648 61.8743C44.0094 61.7174 44.0233 61.6158 44.0971 61.5697C44.2167 61.5263 44.3405 61.4953 44.4664 61.4773C44.7347 61.4305 44.9998 61.3673 45.2604 61.2881C45.5135 61.2105 45.7567 61.1036 45.9851 60.9696C46.1445 60.8978 46.2856 60.7906 46.3975 60.6563C46.5095 60.5219 46.5894 60.3639 46.6313 60.1941C46.6821 59.8941 46.4513 59.5986 45.9389 59.3032C45.5016 59.0324 44.9944 58.896 44.4803 58.9108C43.9641 58.9457 43.4639 59.104 43.0216 59.3725L42.56 59.6309C42.4697 59.6845 42.3639 59.7056 42.26 59.691C42.1252 59.6676 41.9964 59.6174 41.8815 59.5432L41.7337 59.4602C41.5906 59.3771 41.5076 59.3032 41.4891 59.2432C41.4706 59.1832 41.4891 59.1278 41.5953 59.077L41.9738 58.8555C42.2201 58.7442 42.4159 58.545 42.5231 58.2969C42.5541 58.2049 42.5631 58.1068 42.5495 58.0107C42.5359 57.9145 42.5 57.8228 42.4446 57.743C42.3275 57.5648 42.1692 57.4176 41.983 57.3137C41.6737 57.1401 41.3266 57.0451 40.9721 57.0367C40.5502 57.0322 40.1356 57.1474 39.7766 57.3691C39.4592 57.5314 39.1996 57.7877 39.0334 58.103C39.0007 58.1777 38.9537 58.2451 38.8949 58.3015C38.7227 58.3491 38.5408 58.3491 38.3687 58.3015C38.1655 58.2872 37.9668 58.2356 37.7824 58.1492C37.5916 58.0384 37.6332 57.8307 37.9071 57.526C38.2085 57.1955 38.5607 56.9151 38.9503 56.6952C39.5961 56.3168 40.3257 56.1043 41.0737 56.0766C41.7893 56.0457 42.4989 56.2203 43.1185 56.5798C43.284 56.6532 43.4326 56.7599 43.5549 56.8934C43.6772 57.0268 43.7707 57.184 43.8294 57.3552C43.8604 57.5011 43.8579 57.6522 43.8219 57.7969C43.7859 57.9417 43.7174 58.0764 43.6217 58.1908L43.6632 58.2138C44.2277 58.0495 44.8187 57.9962 45.4035 58.0569C46.0328 58.1159 46.642 58.3095 47.1899 58.6247C47.6027 58.8253 47.9442 59.1474 48.1685 59.5479C48.2412 59.7009 48.2746 59.8697 48.2658 60.039C48.2569 60.2082 48.206 60.3726 48.1177 60.5172C47.8791 60.8867 47.5481 61.1874 47.1576 61.3897C46.8102 61.5969 46.4476 61.7775 46.0728 61.9297Z" fill="#FAFAFA"/>
<path d="M51.2609 58.9201C50.9462 59.0361 50.6195 59.1166 50.2869 59.1601C50.0874 59.2024 49.8797 59.1831 49.6914 59.1047C49.5719 59.0266 49.4862 58.9063 49.4514 58.7678C49.4006 58.6062 49.4099 58.5047 49.4883 58.4585C49.5903 58.4175 49.6975 58.3911 49.8068 58.38C50.0977 58.3292 50.3608 58.2646 50.6008 58.2C50.8597 58.124 51.1079 58.0154 51.3394 57.8769C51.4983 57.8126 51.6353 57.704 51.7343 57.5641C51.8334 57.4242 51.8901 57.2588 51.8979 57.0875C51.8979 56.7829 51.6394 56.4921 51.1594 56.2105C50.6984 55.9386 50.1712 55.7996 49.6361 55.8089C49.0693 55.8338 48.5182 56.0022 48.0343 56.2982L47.1111 56.829C47.0006 56.8993 46.8728 56.9376 46.7418 56.9398C46.6122 56.9273 46.4873 56.8846 46.3771 56.8152L43.2429 54.7657C43.1182 54.6872 43.0582 54.6133 43.0582 54.5441C43.0582 54.4749 43.1229 54.401 43.2521 54.3225L46.1602 52.6469C46.2492 52.5944 46.3532 52.5733 46.4556 52.5869C46.5901 52.609 46.7187 52.6576 46.8341 52.73L47.0188 52.8362C47.148 52.9147 47.2219 52.9793 47.2403 53.0393C47.2588 53.0993 47.2404 53.1547 47.1342 53.2055L44.9508 54.4749L46.9634 55.7951L47.3742 55.5596C48.0967 55.1437 48.9056 54.9005 49.7376 54.8488C50.6573 54.8038 51.5687 55.0405 52.3503 55.5273C53.2366 56.0351 53.6335 56.5475 53.5412 57.0506C53.4564 57.3498 53.3071 57.6268 53.1037 57.8621C52.9004 58.0973 52.6479 58.2852 52.3641 58.4123C52.0141 58.6176 51.6445 58.7877 51.2609 58.9201Z" fill="#FAFAFA"/>
<path d="M48.9805 68.9783L48.265 68.5675L47.0418 69.2738C46.9728 69.296 46.8985 69.296 46.8295 69.2738C46.74 69.2533 46.6532 69.2223 46.571 69.1814C46.5534 69.1702 46.5378 69.1562 46.5248 69.1399L45.4862 67.0304C45.4862 66.9796 45.5139 66.9196 45.6293 66.8503L45.777 66.7673C45.8224 66.7306 45.8771 66.7072 45.935 66.6999C45.9929 66.6925 46.0517 66.7015 46.1048 66.7257L48.3528 68.0228L48.602 67.8797C48.6426 67.8566 48.6895 67.8469 48.7359 67.852C48.7966 67.862 48.8546 67.8839 48.9067 67.9166L48.9759 67.9582C49.0405 67.9951 49.0775 68.0274 49.0867 68.0551C49.0867 68.0828 49.0867 68.1105 49.0405 68.1336L48.7913 68.2767L49.5021 68.6875C49.5898 68.7383 49.5668 68.8029 49.4375 68.8768L49.3083 68.9552C49.2607 68.988 49.2052 69.0075 49.1476 69.0116C49.0899 69.0156 49.0322 69.0041 48.9805 68.9783ZM47.8219 68.3136L46.9356 67.8059C46.7257 67.684 46.5251 67.5467 46.3356 67.395H46.3032L47.0003 68.7798L47.8219 68.3136Z" fill="#E0E0E0"/>
<path d="M50.1253 68.3415C50.0444 68.3193 49.9669 68.2867 49.8945 68.2445C49.8545 68.223 49.8314 68.2045 49.8252 68.1891L49.3128 66.5135C49.2803 66.3917 49.2305 66.2751 49.1651 66.1673C49.1024 66.0862 49.0239 66.0187 48.9343 65.9688C48.7835 65.8808 48.6101 65.8391 48.4358 65.8488C48.2554 65.855 48.0794 65.9058 47.9234 65.9965C47.8286 66.0465 47.7453 66.1157 47.6788 66.1996C47.628 66.2745 47.5862 66.3551 47.5541 66.4397C47.5541 66.495 47.5311 66.5274 47.508 66.5366C47.4284 66.5617 47.3429 66.5617 47.2633 66.5366C47.1755 66.5306 47.0895 66.5087 47.0094 66.472C46.9751 66.4525 46.9496 66.4205 46.9384 66.3826C46.9272 66.3447 46.9311 66.3039 46.9494 66.2689C46.9972 66.1544 47.0697 66.0519 47.1618 65.9688C47.2716 65.8633 47.3941 65.7719 47.5264 65.6965C47.8273 65.5202 48.1661 65.4189 48.5143 65.401C48.8363 65.3845 49.1565 65.4597 49.4375 65.618C49.5441 65.6761 49.6407 65.7509 49.7237 65.8396C49.8035 65.928 49.8648 66.0316 49.9037 66.1442C49.9677 66.314 50.0186 66.4884 50.056 66.6658L50.4253 67.7552L51.6762 67.0305C51.7169 67.0077 51.7637 66.998 51.8101 67.0028C51.8705 67.0136 51.9284 67.0356 51.9809 67.0674L52.0455 67.1044C52.0945 67.124 52.1352 67.1599 52.1609 67.2059C52.1609 67.2336 52.1609 67.2567 52.1148 67.2844L50.296 68.3322C50.2416 68.3536 50.1817 68.3568 50.1253 68.3415Z" fill="#E0E0E0"/>
<path d="M50.4348 65.7148L50.0562 65.4932C49.9685 65.4424 50.0009 65.3732 50.1532 65.2901L50.2686 65.2209C50.4224 65.1316 50.5425 65.1132 50.6286 65.1655L51.0071 65.3824C51.0949 65.4332 51.0579 65.5024 50.9102 65.5901L50.7948 65.6548C50.6425 65.7471 50.5225 65.7656 50.4348 65.7148ZM52.5351 66.9242L52.1565 66.7072C52.0704 66.6549 52.1027 66.5857 52.2535 66.4995L52.3689 66.4349C52.5212 66.3472 52.6412 66.3287 52.7243 66.3749L53.1074 66.5964C53.1905 66.6472 53.1582 66.7165 53.0059 66.8042L52.8905 66.8688C52.7382 66.9565 52.6228 66.975 52.5351 66.9242Z" fill="#E0E0E0"/>
<path d="M54.0399 66.1857C53.8815 66.2481 53.7177 66.296 53.5506 66.3288C53.4487 66.3626 53.3386 66.3626 53.2367 66.3288C53.1823 66.2955 53.1426 66.2427 53.1259 66.1811C53.1259 66.1072 53.1259 66.0611 53.1259 66.0426C53.1788 66.0201 53.2349 66.0061 53.2921 66.0011C53.4214 65.9734 53.5414 65.9457 53.6522 65.9133C53.7659 65.8766 53.8756 65.8286 53.9799 65.7703C54.0526 65.7368 54.1168 65.6876 54.1679 65.626C54.2191 65.5645 54.2558 65.4924 54.2753 65.4148C54.2984 65.281 54.1922 65.1471 53.9614 65.0132C53.7616 64.891 53.5309 64.8286 53.2967 64.8332C53.0631 64.8513 52.837 64.924 52.6366 65.0455L52.4335 65.1609C52.3936 65.1857 52.3462 65.1955 52.2997 65.1886C52.2376 65.1787 52.178 65.1567 52.1243 65.124L52.0596 65.0825C51.9919 65.0455 51.955 65.0132 51.9489 64.9855C51.9489 64.9578 51.9489 64.9347 51.995 64.9117L52.1658 64.8101C52.2221 64.7864 52.2731 64.7517 52.3159 64.7082C52.3587 64.6646 52.3924 64.6129 52.4151 64.5562C52.4294 64.5143 52.434 64.4696 52.4284 64.4256C52.4228 64.3815 52.4072 64.3394 52.3828 64.3024C52.3252 64.2229 52.2512 64.1568 52.1658 64.1085C52.0241 64.0308 51.8658 63.9881 51.7042 63.9839C51.5122 63.984 51.3238 64.0367 51.1595 64.1362C51.0755 64.1807 50.9992 64.2384 50.9333 64.307C50.8913 64.3571 50.8542 64.4112 50.8226 64.4685C50.8068 64.503 50.7849 64.5342 50.7579 64.5609C50.6806 64.5795 50.5999 64.5795 50.5225 64.5609C50.4303 64.5513 50.34 64.528 50.2548 64.4916C50.1671 64.4408 50.1855 64.3485 50.3102 64.21C50.442 64.0592 50.598 63.9313 50.7718 63.8315C51.0655 63.6603 51.3968 63.5636 51.7365 63.5499C52.0593 63.5377 52.3791 63.6161 52.6597 63.7761C52.7349 63.8104 52.8023 63.8596 52.8578 63.9207C52.9133 63.9818 52.9559 64.0535 52.9828 64.1316C52.9974 64.1978 52.9962 64.2666 52.9794 64.3324C52.9626 64.3981 52.9305 64.459 52.8859 64.5101H52.909C53.1712 64.427 53.4478 64.3987 53.7214 64.427C54.0083 64.4507 54.286 64.5391 54.5338 64.6855C54.7275 64.7744 54.8888 64.9211 54.9954 65.1055C55.0283 65.1748 55.0434 65.2512 55.0394 65.3277C55.0354 65.4043 55.0123 65.4786 54.9724 65.5441C54.864 65.713 54.7126 65.85 54.5338 65.941C54.3754 66.0346 54.2103 66.1163 54.0399 66.1857Z" fill="#E0E0E0"/>
<path d="M56.3943 64.8193C56.2453 64.8736 56.0903 64.9092 55.9327 64.9255C55.8418 64.9477 55.7462 64.9396 55.6603 64.9024C55.6073 64.8656 55.5682 64.8119 55.5495 64.7501C55.5264 64.6762 55.5495 64.6301 55.5495 64.6116C55.5943 64.5899 55.6429 64.5773 55.6926 64.5747C55.8265 64.5516 55.9465 64.5193 56.0527 64.4916C56.1709 64.4572 56.2842 64.4075 56.3896 64.3439C56.4617 64.3154 56.5241 64.2668 56.5691 64.2037C56.6142 64.1406 56.64 64.0659 56.6435 63.9884C56.6435 63.8499 56.5235 63.7161 56.3066 63.5915C56.0976 63.4663 55.8577 63.4024 55.6141 63.4068C55.3576 63.4172 55.108 63.4935 54.8894 63.6284L54.474 63.8684C54.424 63.8996 54.3667 63.9171 54.3078 63.9192C54.2484 63.9164 54.1909 63.8972 54.1416 63.8638L52.7153 62.9406C52.6599 62.9037 52.6322 62.8714 52.6322 62.839C52.6322 62.8067 52.6645 62.7744 52.7199 62.7421L54.0401 61.9805C54.0601 61.9668 54.0827 61.9572 54.1065 61.9525C54.1303 61.9477 54.1548 61.9478 54.1786 61.9528C54.239 61.9636 54.2969 61.9855 54.3493 62.0174L54.4324 62.0636C54.4925 62.1005 54.5248 62.1282 54.534 62.1559C54.5432 62.1836 54.534 62.2113 54.4832 62.2343L53.4862 62.8113L54.4094 63.4114L54.5986 63.3006C54.9254 63.1107 55.2922 63.0001 55.6695 62.9775C56.0869 62.9609 56.4998 63.0685 56.8559 63.2868C57.259 63.5176 57.439 63.7484 57.3959 63.9792C57.3577 64.1154 57.2899 64.2414 57.1974 64.3484C57.1048 64.4553 56.9898 64.5404 56.8605 64.5977C56.7117 64.6848 56.5557 64.759 56.3943 64.8193Z" fill="#E0E0E0"/>
<path d="M58.2822 63.6054L57.9036 63.3885C57.8144 63.3362 57.8467 63.2669 58.0006 63.1807L58.116 63.1161C58.2698 63.0269 58.3899 63.0084 58.476 63.0607L58.8545 63.2777C58.9422 63.3285 58.9053 63.3977 58.753 63.4854L58.6422 63.55C58.4914 63.6393 58.3714 63.6577 58.2822 63.6054Z" fill="#E0E0E0"/>
<path d="M59.2604 63.0791C59.1783 63.0584 59.0992 63.0274 59.025 62.9868C58.9834 62.9637 58.965 62.9453 58.9604 62.9314L58.4434 61.2512C58.415 61.1294 58.365 61.0137 58.2956 60.9096C58.2364 60.8253 58.1571 60.757 58.0648 60.7111C57.9152 60.6241 57.744 60.5809 57.5709 60.5865C57.3904 60.5958 57.2148 60.648 57.0586 60.7388C56.9616 60.7875 56.8766 60.8568 56.8093 60.9419C56.761 61.0175 56.7208 61.098 56.6893 61.182C56.6858 61.2187 56.6694 61.253 56.6431 61.2789C56.563 61.3009 56.4785 61.3009 56.3985 61.2789C56.3109 61.2745 56.2248 61.2542 56.1446 61.2189C56.1102 61.1994 56.0847 61.1674 56.0735 61.1295C56.0623 61.0916 56.0663 61.0508 56.0846 61.0158C56.131 60.9017 56.2019 60.7993 56.2923 60.7157C56.4025 60.6094 56.5249 60.5164 56.6569 60.4388C56.9589 60.2619 57.2997 60.162 57.6494 60.148C57.971 60.1303 58.2911 60.2039 58.5726 60.3603C58.6795 60.4199 58.7761 60.4963 58.8588 60.5865C58.937 60.6761 58.998 60.7794 59.0388 60.8911C59.0986 61.0607 59.1495 61.2333 59.1912 61.4081L59.5604 62.4975L60.8114 61.7774C60.8505 61.7506 60.8982 61.7391 60.9452 61.7451C61.0043 61.7556 61.0608 61.7776 61.1114 61.8097L61.1807 61.8513C61.2271 61.8727 61.2669 61.9062 61.2961 61.9482C61.2961 61.9759 61.2961 62.0036 61.2453 62.0267L59.4266 63.0791C59.385 63.1114 59.325 63.1068 59.2604 63.0791Z" fill="#E0E0E0"/>
<path d="M86.6889 98.7008C86.6889 104.665 85.8442 109.013 84.2609 112.175C81.3112 118.056 76.1182 120.115 71.2852 122.963C64.989 126.655 61.3331 128.788 60.3637 129.342C65.8106 126.111 68.4141 121.467 68.4141 108.81C68.4141 93.9833 65.289 88.3425 62.7871 84.8066C60.4791 81.5754 57.1648 79.7613 53.412 79.7613L81.5374 63.5037C80.6142 64.4269 79.6033 66.2087 80.9327 69.6476C82.2621 73.0865 86.6889 79.6828 86.6889 98.7008Z" fill="#263238"/>
<path d="M62.7917 84.7975C61.1416 82.3436 58.6086 80.6207 55.72 79.9876C54.9609 79.8296 54.1874 79.7507 53.412 79.7522V82.0602C56.3939 82.0602 59.0528 83.505 60.9038 86.1269C63.2764 89.4966 66.106 94.7174 66.106 108.81H68.4141C68.4141 94.7266 65.7229 88.9473 62.7917 84.7975Z" fill="#37474F"/>
</svg>
