<svg width="299" height="368" viewBox="0 0 299 368" fill="none" xmlns="http://www.w3.org/2000/svg">
<path d="M81.4428 268.407L72.7228 273.867C61.5049 267.986 48.4523 266.655 36.278 270.149C24.1037 273.643 13.7439 281.694 7.35179 292.628C0.95971 303.563 -0.973009 316.54 1.9553 328.862C4.88362 341.185 12.4477 351.905 23.0756 358.795C33.7034 365.685 46.5775 368.215 59.0222 365.858C71.4668 363.502 82.5249 356.441 89.898 346.142C97.2712 335.844 100.392 323.1 98.6128 310.56C96.8333 298.02 90.29 286.648 80.3428 278.807L81.4428 268.407Z" fill="#FAFAFA"/>
<path d="M81.4427 268.407C81.3727 269.027 81.0727 272.057 80.4427 278.807V278.727C83.0734 280.788 85.486 283.114 87.6427 285.667C88.9864 287.252 90.2257 288.922 91.3527 290.667C91.9727 291.577 92.4727 292.597 93.0527 293.607C93.6721 294.626 94.2233 295.685 94.7027 296.777C95.1927 297.897 95.7027 299.047 96.2027 300.217L97.4027 303.957L97.7127 304.957C97.7827 305.287 97.8527 305.617 97.9327 305.957C98.0727 306.627 98.2127 307.297 98.3627 307.957C98.5127 308.617 98.6827 309.317 98.7727 310.027L99.0127 312.157C99.7413 318.705 99.1627 325.332 97.3105 331.654C95.4582 337.976 92.3693 343.868 88.2227 348.987L87.3827 350.067L86.3827 351.067L84.4727 353.067L83.9927 353.567L83.4627 354.027L82.4027 354.947L80.2527 356.797L77.9027 358.407C77.1309 358.982 76.3299 359.516 75.5027 360.007L72.9627 361.427L71.6827 362.147C71.2427 362.357 70.7927 362.537 70.3427 362.737L67.6227 363.917C67.17 364.126 66.7019 364.3 66.2227 364.437L64.8027 364.887C63.8027 365.177 62.9027 365.527 61.9227 365.757L58.9227 366.387C58.4327 366.497 57.9227 366.607 57.4327 366.697L55.9127 366.867L52.8527 367.207C51.8527 367.207 50.7927 367.207 49.7527 367.267H48.1927C47.6727 367.267 47.1927 367.197 46.6427 367.167L43.5127 366.907C42.5127 366.787 41.4427 366.547 40.3927 366.377C38.3065 365.99 36.246 365.476 34.2227 364.837C33.2227 364.517 32.2227 364.087 31.2227 363.707L29.7127 363.127C29.2127 362.937 28.7127 362.657 28.2627 362.427L25.3627 360.977C24.3627 360.437 23.5127 359.827 22.5827 359.257L21.2027 358.377C20.7527 358.077 20.3327 357.717 19.9027 357.377L17.3427 355.407C16.5327 354.677 15.7627 353.917 14.9827 353.177L13.8127 352.067C13.4327 351.697 13.1027 351.267 12.7427 350.867L10.6527 348.437C9.98271 347.607 9.4227 346.707 8.8027 345.847C7.58692 344.128 6.491 342.327 5.5227 340.457C5.01701 339.544 4.5727 338.599 4.19272 337.627C3.78272 336.677 3.35272 335.727 2.97272 334.767L2.04272 331.827L1.57272 330.367C1.44272 329.877 1.36272 329.367 1.25272 328.877L0.622711 325.877C0.432711 324.877 0.372715 323.877 0.252715 322.877L0.082702 321.387L0.00271539 320.637V319.897C0.00271539 318.897 0.00271539 317.897 0.00271539 316.897C-0.012683 315.915 0.037422 314.933 0.152709 313.957L0.3927 311.047C0.5627 310.097 0.732719 309.147 0.912719 308.207C1.04623 307.261 1.24674 306.325 1.51273 305.407C1.96299 303.579 2.53082 301.782 3.21271 300.027L4.21271 297.437C4.60271 296.607 5.03271 295.797 5.43271 294.977C8.58139 288.759 13.012 283.278 18.4327 278.897C20.9444 276.91 23.6207 275.14 26.4327 273.607C27.8327 272.937 29.1827 272.207 30.5827 271.677C31.2827 271.407 31.9627 271.087 32.6627 270.857L34.7427 270.157C44.1076 267.245 54.1245 267.169 63.5327 269.937C66.7153 270.904 69.8017 272.162 72.7527 273.697H72.6627L81.4427 268.407L72.7727 273.947H72.7227C69.7725 272.442 66.6894 271.214 63.5127 270.277C54.1509 267.573 44.1996 267.687 34.9027 270.607L32.8427 271.307C32.1527 271.537 31.4727 271.857 30.7827 272.127C29.3927 272.657 28.0627 273.387 26.6727 274.057C23.8892 275.584 21.2398 277.344 18.7527 279.317C13.3684 283.674 8.97417 289.129 5.8627 295.317C5.4627 296.127 5.04271 296.937 4.65271 297.757C4.26271 298.577 3.99271 299.467 3.65271 300.327C2.97936 302.065 2.4215 303.846 1.98273 305.657C1.70794 306.558 1.49411 307.477 1.34271 308.407C1.17271 309.337 1.01271 310.277 0.842712 311.227C0.672712 312.177 0.682721 313.137 0.602722 314.107C0.486034 315.069 0.43923 316.038 0.462707 317.007C0.462707 318.007 0.462707 319.007 0.462707 319.947V320.687L0.542724 321.427L0.702697 322.897C0.832697 323.897 0.882723 324.897 1.07272 325.897C1.26272 326.897 1.4927 327.897 1.7027 328.837C1.8127 329.327 1.9027 329.837 2.0227 330.317L2.49271 331.767C2.79271 332.767 3.10272 333.697 3.41272 334.677C3.72272 335.657 4.21271 336.557 4.62271 337.497C4.99323 338.462 5.43443 339.397 5.94272 340.297C6.89756 342.15 7.98017 343.934 9.18271 345.637C9.80271 346.477 10.3527 347.377 11.0227 348.197L13.0927 350.597C13.4427 350.997 13.7727 351.417 14.1427 351.787L15.3027 352.887C16.0827 353.617 16.8427 354.367 17.6427 355.087L20.1827 357.087C20.6127 357.407 21.0227 357.757 21.4727 358.087L22.8427 358.947C23.7627 359.517 24.6527 360.117 25.5827 360.647L28.4527 362.087C28.9208 362.341 29.4014 362.571 29.8927 362.777L31.3827 363.357C32.3827 363.727 33.3827 364.157 34.3827 364.477C36.3871 365.106 38.4274 365.613 40.4927 365.997C41.4927 366.167 42.5427 366.407 43.5727 366.517L46.6727 366.777C47.1827 366.777 47.6727 366.887 48.2127 366.877H49.7527C50.7527 366.877 51.8027 366.877 52.8227 366.827L55.8227 366.497L57.3327 366.327L58.8127 366.027L61.7427 365.407C62.7427 365.177 63.6527 364.817 64.5927 364.537L66.0127 364.087C66.4876 363.96 66.9495 363.79 67.3927 363.577L70.0827 362.417C70.5227 362.227 70.9827 362.047 71.4127 361.827L72.6827 361.127L75.2027 359.727C76.0427 359.277 76.7827 358.657 77.5727 358.137L79.9427 356.407L82.0627 354.577L83.1227 353.667L83.6427 353.217L84.1227 352.717L86.0127 350.717L86.9527 349.717L87.7927 348.647C91.9098 343.58 94.9822 337.747 96.8324 331.486C98.6827 325.224 99.2742 318.658 98.5727 312.167C98.4927 311.447 98.4127 310.737 98.3427 310.037C98.2727 309.337 98.0627 308.667 97.9327 307.987L97.5127 305.987L97.3027 304.987L97.0027 303.987C96.5927 302.717 96.2027 301.477 95.8127 300.267L94.3427 296.907C93.8712 295.82 93.3301 294.764 92.7227 293.747C92.1427 292.747 91.6527 291.747 91.0427 290.817C89.9301 289.074 88.7077 287.404 87.3827 285.817C85.2475 283.25 82.8588 280.905 80.2527 278.817V278.767C81.0127 272.067 81.3427 269.037 81.4427 268.407Z" fill="#263238"/>
<path d="M77.4727 327.907L78.6827 337.427L93.1927 325.047L101.143 326.967C101.143 326.967 92.9527 344.157 86.4827 350.967C80.0127 357.777 76.4827 358.747 74.0827 358.857C70.7327 359.007 69.1927 354.917 69.1927 354.917L67.7327 331.247L77.4727 327.907Z" fill="#B78876"/>
<path d="M78.6227 337.167C78.1364 337.887 77.7966 338.696 77.6227 339.547C77.3344 340.368 77.2187 341.239 77.2827 342.107C77.5554 341.298 77.7792 340.473 77.9527 339.637C78.2279 338.829 78.4517 338.004 78.6227 337.167Z" fill="#995037"/>
<path d="M94.6027 300.917H105.533C105.944 300.939 106.346 301.052 106.708 301.249C107.071 301.446 107.384 301.721 107.627 302.054C107.869 302.388 108.034 302.771 108.11 303.176C108.185 303.582 108.169 303.999 108.063 304.397L97.0627 325.807C96.8545 326.214 96.5379 326.555 96.1479 326.793C95.7579 327.032 95.3097 327.158 94.8527 327.157H81.5227C81.2115 327.121 80.9141 327.008 80.6566 326.83C80.3992 326.651 80.1896 326.412 80.0463 326.133C79.903 325.855 79.8305 325.545 79.8351 325.232C79.8397 324.919 79.9213 324.611 80.0727 324.337L90.6827 303.337C91.0431 302.606 91.6019 301.992 92.2951 301.564C92.9883 301.136 93.788 300.912 94.6027 300.917Z" fill="#455A64"/>
<path d="M95.3427 302.207H106.273C106.586 302.207 106.893 302.288 107.166 302.441C107.439 302.594 107.669 302.814 107.832 303.081C107.996 303.348 108.088 303.652 108.1 303.965C108.113 304.277 108.045 304.588 107.903 304.867L97.1727 325.807C96.9628 326.215 96.6444 326.556 96.2527 326.795C95.861 327.033 95.4111 327.158 94.9527 327.157H81.7827C81.5962 327.163 81.4113 327.12 81.2462 327.033C81.0811 326.946 80.9414 326.817 80.8407 326.66C80.74 326.503 80.6817 326.323 80.6715 326.136C80.6614 325.95 80.6997 325.764 80.7827 325.597L91.3827 304.597C91.7531 303.868 92.3205 303.258 93.0206 302.835C93.7206 302.413 94.5251 302.195 95.3427 302.207Z" fill="#263238"/>
<path d="M96.2627 310.977L102.913 313.627L104.343 318.987L101.143 326.987L89.3427 328.677L92.7927 325.157L92.3427 322.097C92.3427 322.097 89.0627 321.097 88.9827 320.567C88.9027 320.037 89.3927 318.387 89.8927 318.297C91.2365 318.589 92.5542 318.991 93.8327 319.497C93.8327 319.497 89.7627 316.277 89.8827 315.757C90.0027 315.237 90.4327 313.917 91.2427 313.757C92.0527 313.597 98.6227 316.697 98.6227 316.697L99.6927 319.137L100.623 315.247C100.623 315.247 94.8227 313.627 96.2627 310.977Z" fill="#B78876"/>
<path d="M95.4327 323.537C95.4327 323.537 95.5927 323.307 95.6527 322.877C95.7248 322.309 95.6561 321.732 95.4527 321.197C95.2611 320.659 94.938 320.178 94.5127 319.797C94.1827 319.507 93.9327 319.407 93.9127 319.437C94.4107 319.999 94.8218 320.633 95.1327 321.317C95.3454 322.037 95.4466 322.786 95.4327 323.537Z" fill="#995037"/>
<path d="M98.5927 322.407C98.4682 321.833 98.378 321.252 98.3227 320.667C98.2967 320.012 98.1858 319.363 97.9927 318.737C97.857 318.367 97.6498 318.027 97.3827 317.737C97.0716 317.433 96.7003 317.198 96.2927 317.047C94.7027 316.477 93.2927 316.047 92.2227 315.667C91.6667 315.453 91.0904 315.295 90.5027 315.197C91.0267 315.48 91.5757 315.715 92.1427 315.897C93.1427 316.297 94.6027 316.807 96.1427 317.367C96.5139 317.496 96.8544 317.7 97.1427 317.967C97.3872 318.229 97.5745 318.539 97.6927 318.877C97.8938 319.477 98.0246 320.097 98.0827 320.727C98.105 321.322 98.2807 321.9 98.5927 322.407Z" fill="#995037"/>
<path d="M100.113 321.177C100.213 321.177 100.193 320.577 100.113 319.867C100.09 319.423 99.9592 318.99 99.7327 318.607C99.6433 319.486 99.7882 320.373 100.153 321.177H100.113Z" fill="#995037"/>
<path d="M98.9027 307.637C99.6704 307.637 100.293 307.015 100.293 306.247C100.293 305.479 99.6704 304.857 98.9027 304.857C98.135 304.857 97.5127 305.479 97.5127 306.247C97.5127 307.015 98.135 307.637 98.9027 307.637Z" fill="#FAFAFA"/>
<path d="M59.4727 249.897C63.1527 259.897 67.2327 270.507 75.8027 276.897C74.683 277.166 73.5027 276.998 72.5027 276.427C74.5142 279.358 76.1062 282.555 77.2327 285.927C78.2327 289.347 78.1027 293.217 76.1827 296.197C75.9527 295.817 75.7227 295.437 75.5027 295.057C76.4909 298.738 76.2757 302.639 74.8885 306.188C73.5013 309.738 71.0149 312.751 67.7927 314.787C64.9827 316.487 61.2227 317.307 58.4627 315.517C56.3627 314.157 55.3727 311.657 54.5127 309.317L37.6527 263.717C36.0827 259.487 34.4927 254.997 35.2727 250.547C35.7264 248.017 36.9198 245.679 38.7021 243.827C40.4844 241.975 42.7757 240.693 45.2863 240.143C47.797 239.593 50.4143 239.799 52.8076 240.736C55.2009 241.673 57.2628 243.299 58.7327 245.407" fill="#263238"/>
<path d="M69.2827 305.907C69.2827 305.907 69.3927 305.817 69.5627 305.627C69.8172 305.345 70.0542 305.048 70.2727 304.737C71.0587 303.579 71.6373 302.293 71.9827 300.937C72.4784 298.926 72.5904 296.839 72.3127 294.787C71.947 292.279 71.2299 289.835 70.1827 287.527C69.1127 285.067 67.9127 282.807 66.8827 280.737C65.9533 278.911 65.1253 277.034 64.4027 275.117C63.9269 273.814 63.5525 272.477 63.2827 271.117C63.1027 270.117 63.0427 269.607 63.0127 269.617C63.0016 269.747 63.0016 269.877 63.0127 270.007C63.0127 270.267 63.0727 270.647 63.1427 271.137C63.3628 272.496 63.6974 273.834 64.1427 275.137C64.8392 277.074 65.6506 278.967 66.5727 280.807C67.5727 282.897 68.7827 285.147 69.8427 287.597C70.8743 289.88 71.5941 292.292 71.9827 294.767C72.2626 296.79 72.1711 298.847 71.7127 300.837C71.3916 302.177 70.851 303.454 70.1127 304.617C69.6427 305.487 69.2527 305.887 69.2827 305.907Z" fill="#455A64"/>
<path d="M48.2427 244.247C51.8883 244.419 55.3288 245.984 57.854 248.619C60.3791 251.254 61.7962 254.758 61.8127 258.407C61.8127 264.287 61.7327 270.687 61.3527 274.487C60.4827 283.317 53.8427 284.827 53.8427 284.827C53.8427 284.827 54.0527 290.317 54.3527 295.517C54.6327 300.517 50.5627 304.837 45.2627 305.267C40.0127 305.687 35.5127 302.087 35.1527 297.187L33.3427 259.127C33.2487 257.15 33.5686 255.175 34.2818 253.328C34.9951 251.482 36.0861 249.804 37.4848 248.404C38.8836 247.003 40.5594 245.91 42.405 245.194C44.2506 244.478 46.2253 244.156 48.2027 244.247H48.2427Z" fill="#B78876"/>
<path d="M58.6727 261.887C58.6925 262.177 58.5997 262.464 58.4134 262.688C58.2271 262.911 57.9618 263.054 57.6727 263.087C57.5299 263.107 57.3847 263.097 57.2455 263.06C57.1064 263.023 56.9761 262.958 56.8625 262.869C56.7488 262.781 56.6539 262.67 56.5836 262.545C56.5132 262.419 56.4687 262.28 56.4527 262.137C56.433 261.848 56.5262 261.562 56.7126 261.34C56.8991 261.118 57.1644 260.977 57.4527 260.947C57.5949 260.926 57.7399 260.934 57.879 260.97C58.0181 261.006 58.1485 261.07 58.2623 261.158C58.3762 261.246 58.4712 261.355 58.5417 261.481C58.6122 261.606 58.6568 261.744 58.6727 261.887Z" fill="#263238"/>
<path d="M59.7727 260.567C59.6427 260.717 58.7727 260.147 57.5427 260.217C56.3127 260.287 55.4927 260.947 55.3527 260.807C55.2127 260.667 55.4127 260.477 55.7727 260.167C56.2763 259.777 56.8868 259.551 57.5227 259.517C58.1495 259.48 58.7721 259.641 59.3027 259.977C59.6927 260.237 59.8327 260.497 59.7727 260.567Z" fill="#263238"/>
<path d="M46.1027 262.967C46.1224 263.256 46.0292 263.542 45.8427 263.764C45.6562 263.986 45.391 264.127 45.1027 264.157C44.9607 264.177 44.8162 264.168 44.6777 264.131C44.5391 264.094 44.4093 264.03 44.2957 263.943C44.1821 263.855 44.0871 263.746 44.0162 263.621C43.9453 263.497 43.8999 263.359 43.8827 263.217C43.8628 262.927 43.9557 262.64 44.142 262.416C44.3282 262.193 44.5936 262.05 44.8827 262.017C45.0255 261.997 45.1707 262.007 45.3098 262.044C45.449 262.081 45.5792 262.146 45.6929 262.235C45.8066 262.323 45.9014 262.434 45.9718 262.559C46.0422 262.685 46.0867 262.824 46.1027 262.967Z" fill="#263238"/>
<path d="M47.2027 261.757C47.0727 261.907 46.2027 261.327 44.9727 261.407C43.7427 261.487 42.9227 262.137 42.7827 261.997C42.6427 261.857 42.8327 261.657 43.2027 261.357C43.7073 260.968 44.3167 260.738 44.9527 260.697C45.5813 260.656 46.2062 260.821 46.7327 261.167C47.1227 261.407 47.2627 261.687 47.2027 261.757Z" fill="#263238"/>
<path d="M52.1127 270.407C52.7372 270.17 53.389 270.012 54.0527 269.937C54.3627 269.887 54.6427 269.807 54.6827 269.597C54.6905 269.274 54.5998 268.957 54.4227 268.687L53.3427 266.407C52.3832 264.473 51.5774 262.467 50.9327 260.407C52.0497 262.263 53.0161 264.206 53.8228 266.217L54.8228 268.527C55.0421 268.886 55.1271 269.311 55.0627 269.727C55.0254 269.839 54.9626 269.94 54.8793 270.024C54.796 270.107 54.6945 270.17 54.5827 270.207C54.4153 270.267 54.2403 270.304 54.0627 270.317C53.4192 270.43 52.7639 270.46 52.1127 270.407Z" fill="#263238"/>
<path d="M53.8827 284.877C49.7223 285.056 45.5868 284.15 41.8827 282.247C41.8827 282.247 45.1427 288.537 53.9427 287.397L53.8827 284.877Z" fill="#995037"/>
<path d="M43.2127 258.407C43.3627 258.617 44.2127 258.247 45.3327 258.017C46.4527 257.787 47.3827 257.707 47.4227 257.457C47.4627 257.207 46.4227 256.837 45.1327 257.127C43.8427 257.417 43.0627 258.207 43.2127 258.407Z" fill="#263238"/>
<path d="M55.1727 256.217C55.2327 256.467 56.2227 256.437 57.4127 256.457C58.6027 256.477 59.5827 256.527 59.6527 256.277C59.7227 256.027 58.7427 255.557 57.4227 255.547C56.1027 255.537 55.1127 255.987 55.1727 256.217Z" fill="#263238"/>
<path d="M20.9227 297.907C20.9227 297.907 24.0327 291.737 22.0927 286.197C20.1527 280.657 20.8927 276.497 23.6927 274.317C25.6927 272.787 25.8927 270.267 25.6927 268.267C25.3408 264.921 25.4147 261.544 25.9128 258.217C26.6927 253.427 28.0927 248.337 30.9727 244.577C34.7127 239.677 41.4828 235.217 47.1028 237.717C49.7128 238.877 51.0427 238.807 53.7727 241.257C53.7727 241.257 56.2828 241.417 57.6028 241.627C62.1728 242.337 65.1328 247.207 65.6628 250.777C66.9028 259.047 62.3427 261.397 61.8727 267.017C61.8727 267.017 61.0527 255.307 60.0227 252.307C59.1791 250.113 57.5894 248.286 55.5327 247.147C52.1527 247.467 50.8727 249.467 49.7827 252.667C48.6927 255.867 48.0928 258.417 45.4128 260.497C42.8827 262.497 41.0627 265.737 36.4128 264.077C35.5646 265.803 35.2413 267.739 35.4828 269.647C35.9828 272.497 39.1427 273.287 38.3427 278.117C37.5427 282.947 34.5927 286.907 34.6727 288.717" fill="#263238"/>
<path d="M50.6627 273.327C50.4525 273.104 50.1891 272.937 49.8971 272.842C49.6051 272.748 49.294 272.729 48.9927 272.787C48.7736 272.822 48.564 272.901 48.3766 273.02C48.1891 273.138 48.0279 273.294 47.9027 273.477C47.7729 273.65 47.7027 273.861 47.7027 274.077C47.7027 274.293 47.7729 274.504 47.9027 274.677C48.078 274.844 48.2991 274.955 48.5377 274.996C48.7763 275.037 49.0217 275.006 49.2427 274.907C49.7026 274.705 50.1174 274.412 50.4627 274.047C50.5678 273.961 50.656 273.856 50.7227 273.737C50.7593 273.68 50.7788 273.614 50.7788 273.547C50.7788 273.48 50.7593 273.414 50.7227 273.357" fill="#995037"/>
<path d="M48.0128 271.797C48.1728 271.797 48.2527 272.867 49.2427 273.567C50.2327 274.267 51.3727 274.057 51.3927 274.217C51.4127 274.377 51.1528 274.447 50.6628 274.497C50.0283 274.551 49.3948 274.382 48.8728 274.017C48.3578 273.67 47.9989 273.135 47.8728 272.527C47.8328 272.077 47.9328 271.797 48.0128 271.797Z" fill="#263238"/>
<path d="M30.3427 245.457C28.6813 248.163 26.8053 250.731 24.7327 253.137C22.5127 255.587 20.3027 258.387 20.1427 261.687C20.0327 264.087 21.0227 266.607 20.0727 268.817C19.2527 270.697 17.2727 271.737 15.7927 273.147C14.4984 274.413 13.5672 276.003 13.0958 277.751C12.6245 279.499 12.6303 281.342 13.1127 283.087C13.7527 285.297 15.1727 287.467 14.6727 289.717C14.2327 291.717 12.4127 293.087 11.8627 295.027C11.3127 296.967 12.0327 298.827 12.8627 300.557C14.1227 303.197 15.9927 305.927 18.8627 306.557C19.8435 306.737 20.8515 306.705 21.819 306.463C22.7865 306.222 23.6913 305.777 24.4727 305.157C26.0341 303.917 27.3097 302.355 28.2127 300.577C30.0723 297.216 31.2226 293.51 31.5927 289.687C32.0227 285.117 31.3327 280.537 30.8827 275.977C30.0677 267.617 30.0677 259.197 30.8827 250.837C31.0727 248.837 31.8827 246.837 30.3627 245.457" fill="#263238"/>
<path d="M38.3427 265.407C38.3427 264.827 36.8028 263.757 36.2228 263.767C34.8828 263.767 32.7127 264.427 32.6827 268.137C32.6327 273.437 37.6827 271.887 37.6827 271.727C38.0684 269.641 38.2891 267.528 38.3427 265.407Z" fill="#B78876"/>
<path d="M36.4427 269.697C36.4427 269.697 36.3527 269.757 36.1927 269.827C36.0835 269.873 35.9662 269.897 35.8477 269.897C35.7292 269.897 35.6119 269.873 35.5027 269.827C35.1691 269.602 34.9009 269.293 34.7253 268.932C34.5497 268.57 34.4729 268.168 34.5027 267.767C34.4951 267.313 34.5873 266.862 34.7727 266.447C34.8265 266.284 34.9179 266.135 35.0395 266.014C35.161 265.892 35.3094 265.801 35.4727 265.747C35.5802 265.722 35.6931 265.734 35.7929 265.781C35.8927 265.829 35.9737 265.908 36.0227 266.007C36.0827 266.157 36.0227 266.257 36.0827 266.267C36.1427 266.277 36.1927 266.187 36.1527 265.967C36.1255 265.835 36.0551 265.715 35.9527 265.627C35.8061 265.518 35.6242 265.468 35.4427 265.487C35.2204 265.525 35.0115 265.619 34.8364 265.761C34.6612 265.903 34.5256 266.087 34.4427 266.297C34.2088 266.755 34.092 267.263 34.1027 267.777C34.0733 268.249 34.1838 268.719 34.4204 269.128C34.657 269.537 35.0091 269.867 35.4327 270.077C35.5736 270.118 35.722 270.128 35.8672 270.106C36.0124 270.083 36.1508 270.029 36.2727 269.947C36.4327 269.827 36.4627 269.707 36.4427 269.697Z" fill="#995037"/>
<path d="M63.5527 263.347C63.4861 263.046 63.3924 262.751 63.2727 262.467C63.0606 261.65 62.9497 260.811 62.9427 259.967C62.9659 258.713 63.0829 257.463 63.2928 256.227C63.5574 254.698 63.6779 253.148 63.6527 251.597C63.6072 250.787 63.456 249.987 63.2027 249.217C62.9503 248.492 62.5748 247.815 62.0927 247.217C61.2765 246.221 60.2199 245.45 59.0227 244.977C58.225 244.656 57.3726 244.493 56.5128 244.497C56.2801 244.471 56.0454 244.471 55.8127 244.497C55.7304 244.499 55.6491 244.516 55.5728 244.547C55.5728 244.547 55.9127 244.547 56.5027 244.547C57.5435 244.604 58.5603 244.882 59.486 245.361C60.4117 245.84 61.2251 246.51 61.8727 247.327C62.3233 247.899 62.6779 248.541 62.9227 249.227C63.166 249.975 63.3073 250.752 63.3427 251.537C63.3699 253.07 63.2595 254.603 63.0128 256.117C62.8165 257.367 62.7229 258.631 62.7328 259.897C62.7519 260.753 62.8968 261.603 63.1628 262.417C63.245 262.635 63.3384 262.849 63.4427 263.057C63.5027 263.287 63.5427 263.407 63.5527 263.347Z" fill="#455A64"/>
<path d="M33.3427 271.407C33.3427 271.407 33.1827 271.547 33.0027 271.857C32.7395 272.313 32.6047 272.831 32.6127 273.357C32.6329 273.757 32.7477 274.147 32.9475 274.495C33.1474 274.843 33.4268 275.138 33.7627 275.357C34.1584 275.639 34.619 275.816 35.1016 275.872C35.5841 275.928 36.073 275.861 36.5227 275.677C36.9674 275.476 37.3512 275.161 37.6356 274.764C37.92 274.367 38.0948 273.903 38.1427 273.417C38.1831 272.99 38.1034 272.561 37.9127 272.177C37.7464 271.847 37.5111 271.557 37.2227 271.327C36.8148 270.993 36.3095 270.8 35.7827 270.777C35.5903 270.755 35.3958 270.79 35.2227 270.877C35.2227 270.877 35.4227 270.877 35.7727 270.877C36.2607 270.941 36.7195 271.146 37.0927 271.467C37.3657 271.697 37.5784 271.991 37.7126 272.322C37.8467 272.653 37.8982 273.012 37.8627 273.367C37.8084 273.797 37.646 274.205 37.3906 274.555C37.1353 274.905 36.7954 275.184 36.4027 275.367C35.9966 275.528 35.557 275.587 35.1227 275.539C34.6884 275.49 34.2728 275.335 33.9127 275.087C33.6115 274.896 33.3571 274.639 33.1684 274.336C32.9797 274.033 32.8616 273.692 32.8227 273.337C32.8002 272.844 32.8998 272.353 33.1127 271.907C33.2627 271.537 33.3427 271.407 33.3427 271.407Z" fill="#32BAB0"/>
<path d="M20.2527 268.407C20.2542 268.25 20.2812 268.095 20.3327 267.947C20.4708 267.525 20.6482 267.116 20.8627 266.727C21.6965 265.309 22.8379 264.096 24.2027 263.177C25.15 262.525 26.2286 262.088 27.3627 261.897C28.6427 261.701 29.9396 261.637 31.2327 261.707C32.6353 261.795 34.0425 261.778 35.4427 261.657C36.9148 261.468 38.3242 260.945 39.5627 260.127C40.7859 259.241 41.9546 258.283 43.0627 257.257C44.1796 256.4 45.1871 255.409 46.0627 254.307C47.7327 252.157 49.3227 250.307 50.5427 248.687C51.5334 247.426 52.4229 246.088 53.2027 244.687C53.7427 243.687 53.9427 243.077 53.9927 243.097C53.9743 243.251 53.9374 243.402 53.8827 243.547C53.7927 243.837 53.6227 244.247 53.3927 244.777C52.6717 246.232 51.8181 247.618 50.8427 248.917C49.6427 250.597 48.0727 252.467 46.4427 254.617C45.5724 255.754 44.5648 256.778 43.4427 257.667C42.3252 258.714 41.1428 259.689 39.9027 260.587C38.5943 261.445 37.1057 261.989 35.5527 262.177C34.1283 262.292 32.697 262.292 31.2727 262.177C30.0079 262.09 28.7376 262.137 27.4827 262.317C26.4097 262.479 25.3856 262.875 24.4827 263.477C23.1372 264.341 21.9889 265.479 21.1127 266.817C20.789 267.326 20.5016 267.857 20.2527 268.407Z" fill="#455A64"/>
<path d="M48.7527 304.857C50.6527 299.007 55.3227 293.047 60.4527 295.197C66.1527 297.587 67.7427 300.617 70.8727 305.317C74.0027 310.017 75.8727 315.387 77.8027 320.697C78.5427 322.777 82.4027 332.307 81.2627 334.207C80.2627 335.837 70.5927 348.057 68.7527 348.547C64.0027 349.807 63.7527 332.197 58.9027 333.097C56.9627 333.457 54.8327 333.757 53.1227 332.787C50.9427 331.557 50.2827 328.787 49.8227 326.327C48.2361 317.714 46.6427 309.074 45.0427 300.407" fill="#32BAB0"/>
<path d="M53.9927 292.857L61.4927 296.097C65.2927 299.097 66.3627 304.197 66.2327 309.017L69.1027 349.017L69.3527 362.847C69.3527 362.847 47.2527 374.847 22.5627 359.307L26.6727 348.407L19.1927 322.407C18.6527 318.617 18.3227 310.747 19.3127 307.017C21.8527 297.437 28.6527 294.577 35.6227 292.657C35.6227 292.657 42.6227 298.507 49.4127 297.277C49.4127 297.267 53.5627 296.877 53.9927 292.857Z" fill="#32BAB0"/>
<g opacity="0.2">
<path opacity="0.2" d="M64.3427 336.407L51.3427 355.237C49.6527 357.687 47.8927 360.237 45.3427 361.807C43.493 362.953 41.356 363.55 39.1803 363.528C37.0046 363.507 34.8797 362.869 33.0527 361.687C29.4527 359.277 26.2527 352.817 27.0527 348.557C27.1427 348.047 28.8527 348.977 28.8527 348.977C29.1496 348.712 29.5132 348.533 29.9044 348.459C30.2955 348.385 30.6995 348.419 31.0727 348.557C31.8159 348.839 32.5293 349.194 33.2027 349.617C37.2727 351.777 42.4527 350.617 46.2827 348.037C50.1127 345.457 52.9227 341.657 55.8527 338.087C56.8298 336.675 58.1657 335.55 59.7227 334.827C61.3227 334.237 63.4527 334.717 64.1327 336.287" fill="black"/>
</g>
<path d="M41.9327 332.407L43.0728 336.817L65.8627 320.207L72.8627 310.287C73.7949 308.958 75.208 308.043 76.8027 307.737C77.6367 307.567 78.4966 307.568 79.3303 307.74C80.164 307.912 80.954 308.251 81.6527 308.737L88.1427 313.347C88.1427 313.347 87.9627 316.847 86.3927 316.147C84.8227 315.447 81.6527 313.697 81.6527 313.697L80.7827 322.087L76.9227 324.887L73.0627 327.887L47.3427 353.457C46.0542 354.733 44.4819 355.686 42.7543 356.238C41.0268 356.79 39.1931 356.926 37.4033 356.633C35.6135 356.34 33.9183 355.628 32.4565 354.555C30.9947 353.481 29.8078 352.077 28.9927 350.457L25.1727 339.627L41.9327 332.407Z" fill="#B78876"/>
<path d="M43.6427 336.207C43.6427 336.207 43.2027 336.307 42.6927 336.797C42.037 337.445 41.5733 338.262 41.3527 339.157C41.1434 340.034 41.0625 340.937 41.1127 341.837C41.0928 342.212 41.1368 342.587 41.2427 342.947C41.3332 342.588 41.3703 342.217 41.3527 341.847C41.3761 340.971 41.4901 340.1 41.6927 339.247C41.8988 338.406 42.2996 337.625 42.8627 336.967C43.3427 336.467 43.6727 336.257 43.6427 336.207Z" fill="#995037"/>
<path d="M81.6727 314.187C81.6727 314.187 81.6027 313.897 81.3327 313.507C80.9798 312.978 80.4739 312.57 79.8827 312.337C79.5731 312.23 79.2406 312.206 78.919 312.27C78.5975 312.333 78.2985 312.48 78.0527 312.697C77.6727 313.057 77.6927 313.407 77.7227 313.397C77.7527 313.387 77.8527 313.127 78.2027 312.877C78.4317 312.726 78.6918 312.629 78.9637 312.592C79.2355 312.556 79.5121 312.581 79.7727 312.667C80.3051 312.882 80.7758 313.225 81.1427 313.667C81.4527 313.997 81.6327 314.217 81.6727 314.187Z" fill="#995037"/>
<path d="M77.5927 316.407C77.5927 316.407 77.8127 316.287 78.1227 316.117C78.5202 315.885 78.9726 315.764 79.4327 315.767C79.893 315.772 80.3442 315.896 80.7427 316.127C81.0527 316.297 81.2227 316.457 81.2627 316.427C81.3027 316.397 81.1827 316.177 80.8727 315.927C80.4644 315.599 79.9566 315.419 79.4327 315.417C78.9072 315.418 78.3969 315.594 77.9827 315.917C77.6727 316.177 77.5627 316.407 77.5927 316.407Z" fill="#995037"/>
<path d="M33.0627 293.177C27.9427 295.317 22.6027 297.607 19.0627 301.887C15.5227 306.167 14.2027 312.137 14.4627 317.767C14.7227 323.397 14.6927 328.667 16.3227 334.067C16.9527 336.177 18.3227 341.327 19.4427 343.657C20.7627 346.297 26.9727 349.107 29.9527 349.037C34.8627 348.917 37.2127 339.667 41.6427 337.537C43.4227 336.687 46.1827 332.957 46.9827 331.157C47.9827 328.877 44.9827 324.557 43.8927 322.307L32.4027 298.617" fill="#32BAB0"/>
<path d="M42.5527 336.927C42.5754 336.777 42.6228 336.632 42.6927 336.497C42.8572 336.108 42.9617 335.697 43.0027 335.277C43.0152 334.957 42.9592 334.638 42.8385 334.341C42.7178 334.045 42.5351 333.777 42.3027 333.557C41.9759 333.286 41.5918 333.093 41.1795 332.993C40.7672 332.892 40.3375 332.887 39.9227 332.977H39.7328V332.777C39.4485 330.938 38.8246 329.168 37.8927 327.557C36.7852 325.625 35.2491 323.972 33.4027 322.727C31.3587 321.42 29.0959 320.492 26.7227 319.987C24.7779 319.546 22.8021 319.255 20.8127 319.117C19.1127 318.997 17.7327 319.017 16.8127 319.027C16.3169 319.068 15.8186 319.068 15.3228 319.027C15.808 318.909 16.3037 318.838 16.8027 318.817C18.1531 318.705 19.5093 318.682 20.8627 318.747C22.8808 318.829 24.8881 319.083 26.8627 319.507C29.3059 319.998 31.6359 320.94 33.7328 322.287C35.6423 323.57 37.2246 325.282 38.3528 327.287C39.3039 328.954 39.9157 330.793 40.1527 332.697L39.9327 332.527C40.4032 332.44 40.8873 332.462 41.3481 332.59C41.809 332.718 42.2347 332.95 42.5927 333.267C42.8488 333.529 43.0442 333.844 43.1651 334.189C43.2861 334.535 43.3297 334.903 43.2928 335.267C43.224 335.706 43.0784 336.129 42.8627 336.517C42.6527 336.807 42.5727 336.937 42.5527 336.927Z" fill="#263238"/>
<path d="M31.5927 340.907C33.8017 337.645 36.7216 334.927 40.1327 332.957C40.2227 333.087 38.1327 334.637 35.7627 336.827C33.3927 339.017 31.7127 340.997 31.5927 340.907Z" fill="#263238"/>
<g opacity="0.3">
<path opacity="0.3" d="M39.8927 332.627C37.829 333.382 35.8777 334.415 34.0927 335.697C32.2925 336.998 31.0554 338.936 30.6327 341.117L32.5227 339.377C34.9815 337.022 37.6121 334.852 40.3927 332.887" fill="black"/>
</g>
<path d="M66.3427 319.407C66.3417 318.748 66.4603 318.094 66.6927 317.477C67.1671 315.97 67.7797 314.511 68.5227 313.117C70.2227 309.837 72.1427 307.497 72.2827 307.617C71.9933 308.202 71.659 308.764 71.2827 309.297C70.6527 310.297 69.8227 311.747 68.9727 313.357C68.2527 314.736 67.6052 316.151 67.0327 317.597C66.8564 318.219 66.6255 318.825 66.3427 319.407Z" fill="#263238"/>
<path d="M69.3427 359.667C69.2446 359.319 69.1941 358.959 69.1927 358.597C69.1227 357.897 69.0527 356.897 68.9927 355.657C68.8627 353.167 68.7627 349.737 68.7427 345.947C68.7227 342.157 68.7427 338.717 68.8627 336.237C68.8627 334.987 68.9427 333.987 68.9927 333.297C68.9826 332.933 69.023 332.57 69.1127 332.217C69.1858 332.572 69.2127 332.935 69.1927 333.297C69.1927 334.107 69.1927 335.087 69.1927 336.237C69.1927 338.847 69.1927 342.237 69.1927 345.947C69.1927 349.657 69.2627 353.037 69.2827 355.647C69.2827 356.797 69.2827 357.777 69.2827 358.587C69.3491 358.943 69.3692 359.306 69.3427 359.667Z" fill="#263238"/>
<path d="M60.2027 316.667C59.9496 315.811 59.7558 314.939 59.6227 314.057C59.4297 313.183 59.2928 312.298 59.2127 311.407C59.4722 312.262 59.6694 313.134 59.8027 314.017C59.9956 314.89 60.1292 315.776 60.2027 316.667Z" fill="#EBEBEB"/>
<path d="M61.8227 313.127C61.1886 313.474 60.5178 313.749 59.8227 313.947C59.1526 314.201 58.4593 314.388 57.7527 314.507C58.404 314.224 59.0719 313.98 59.7527 313.777C60.4279 313.516 61.1194 313.299 61.8227 313.127Z" fill="#EBEBEB"/>
<path d="M58.8327 316.037C59.0304 315.331 59.2846 314.642 59.5927 313.977C59.8402 313.285 60.148 312.615 60.5127 311.977C60.3214 312.684 60.0705 313.373 59.7627 314.037C59.5096 314.729 59.1985 315.398 58.8327 316.037Z" fill="#EBEBEB"/>
<path d="M61.8027 315.547C60.4674 314.71 59.1941 313.777 57.9927 312.757C58.6931 313.144 59.3619 313.585 59.9927 314.077C60.6349 314.517 61.2403 315.009 61.8027 315.547Z" fill="#EBEBEB"/>
<path d="M66.1427 347.407C65.8889 346.551 65.6918 345.679 65.5527 344.797C65.3598 343.924 65.2262 343.038 65.1527 342.147C65.4058 343.003 65.5996 343.875 65.7327 344.757C65.9323 345.629 66.0693 346.515 66.1427 347.407Z" fill="#EBEBEB"/>
<path d="M67.7527 343.907C66.4848 344.536 65.14 344.997 63.7527 345.277C64.4037 344.996 65.0717 344.755 65.7527 344.557C66.4047 344.298 67.0727 344.08 67.7527 343.907Z" fill="#EBEBEB"/>
<path d="M64.7727 346.817C64.964 346.11 65.2149 345.421 65.5227 344.757C65.7752 344.067 66.0829 343.398 66.4427 342.757C66.2514 343.464 66.0005 344.153 65.6927 344.817C65.4402 345.507 65.1326 346.176 64.7727 346.817Z" fill="#EBEBEB"/>
<path d="M67.7328 346.317C67.0502 345.927 66.3983 345.486 65.7827 344.997C65.1244 344.562 64.5053 344.07 63.9327 343.527C64.6311 343.921 65.2996 344.365 65.9327 344.857C66.5672 345.3 67.1688 345.787 67.7328 346.317Z" fill="#EBEBEB"/>
<path d="M74.6628 335.287C74.4055 334.428 74.2083 333.553 74.0728 332.667C73.8792 331.794 73.7455 330.908 73.6727 330.017C73.9208 330.877 74.1145 331.752 74.2527 332.637C74.4405 333.512 74.5774 334.396 74.6628 335.287Z" fill="#EBEBEB"/>
<path d="M76.2727 331.747C75.6363 332.089 74.966 332.364 74.2727 332.567C73.6054 332.827 72.9111 333.012 72.2027 333.117C72.854 332.834 73.5219 332.59 74.2027 332.387C74.8771 332.126 75.5687 331.912 76.2727 331.747Z" fill="#EBEBEB"/>
<path d="M73.2827 334.647C73.7343 333.255 74.2961 331.9 74.9627 330.597C74.7732 331.304 74.5223 331.994 74.2127 332.657C73.9591 333.345 73.648 334.011 73.2827 334.647Z" fill="#EBEBEB"/>
<path d="M76.2527 334.157C75.5523 333.77 74.8836 333.329 74.2527 332.837C73.6146 332.406 73.0095 331.928 72.4427 331.407C73.1432 331.794 73.8119 332.235 74.4427 332.727C75.0809 333.158 75.686 333.636 76.2527 334.157Z" fill="#EBEBEB"/>
<path d="M62.9027 305.137C62.6489 304.278 62.4552 303.403 62.3227 302.517C62.1295 301.647 61.9925 300.765 61.9127 299.877C62.1665 300.733 62.3636 301.605 62.5027 302.487C62.6963 303.36 62.8299 304.246 62.9027 305.137Z" fill="#EBEBEB"/>
<path d="M64.5227 301.597C63.8863 301.939 63.216 302.214 62.5227 302.417C61.855 302.676 61.1608 302.86 60.4527 302.967C61.7818 302.451 63.1331 301.994 64.5027 301.597H64.5227Z" fill="#EBEBEB"/>
<path d="M61.5327 304.507C61.7426 303.785 62.0136 303.083 62.3427 302.407C62.5902 301.715 62.898 301.045 63.2627 300.407C63.0714 301.114 62.8205 301.803 62.5127 302.467C62.2403 303.172 61.9126 303.854 61.5327 304.507Z" fill="#EBEBEB"/>
<path d="M64.5027 304.007C63.8023 303.62 63.1335 303.179 62.5027 302.687C61.8494 302.245 61.2309 301.754 60.6527 301.217C61.3531 301.604 62.0219 302.045 62.6527 302.537C63.3061 302.979 63.9246 303.47 64.5027 304.007Z" fill="#EBEBEB"/>
<path d="M51.5127 326.717C51.259 325.858 51.0651 324.983 50.9327 324.097C50.7336 323.228 50.5966 322.346 50.5227 321.457C50.7765 322.313 50.9736 323.185 51.1127 324.067C51.3063 324.94 51.4399 325.826 51.5127 326.717Z" fill="#EBEBEB"/>
<path d="M53.1328 323.177C52.4952 323.517 51.8252 323.791 51.1328 323.997C50.4651 324.256 49.7709 324.44 49.0627 324.547C49.7133 324.262 50.3813 324.018 51.0627 323.817C51.7385 323.56 52.4299 323.346 53.1328 323.177Z" fill="#EBEBEB"/>
<path d="M50.1427 326.077C50.5873 324.698 51.1494 323.36 51.8227 322.077C51.625 322.783 51.3709 323.472 51.0627 324.137C50.8114 324.809 50.5037 325.458 50.1427 326.077Z" fill="#EBEBEB"/>
<path d="M53.1127 325.587C52.4122 325.2 51.7435 324.759 51.1127 324.267C50.4593 323.825 49.8409 323.334 49.2627 322.797C49.9614 323.186 50.63 323.628 51.2627 324.117C51.9161 324.559 52.5345 325.05 53.1127 325.587Z" fill="#EBEBEB"/>
<path d="M53.3427 355.217C53.0896 354.361 52.8958 353.489 52.7627 352.607C52.5632 351.735 52.4262 350.849 52.3527 349.957C52.6072 350.816 52.8043 351.692 52.9427 352.577C53.1352 353.447 53.2688 354.329 53.3427 355.217Z" fill="#EBEBEB"/>
<path d="M54.9827 351.677C54.3487 352.024 53.6778 352.299 52.9827 352.497C52.3162 352.762 51.6218 352.95 50.9127 353.057C51.5633 352.772 52.2313 352.528 52.9127 352.327C53.5899 352.071 54.281 351.854 54.9827 351.677Z" fill="#EBEBEB"/>
<path d="M51.9927 354.587C52.4443 353.195 53.006 351.84 53.6727 350.537C53.475 351.243 53.2208 351.932 52.9127 352.597C52.6647 353.286 52.3569 353.952 51.9927 354.587Z" fill="#EBEBEB"/>
<path d="M54.9627 354.097C54.2622 353.71 53.5935 353.269 52.9627 352.777C52.3093 352.335 51.6908 351.844 51.1127 351.307C51.8131 351.694 52.4819 352.135 53.1127 352.627C53.766 353.069 54.3845 353.56 54.9627 354.097Z" fill="#EBEBEB"/>
<path d="M63.1727 362.257C62.9189 361.401 62.7218 360.529 62.5827 359.647C62.3892 358.774 62.2555 357.888 62.1827 356.997C62.4365 357.856 62.6303 358.731 62.7628 359.617C62.956 360.487 63.0929 361.369 63.1727 362.257Z" fill="#EBEBEB"/>
<path d="M64.7827 358.717C64.1486 359.064 63.4778 359.339 62.7827 359.537C62.1129 359.792 61.4195 359.979 60.7127 360.097C61.3641 359.814 62.0319 359.57 62.7127 359.367C63.3899 359.111 64.081 358.894 64.7827 358.717Z" fill="#EBEBEB"/>
<path d="M61.7927 361.627C61.9958 360.923 62.2498 360.234 62.5527 359.567C62.8052 358.877 63.1129 358.208 63.4727 357.567C63.2814 358.274 63.0305 358.963 62.7227 359.627C62.4696 360.319 62.1585 360.988 61.7927 361.627Z" fill="#EBEBEB"/>
<path d="M64.7627 361.137C64.064 360.748 63.3955 360.306 62.7627 359.817C62.1094 359.375 61.4909 358.884 60.9127 358.347C61.6132 358.734 62.2819 359.175 62.9127 359.667C63.5661 360.109 64.1846 360.6 64.7627 361.137Z" fill="#EBEBEB"/>
<path d="M44.3427 365.957C44.0826 365.099 43.8854 364.224 43.7527 363.337C43.5591 362.464 43.4255 361.578 43.3527 360.687C43.598 361.548 43.7916 362.423 43.9327 363.307C44.1264 364.181 44.2633 365.066 44.3427 365.957Z" fill="#EBEBEB"/>
<path d="M45.9927 362.407C45.3563 362.749 44.686 363.024 43.9927 363.227C43.3255 363.487 42.6311 363.672 41.9227 363.777C43.2354 363.262 44.57 362.805 45.9227 362.407H45.9927Z" fill="#EBEBEB"/>
<path d="M43.0027 365.317C43.2058 364.613 43.4598 363.924 43.7627 363.257C44.0158 362.567 44.3235 361.898 44.6827 361.257C44.4922 361.961 44.2413 362.647 43.9327 363.307C43.6801 364.002 43.369 364.675 43.0027 365.317Z" fill="#EBEBEB"/>
<path d="M45.9727 364.827C45.2723 364.44 44.6035 363.999 43.9727 363.507C43.3193 363.065 42.7008 362.574 42.1227 362.037C42.8231 362.424 43.4919 362.865 44.1227 363.357C44.776 363.799 45.3945 364.29 45.9727 364.827Z" fill="#EBEBEB"/>
<path d="M28.3427 360.177C28.089 359.318 27.8952 358.443 27.7627 357.557C27.5632 356.685 27.4262 355.799 27.3527 354.907C27.6044 355.767 27.8014 356.642 27.9427 357.527C28.1363 358.4 28.2699 359.286 28.3427 360.177Z" fill="#EBEBEB"/>
<path d="M29.9327 356.637C29.2962 356.979 28.626 357.254 27.9327 357.457C27.265 357.716 26.5708 357.9 25.8627 358.007C26.5132 357.722 27.1812 357.478 27.8627 357.277C28.539 357.022 29.2303 356.808 29.9327 356.637Z" fill="#EBEBEB"/>
<path d="M26.9427 359.537C27.135 358.829 27.3893 358.14 27.7027 357.477C27.9508 356.785 28.2587 356.116 28.6227 355.477C28.4313 356.182 28.177 356.868 27.8627 357.527C27.6158 358.223 27.308 358.895 26.9427 359.537Z" fill="#EBEBEB"/>
<path d="M29.9128 359.047C29.2123 358.661 28.5436 358.219 27.9128 357.727C27.2594 357.285 26.6409 356.794 26.0627 356.257C26.7632 356.644 27.4319 357.085 28.0627 357.577C28.7161 358.019 29.3346 358.51 29.9128 359.047Z" fill="#EBEBEB"/>
<path d="M50.3927 307.217C50.1396 306.361 49.9458 305.489 49.8127 304.607C49.6132 303.735 49.4762 302.849 49.4027 301.957C49.6565 302.816 49.8503 303.691 49.9827 304.577C50.1812 305.446 50.3181 306.329 50.3927 307.217Z" fill="#EBEBEB"/>
<path d="M52.0027 303.687C51.3656 304.025 50.6954 304.296 50.0027 304.497C49.3363 304.762 48.6418 304.95 47.9327 305.057C48.5825 304.77 49.2506 304.526 49.9327 304.327C50.6073 304.066 51.2989 303.853 52.0027 303.687Z" fill="#EBEBEB"/>
<path d="M49.0227 306.587C49.214 305.88 49.4649 305.191 49.7727 304.527C50.0284 303.836 50.3394 303.168 50.7027 302.527C50.5014 303.232 50.2474 303.92 49.9427 304.587C49.6902 305.277 49.3826 305.946 49.0227 306.587Z" fill="#EBEBEB"/>
<path d="M51.9927 306.097C51.2923 305.71 50.6235 305.269 49.9927 304.777C49.3393 304.335 48.7209 303.844 48.1427 303.307C48.8414 303.696 49.51 304.138 50.1427 304.627C50.7961 305.069 51.4145 305.56 51.9927 306.097Z" fill="#EBEBEB"/>
<path d="M22.0727 315.317C21.8132 314.462 21.6161 313.59 21.4827 312.707C21.2891 311.834 21.1555 310.948 21.0827 310.057C21.3365 310.916 21.5303 311.791 21.6627 312.677C21.856 313.547 21.9929 314.429 22.0727 315.317Z" fill="#EBEBEB"/>
<path d="M23.6827 311.777C23.0486 312.124 22.3778 312.399 21.6827 312.597C21.0129 312.852 20.3195 313.039 19.6127 313.157C20.264 312.874 20.9319 312.63 21.6127 312.427C22.2899 312.171 22.981 311.954 23.6827 311.777Z" fill="#EBEBEB"/>
<path d="M20.6927 314.687C20.8959 313.983 21.1498 313.294 21.4527 312.627C21.7052 311.937 22.0129 311.268 22.3727 310.627C22.1815 311.334 21.9306 312.023 21.6227 312.687C21.3696 313.379 21.0585 314.048 20.6927 314.687Z" fill="#EBEBEB"/>
<path d="M23.6628 314.197C22.9623 313.81 22.2936 313.369 21.6628 312.877C21.0094 312.435 20.3909 311.944 19.8127 311.407C20.5132 311.794 21.1819 312.235 21.8127 312.727C22.4661 313.169 23.0846 313.66 23.6628 314.197Z" fill="#EBEBEB"/>
<path d="M39.4827 322.257C39.2318 321.397 39.038 320.522 38.9027 319.637C38.7031 318.765 38.5661 317.879 38.4927 316.987C38.7472 317.846 38.9443 318.722 39.0827 319.607C39.2763 320.48 39.4099 321.366 39.4827 322.257Z" fill="#EBEBEB"/>
<path d="M41.1027 318.717C40.4647 319.053 39.7947 319.324 39.1027 319.527C38.4362 319.792 37.7417 319.98 37.0327 320.087C37.6832 319.802 38.3513 319.558 39.0327 319.357C39.7071 319.096 40.3987 318.882 41.1027 318.717Z" fill="#EBEBEB"/>
<path d="M38.1127 321.617C38.3049 320.909 38.5592 320.22 38.8727 319.557C39.1252 318.867 39.4328 318.198 39.7927 317.557C39.6023 318.265 39.3479 318.955 39.0327 319.617C38.7852 320.309 38.4774 320.979 38.1127 321.617Z" fill="#EBEBEB"/>
<path d="M41.0827 321.127C40.3823 320.74 39.7135 320.299 39.0827 319.807C38.4293 319.365 37.8109 318.874 37.2327 318.337C37.9332 318.724 38.6019 319.165 39.2327 319.657C39.8861 320.099 40.5045 320.59 41.0827 321.127Z" fill="#EBEBEB"/>
<path d="M22.6628 330.407C22.4033 329.552 22.2061 328.68 22.0728 327.797C21.8799 326.924 21.7462 326.038 21.6727 325.147C21.9258 326.003 22.1196 326.875 22.2527 327.757C22.4464 328.631 22.5834 329.516 22.6628 330.407Z" fill="#EBEBEB"/>
<path d="M24.2727 326.827C23.6386 327.174 22.9678 327.449 22.2727 327.647C21.6054 327.907 20.9111 328.092 20.2027 328.197C20.8553 327.92 21.523 327.679 22.2027 327.477C22.8779 327.216 23.5694 326.999 24.2727 326.827Z" fill="#EBEBEB"/>
<path d="M21.2827 329.737C21.4858 329.033 21.7398 328.344 22.0427 327.677C22.2952 326.987 22.6028 326.318 22.9627 325.677C22.7714 326.384 22.5205 327.073 22.2127 327.737C21.9596 328.429 21.6485 329.098 21.2827 329.737Z" fill="#EBEBEB"/>
<path d="M24.2527 329.237C23.554 328.848 22.8855 328.406 22.2527 327.917C21.609 327.464 21.0036 326.959 20.4427 326.407C21.778 327.244 23.0513 328.177 24.2527 329.197V329.237Z" fill="#EBEBEB"/>
<path d="M33.1527 333.817C32.9004 332.958 32.7066 332.082 32.5727 331.197C32.3732 330.325 32.2362 329.439 32.1627 328.547C32.4136 329.407 32.6074 330.282 32.7427 331.167C32.9422 332.039 33.0793 332.925 33.1527 333.817Z" fill="#EBEBEB"/>
<path d="M34.7727 330.277C34.1352 330.617 33.4651 330.891 32.7727 331.097C32.105 331.356 31.4108 331.54 30.7027 331.647C31.3524 331.36 32.0206 331.116 32.7027 330.917C33.3765 330.654 34.0683 330.441 34.7727 330.277Z" fill="#EBEBEB"/>
<path d="M31.7827 333.177C31.974 332.47 32.2249 331.781 32.5327 331.117C32.7865 330.426 33.0976 329.757 33.4627 329.117C33.2615 329.802 33.0074 330.471 32.7027 331.117C32.4585 331.83 32.1507 332.519 31.7827 333.177Z" fill="#EBEBEB"/>
<path d="M34.7527 332.687C34.0523 332.3 33.3835 331.859 32.7527 331.367C32.0994 330.925 31.4809 330.434 30.9027 329.897C31.6014 330.286 32.27 330.728 32.9027 331.217C33.5561 331.659 34.1746 332.15 34.7527 332.687Z" fill="#EBEBEB"/>
<path d="M26.4427 343.707C26.1896 342.851 25.9958 341.979 25.8627 341.097C25.6638 340.224 25.5268 339.339 25.4527 338.447C25.7065 339.303 25.9036 340.175 26.0427 341.057C26.2356 341.93 26.3692 342.816 26.4427 343.707Z" fill="#EBEBEB"/>
<path d="M28.0627 340.167C26.7795 340.801 25.4175 341.262 24.0127 341.537C24.0127 341.537 24.9127 341.197 26.0127 340.817C26.6814 340.557 27.3661 340.34 28.0627 340.167Z" fill="#EBEBEB"/>
<path d="M25.0728 343.077C25.5243 341.685 26.0861 340.33 26.7527 339.027C26.3012 340.419 25.7394 341.774 25.0728 343.077Z" fill="#EBEBEB"/>
<path d="M28.0428 342.577C27.3423 342.19 26.6736 341.749 26.0428 341.257C25.391 340.816 24.7727 340.328 24.1927 339.797C24.8959 340.179 25.565 340.621 26.1927 341.117C26.8445 341.558 27.4628 342.046 28.0428 342.577Z" fill="#EBEBEB"/>
<path d="M38.3427 277.867C37.5611 279.275 37.1643 280.864 37.1924 282.474C37.2205 284.083 37.6724 285.658 38.5027 287.037C39.6127 288.827 41.3427 290.227 42.1927 292.157C43.1927 294.517 42.7627 297.217 42.4527 299.777C42.1427 302.337 42.0927 305.177 43.7327 307.167C44.4127 307.997 45.3327 308.607 46.0327 309.427C46.4168 309.813 46.6794 310.302 46.7879 310.836C46.8963 311.369 46.8458 311.922 46.6427 312.427C46.2147 313.053 45.5815 313.509 44.8527 313.717C42.2156 314.655 39.3578 314.781 36.6483 314.079C33.9389 313.376 31.5021 311.878 29.6527 309.777L29.2427 312.507C25.7915 309.518 23.4671 305.437 22.6557 300.944C21.8444 296.45 22.5949 291.815 24.7827 287.807" fill="#263238"/>
<path d="M73.7105 142.557C78.6319 131.754 88.9241 130.995 101.727 137.599C101.727 137.599 100.004 151.663 107.123 152.742C114.242 153.821 117.326 153.472 118.935 158.512C120.544 163.552 110.712 168.429 109.901 176.644C109.09 184.86 111.472 201.04 106.998 210.87C102.524 220.7 93.6997 227.608 68.1639 215.979C42.6281 204.35 43.2403 191.044 46.7148 183.419C50.1893 175.793 67.3169 162.165 70.1988 155.823C73.0806 149.482 70.8613 148.819 73.7105 142.557Z" fill="#32BAB0" stroke="#263238" stroke-width="0.5" stroke-linecap="round" stroke-linejoin="round"/>
<path d="M98.1602 168.83C101.903 165.366 102.13 159.524 98.6661 155.781C95.2024 152.038 89.3601 151.811 85.6169 155.275C81.8738 158.739 81.6473 164.581 85.111 168.324C88.5747 172.067 94.417 172.294 98.1602 168.83Z" fill="#263238"/>
<path d="M98.2211 158.645L90.2964 155.037L125.828 80.2756L131.291 82.7718L98.2211 158.645Z" fill="#757575" stroke="#263238" stroke-width="1.10975" stroke-linecap="round" stroke-linejoin="round"/>
<path d="M139.984 65.8473C139.295 64.6239 138.235 63.6513 136.957 63.0701C135.68 62.4889 134.25 62.3292 132.875 62.6142L131.284 61.8859L124.646 79.747L132.462 83.3131L141.572 66.5585L139.984 65.8473Z" fill="#32BAB0" stroke="#263238" stroke-width="1.10975" stroke-linecap="round" stroke-linejoin="round"/>
<path d="M100.949 156.019L102.658 152.259C104.155 153.687 106.088 154.572 108.148 154.771C111.853 155.222 115.682 156.238 116.721 158.669C117.76 161.1 112.54 165.695 110.477 169.37C108.413 173.045 107.255 178.168 107.588 183.949C107.588 183.949 102.705 185.679 104.166 177.746C105.891 168.386 101.531 166.386 101.531 166.386C101.531 166.386 104.32 161.89 100.949 156.019Z" fill="#757575" stroke="#263238" stroke-width="1.10975" stroke-linecap="round" stroke-linejoin="round"/>
<path d="M95.0377 187.05L70.9591 176.083L68.5664 181.343L75.3605 184.438C76.0709 185.47 77.8891 186.747 80.1703 187.786C82.4515 188.826 84.6187 189.344 85.8435 189.212L92.645 192.31L95.0377 187.05Z" fill="#757575" stroke="#263238" stroke-width="1.10975" stroke-linecap="round" stroke-linejoin="round"/>
<path d="M140.622 71.7104L139.488 71.1042L138.148 73.6117L139.282 74.2178L140.622 71.7104Z" fill="#757575" stroke="#263238" stroke-width="1.10975" stroke-linecap="round" stroke-linejoin="round"/>
<path d="M138.395 75.8657L137.26 75.2596L135.921 77.7671L137.055 78.3732L138.395 75.8657Z" fill="#757575" stroke="#263238" stroke-width="1.10975" stroke-linecap="round" stroke-linejoin="round"/>
<path d="M136.174 80.023L135.039 79.4169L133.699 81.9243L134.834 82.5304L136.174 80.023Z" fill="#757575" stroke="#263238" stroke-width="1.10975" stroke-linecap="round" stroke-linejoin="round"/>
<path d="M127.16 68.693L128.362 69.1508L129.373 66.4939L128.172 66.0362L127.16 68.693Z" fill="#757575" stroke="#263238" stroke-width="1.10975" stroke-linecap="round" stroke-linejoin="round"/>
<path d="M125.483 73.0931L126.685 73.5508L127.697 70.8939L126.495 70.4362L125.483 73.0931Z" fill="#757575" stroke="#263238" stroke-width="1.10975" stroke-linecap="round" stroke-linejoin="round"/>
<path d="M122.891 77.869L124.096 78.3234L125.101 75.6583L123.895 75.2039L122.891 77.869Z" fill="#757575" stroke="#263238" stroke-width="1.11175" stroke-linecap="round" stroke-linejoin="round"/>
<g opacity="0.5">
<path opacity="0.5" d="M134.987 67.421C134.874 67.3851 134.756 67.3719 134.639 67.382C134.522 67.392 134.408 67.4252 134.304 67.4796C134.199 67.534 134.107 67.6085 134.031 67.6988C133.956 67.7891 133.899 67.8935 133.864 68.0059L129.446 78.7043C129.4 78.7971 129.39 78.9039 129.42 79.0033C129.449 79.1026 129.515 79.1872 129.604 79.24C129.789 79.2974 130 79.2169 130.109 78.999L135.28 68.6472C135.341 68.5475 135.382 68.4366 135.401 68.321C135.419 68.2054 135.415 68.0872 135.387 67.9733C135.36 67.8594 135.311 67.752 135.242 67.6572C135.173 67.5625 135.086 67.4822 134.987 67.421Z" fill="black"/>
<path opacity="0.5" d="M137.642 68.6657C137.537 68.6149 137.423 68.5865 137.307 68.582C137.19 68.5776 137.074 68.5973 136.966 68.6398C136.857 68.6824 136.759 68.747 136.677 68.8294C136.594 68.9118 136.53 69.0104 136.488 69.1189L131.086 79.3506C131.032 79.4423 131.012 79.5504 131.03 79.6555C131.048 79.7606 131.102 79.8559 131.184 79.9244C131.23 79.9466 131.28 79.9596 131.331 79.9626C131.381 79.9656 131.432 79.9586 131.481 79.9418C131.529 79.9251 131.573 79.8991 131.611 79.8652C131.649 79.8313 131.68 79.7902 131.702 79.7443L137.76 69.9348C137.902 69.7468 137.969 69.5123 137.947 69.2774C137.925 69.0426 137.816 68.8244 137.642 68.6657Z" fill="black"/>
<path opacity="0.5" d="M132.333 66.2496C132.099 66.2208 131.864 66.2799 131.672 66.4154C131.48 66.5508 131.346 66.7529 131.295 66.9821L127.882 77.9925C127.841 78.0864 127.84 78.1924 127.877 78.2875C127.914 78.3827 127.988 78.4592 128.081 78.5004C128.186 78.5207 128.295 78.501 128.386 78.445C128.477 78.3891 128.543 78.3011 128.572 78.1984L132.794 67.4306C132.848 67.3238 132.878 67.2069 132.884 67.0874C132.89 66.968 132.87 66.8486 132.827 66.7372C132.783 66.6258 132.717 66.5249 132.631 66.4408C132.546 66.3568 132.445 66.2916 132.333 66.2496Z" fill="black"/>
</g>
<path d="M125.999 76.1115L126.268 80.4771L78.1626 183.117" stroke="white" stroke-width="0.832313" stroke-linecap="round" stroke-linejoin="round"/>
<path d="M79.5258 183.742L127.184 80.8985L127.388 72.3893" stroke="white" stroke-width="0.832313" stroke-linecap="round" stroke-linejoin="round"/>
<path d="M80.899 184.363L128.094 81.3107L128.921 68.2823" stroke="white" stroke-width="0.832313" stroke-linecap="round" stroke-linejoin="round"/>
<path d="M134.33 79.9019L130.853 82.5631L85.0062 186.236" stroke="white" stroke-width="0.832313" stroke-linecap="round" stroke-linejoin="round"/>
<path d="M83.6353 185.608L129.935 82.1487L136.214 76.4143" stroke="white" stroke-width="0.832313" stroke-linecap="round" stroke-linejoin="round"/>
<path d="M82.2698 184.99L129.017 81.7346L138.32 72.5497" stroke="white" stroke-width="0.832313" stroke-linecap="round" stroke-linejoin="round"/>
<path d="M204.13 34.5101L207.71 44.5101C199.244 54.5544 194.975 67.475 195.791 80.5857C196.606 93.6963 202.443 105.988 212.088 114.906C221.733 123.824 234.444 128.682 247.578 128.469C260.713 128.257 273.26 122.991 282.611 113.765C291.963 104.54 297.399 92.0657 297.79 78.9355C298.181 65.8053 293.496 53.0296 284.71 43.2643C275.924 33.4991 263.712 27.4957 250.614 26.5023C237.516 25.5088 224.538 29.6017 214.38 37.9301L204.13 34.5101Z" fill="#FAFAFA"/>
<path d="M204.13 34.5101L214.41 37.8602H214.32C216.99 35.6545 219.878 33.7278 222.94 32.1102C224.836 31.106 226.794 30.221 228.8 29.4602C229.86 29.0402 231 28.7702 232.14 28.4002C233.31 27.9892 234.506 27.6551 235.72 27.4002L239.53 26.6502L243.53 26.2601L244.53 26.1602H247.73C248.45 26.1602 249.18 26.1602 249.91 26.2102L252.12 26.4402C258.559 27.1063 264.814 28.9897 270.55 31.9902C276.941 35.3099 282.568 39.9286 287.07 45.5502L287.98 46.6402L288.78 47.8202L290.39 50.2001L290.79 50.7902L291.14 51.4302L291.83 52.7102C292.29 53.5602 292.76 54.4202 293.22 55.2902C293.68 56.1602 293.98 57.1001 294.37 58.0101L294.94 59.3902C295.15 59.8422 295.324 60.3104 295.46 60.7902L296.33 63.6702L296.77 65.1201C296.89 65.6101 296.97 66.1202 297.08 66.6102C297.27 67.6102 297.47 68.6102 297.66 69.6102C297.774 70.1135 297.847 70.6251 297.88 71.1402L298.02 72.6802C298.1 73.6802 298.25 74.7402 298.27 75.7802C298.29 76.8202 298.27 77.8702 298.27 78.9202C298.27 79.4501 298.27 79.9702 298.27 80.5002L298.1 82.0702L297.77 85.2402C297.58 86.2902 297.35 87.3302 297.14 88.3802L296.82 89.9602C296.71 90.4902 296.51 90.9601 296.37 91.5101L295.37 94.6201C295.02 95.6201 294.56 96.6201 294.15 97.6201C293.302 99.6464 292.327 101.617 291.23 103.52C290.68 104.52 290.02 105.38 289.43 106.32L288.5 107.71C288.2 108.18 287.82 108.58 287.5 109.03C286.79 109.89 286.09 110.76 285.38 111.64C284.67 112.52 283.81 113.25 283.03 114.06L281.84 115.27C281.43 115.65 280.98 115.99 280.55 116.36L277.96 118.52C277.05 119.17 276.12 119.78 275.2 120.41L273.81 121.35C273.35 121.65 272.81 121.89 272.36 122.16L269.44 123.73C268.44 124.23 267.44 124.6 266.44 125.04C264.436 125.889 262.374 126.594 260.27 127.15C259.237 127.462 258.185 127.706 257.12 127.88C256.06 128.08 255.01 128.31 253.96 128.48L250.78 128.77L249.2 128.91C248.67 128.91 248.14 128.91 247.61 128.91H244.47C243.42 128.91 242.39 128.72 241.36 128.63L239.82 128.46L239.05 128.38L238.29 128.22L235.29 127.61C234.294 127.405 233.312 127.137 232.35 126.81L229.47 125.92L226.7 124.77C225.778 124.417 224.88 124.007 224.01 123.54C222.262 122.681 220.572 121.709 218.95 120.63L216.55 119.04C215.8 118.46 215.07 117.85 214.34 117.26C208.748 112.69 204.191 106.984 200.97 100.52C199.514 97.5414 198.317 94.4434 197.39 91.2601C197.02 89.7001 196.58 88.1802 196.39 86.6402C196.27 85.8702 196.1 85.1202 196.01 84.3602L195.77 82.1002C195.285 76.5759 195.703 71.0095 197.01 65.6201C198.068 61.1947 199.719 56.9327 201.92 52.9501C203.599 49.942 205.554 47.0964 207.76 44.4501V44.5402L204.26 34.5402L207.93 44.5402V44.5901C205.758 47.2424 203.834 50.0876 202.18 53.0901C197.365 61.9541 195.278 72.0434 196.18 82.0901C196.26 82.8302 196.34 83.5702 196.42 84.3302C196.5 85.0902 196.68 85.8302 196.8 86.5901C197.02 88.1201 197.47 89.5901 197.8 91.1702C198.722 94.3277 199.917 97.3993 201.37 100.35C204.543 106.743 209.035 112.39 214.55 116.92C215.28 117.5 216 118.11 216.75 118.68L219.13 120.25C220.732 121.319 222.402 122.281 224.13 123.13C224.997 123.59 225.892 123.994 226.81 124.34L229.55 125.48L232.41 126.36C233.361 126.686 234.334 126.946 235.32 127.14L238.32 127.75L239.07 127.91L239.84 127.99L241.36 128.15C242.36 128.24 243.41 128.41 244.44 128.43H247.56C248.08 128.43 248.56 128.43 249.12 128.43L250.69 128.28L253.84 127.99C254.84 127.82 255.92 127.59 256.96 127.4C258.014 127.226 259.056 126.986 260.08 126.68C262.166 126.123 264.211 125.421 266.2 124.58C267.2 124.15 268.2 123.78 269.2 123.29L272.09 121.73C272.57 121.46 273.09 121.22 273.53 120.92L274.9 120C275.81 119.37 276.74 118.77 277.64 118.12L280.2 115.99C280.62 115.63 281.07 115.29 281.48 114.9L282.65 113.71C283.43 112.91 284.24 112.14 284.98 111.31L287.07 108.73C287.426 108.311 287.76 107.874 288.07 107.42L288.98 106.04C289.58 105.12 290.23 104.23 290.77 103.28C291.856 101.395 292.824 99.4447 293.67 97.4402C294.07 96.4402 294.53 95.4402 294.88 94.4402C295.23 93.4402 295.51 92.4402 295.82 91.3602C295.97 90.8502 296.16 90.3602 296.27 89.8302L296.59 88.2702C296.8 87.2202 297.03 86.1902 297.21 85.1502C297.39 84.1102 297.44 83.0602 297.55 82.0202L297.71 80.4602C297.71 79.9402 297.71 79.4602 297.71 78.9002C297.71 77.9002 297.71 76.8202 297.71 75.7902C297.71 74.7602 297.55 73.7902 297.47 72.7202L297.33 71.1902C297.306 70.6815 297.235 70.1761 297.12 69.6802C296.93 68.6802 296.73 67.6802 296.54 66.6802C296.44 66.1902 296.36 65.6801 296.24 65.2001L295.81 63.7601C295.52 62.8101 295.23 61.8602 294.95 60.9102C294.813 60.4342 294.639 59.9695 294.43 59.5202L293.87 58.1602C293.49 57.2502 293.11 56.3501 292.74 55.4501L291.36 52.9002L290.68 51.6302L290.34 51.0002L289.94 50.4102L288.34 48.0502L287.55 46.8802L286.66 45.8002C282.45 40.5065 277.23 36.1013 271.305 32.8398C265.379 29.5783 258.865 27.5254 252.14 26.8002L249.95 26.5602C249.22 26.5002 248.49 26.5602 247.78 26.5602H245.65H244.65L243.65 26.6602L239.65 27.0302L235.85 27.7601C234.649 28.0013 233.463 28.3152 232.3 28.7001C231.16 29.0701 230.02 29.3401 228.97 29.7001C226.967 30.4424 225.013 31.3108 223.12 32.3002C220.066 33.8953 217.182 35.795 214.51 37.9702H214.46L204.13 34.5101Z" fill="#263238"/>
<path d="M252.55 50.6301L232.02 52.5601L223.68 54.9201C220.111 55.93 216.845 57.8015 214.17 60.3701L187.29 86.1701L182.43 46.0801L169 47.2501L171.24 98.8401C172.23 101.946 174.182 104.656 176.814 106.579C179.446 108.502 182.62 109.539 185.88 109.54C189.92 109.485 193.786 107.889 196.69 105.08L215.83 87.0801L213.93 110.82L212.16 114.82C224.75 127.1 244.1 131.2 259.24 126.99C259.24 126.99 259.86 124.83 262.82 105.93C265.22 90.6401 266.43 57.3401 266.43 57.3401L252.55 50.6301Z" fill="#32BAB0"/>
<path d="M286.45 109.62C286.45 109.62 280.34 76.0701 278.11 68.8501C275.6 60.7101 265.21 56.8501 265.21 56.8501L261.93 86.9701L271.2 122.57C271.2 122.57 281.98 116.16 286.45 109.62Z" fill="#32BAB0"/>
<path d="M214.04 111.19C213.92 111.19 214.38 102.64 215.04 92.1201C215.7 81.6001 216.43 73.0801 216.55 73.0801C216.67 73.0801 216.21 81.6301 215.55 92.1601C214.89 102.69 214.16 111.2 214.04 111.19Z" fill="#263238"/>
<path d="M247.74 89.6102C247.705 89.7472 247.658 89.881 247.6 90.0102L247.13 91.1302C246.888 91.721 246.614 92.2984 246.31 92.8602C245.95 93.5202 245.58 94.2902 245.07 95.0802L244.29 96.3502C244.02 96.7802 243.69 97.2102 243.37 97.6602C242.75 98.5902 241.99 99.4902 241.2 100.46C239.425 102.51 237.47 104.397 235.36 106.1C233.223 107.767 230.945 109.242 228.55 110.51C227.42 111.06 226.37 111.6 225.33 111.99C224.81 112.2 224.33 112.42 223.84 112.59L222.43 113.06C221.54 113.38 220.71 113.57 219.99 113.76C219.372 113.935 218.744 114.075 218.11 114.18L216.91 114.38C216.771 114.402 216.629 114.402 216.49 114.38C216.622 114.322 216.759 114.279 216.9 114.25L218.07 113.97C218.695 113.84 219.312 113.676 219.92 113.48C220.63 113.27 221.46 113.06 222.33 112.72L223.72 112.23C224.2 112.05 224.72 111.83 225.19 111.62C226.19 111.21 227.25 110.62 228.36 110.11C233.114 107.594 237.362 104.221 240.89 100.16C241.68 99.1602 242.45 98.3102 243.08 97.4102C243.4 96.9602 243.73 96.5402 244.01 96.1202L244.8 94.8802C245.33 94.1102 245.71 93.3502 246.09 92.7002C246.47 92.0502 246.75 91.4902 246.98 91.0102L247.52 89.9302C247.65 89.7302 247.72 89.6002 247.74 89.6102Z" fill="#263238"/>
<g opacity="0.2">
<path opacity="0.2" d="M218.99 113.96C218.264 113.675 217.669 113.13 217.32 112.433C216.971 111.735 216.893 110.932 217.1 110.18C217.338 109.437 217.736 108.754 218.264 108.179C218.792 107.604 219.439 107.15 220.16 106.85C221.599 106.251 223.097 105.805 224.63 105.52C231.235 103.899 237.274 100.512 242.1 95.7201C242.55 95.2801 243.18 94.7901 243.73 95.0901C244.47 95.4901 243.97 96.6001 243.46 97.2601C237.251 105.457 228.485 111.348 218.55 114" fill="black"/>
</g>
<path d="M266.43 104.26C266.291 103.979 266.184 103.684 266.11 103.38C265.94 102.81 265.7 101.99 265.43 100.96C264.87 98.9001 264.16 96.0501 263.43 92.8801C262.7 89.7101 262.15 86.8301 261.77 84.7301C261.58 83.7301 261.43 82.8401 261.35 82.2501C261.279 81.9453 261.249 81.6327 261.26 81.3201C261.38 81.6061 261.467 81.9046 261.52 82.2101C261.67 82.8901 261.86 83.7101 262.07 84.6701C262.56 86.8501 263.18 89.6701 263.87 92.7801L265.72 100.88C265.94 101.88 266.12 102.67 266.27 103.34C266.359 103.639 266.413 103.948 266.43 104.26Z" fill="#263238"/>
<path d="M171.37 51.0801C171.102 50.4478 170.97 49.7667 170.98 49.0801C170.844 48.3983 170.861 47.6946 171.03 47.0201C171.292 47.654 171.425 48.3341 171.42 49.0201C171.547 49.7028 171.529 50.4044 171.37 51.0801Z" fill="#263238"/>
<path d="M175.3 51.2301C175.048 50.5424 174.936 49.8116 174.97 49.0801C174.863 48.3533 174.901 47.6126 175.08 46.9001C175.446 48.3137 175.52 49.7868 175.3 51.2301Z" fill="#263238"/>
<path d="M179.21 50.9801C178.944 50.2089 178.822 49.3955 178.85 48.5802C178.73 47.7749 178.761 46.9543 178.94 46.1602C179.316 47.738 179.407 49.3702 179.21 50.9801Z" fill="#263238"/>
<path d="M186.76 93.1401C186.66 91.9522 186.707 90.7565 186.9 89.5801C186.945 88.3929 187.143 87.2164 187.49 86.0801C187.534 88.4543 187.289 90.8251 186.76 93.1401Z" fill="#263238"/>
<path d="M273.55 61.8602C273.55 61.9502 272.47 61.8602 270.8 62.2302C268.616 62.669 266.585 63.6701 264.906 65.1345C263.228 66.5989 261.961 68.476 261.23 70.5802C260.65 72.1902 260.57 73.2702 260.49 73.2602C260.449 73.0085 260.449 72.7518 260.49 72.5002C260.569 71.8213 260.713 71.1516 260.92 70.5002C261.597 68.3019 262.874 66.336 264.607 64.8238C266.34 63.3115 268.46 62.3129 270.73 61.9402C271.41 61.8252 272.1 61.7783 272.79 61.8002C273.045 61.7802 273.301 61.8005 273.55 61.8602Z" fill="#263238"/>
<path d="M279.9 79.3201C279.08 79.7577 278.224 80.1224 277.34 80.4101C275.73 81.0201 273.49 81.8001 270.99 82.5801C268.49 83.3601 266.2 83.9901 264.53 84.4101C263.641 84.6748 262.731 84.8622 261.81 84.9701C262.668 84.617 263.55 84.3262 264.45 84.1001L270.86 82.1601L277.23 80.1101C278.099 79.7808 278.992 79.5167 279.9 79.3201Z" fill="#FAFAFA"/>
<path d="M286.45 108.92C285.582 109.238 284.689 109.482 283.78 109.65C282.13 110.04 279.78 110.55 277.3 111.08C274.82 111.61 272.45 112.08 270.78 112.39C269.882 112.602 268.97 112.742 268.05 112.81C268.916 112.5 269.806 112.259 270.71 112.09C272.37 111.69 274.71 111.18 277.21 110.65C279.71 110.12 282.05 109.65 283.72 109.34C284.618 109.13 285.531 108.99 286.45 108.92Z" fill="#FAFAFA"/>
<path d="M225.71 111.14C225.097 110.957 224.507 110.706 223.95 110.39L219.79 108.39L215.61 106.39C215.016 106.149 214.446 105.851 213.91 105.5C214.539 105.623 215.151 105.824 215.73 106.1C216.84 106.54 218.34 107.18 219.98 107.96C221.62 108.74 223.06 109.49 224.09 110.07C224.673 110.356 225.218 110.716 225.71 111.14Z" fill="#FAFAFA"/>
<path d="M259.94 116.95C259.594 116.86 259.258 116.733 258.94 116.57L256.26 115.4C254 114.4 250.88 113.07 247.39 111.68C243.9 110.29 240.71 109.1 238.39 108.26L235.65 107.26C235.302 107.157 234.967 107.016 234.65 106.84C234.991 106.888 235.326 106.972 235.65 107.09C236.31 107.28 237.26 107.58 238.44 107.96C240.78 108.73 244 109.87 247.44 111.27C250.88 112.67 254.05 114.06 256.28 115.12C257.39 115.65 258.28 116.12 258.9 116.41C259.267 116.549 259.616 116.73 259.94 116.95Z" fill="#FAFAFA"/>
<path d="M262.61 92.7801C262.451 92.8025 262.289 92.8025 262.13 92.7801L260.77 92.5802L255.77 91.7702C251.56 91.0802 245.77 90.1502 239.31 89.2102C232.85 88.2702 227.03 87.4701 222.8 86.9201L217.8 86.2601L216.44 86.0601C216.279 86.0494 216.121 86.0157 215.97 85.9602C216.13 85.9448 216.29 85.9448 216.45 85.9602L217.82 86.0802C219.01 86.1802 220.72 86.3602 222.82 86.6002C227.07 87.0702 232.92 87.8101 239.36 88.7601C245.8 89.7101 251.62 90.6901 255.81 91.4501C257.91 91.8401 259.61 92.1602 260.81 92.4002L262.15 92.6902L262.61 92.7801Z" fill="#FAFAFA"/>
<path d="M260.68 67.2602C260.68 67.3802 251.46 66.1102 240.13 64.4102C228.8 62.7102 219.62 61.2502 219.64 61.1302C219.66 61.0102 228.86 62.2802 240.19 63.9802C251.52 65.6802 260.7 67.1402 260.68 67.2602Z" fill="#FAFAFA"/>
<path d="M212.48 89.5801C211.976 88.6935 211.538 87.771 211.17 86.8201L208.17 80.0901C207 77.5301 205.95 75.2101 205.17 73.3901C204.704 72.4832 204.303 71.5441 203.97 70.5801C204.147 70.7893 204.295 71.0214 204.41 71.2701C204.66 71.7301 205.02 72.4101 205.41 73.2701C206.27 74.9501 207.41 77.2701 208.58 79.9301C209.75 82.5901 210.77 84.9301 211.46 86.7201C211.8 87.6001 212.07 88.3101 212.25 88.8101C212.359 89.0559 212.436 89.3147 212.48 89.5801Z" fill="#FAFAFA"/>
<path d="M194.16 107.51C194.04 107.51 192.86 102.4 191.54 96.0402C190.22 89.6802 189.23 84.5002 189.35 84.4802C189.47 84.4602 190.65 89.5902 191.97 95.9502C193.29 102.31 194.28 107.49 194.16 107.51Z" fill="#FAFAFA"/>
<path d="M186.55 79.6101C183.919 80.3936 181.249 81.0378 178.55 81.5401C175.913 82.1976 173.243 82.7117 170.55 83.0801C173.18 82.2936 175.851 81.6494 178.55 81.1501C181.187 80.4926 183.858 79.9785 186.55 79.6101Z" fill="#FAFAFA"/>
<path d="M183.92 56.3501C183.239 56.5813 182.535 56.7355 181.82 56.8101C180.52 57.0301 178.71 57.2901 176.7 57.5201C174.69 57.7501 172.87 57.9001 171.55 57.9801C170.839 58.0549 170.121 58.0549 169.41 57.9801C170.1 57.7981 170.807 57.6875 171.52 57.6501L176.65 57.0601L181.78 56.4801C182.487 56.3684 183.204 56.3248 183.92 56.3501Z" fill="#FAFAFA"/>
<path d="M190.83 15.9501C191.08 16.4301 197.46 49.2601 197.46 49.2601L182.4 49.9601L176.55 21.7301L190.83 15.9501Z" fill="#455A64"/>
<path d="M197.46 49.2602L199.19 48.5302L192.67 16.1702L190.63 16.0402L197.46 49.2602Z" fill="#263238"/>
<path d="M184.78 23.1301C184.799 23.2832 184.771 23.4383 184.702 23.576C184.632 23.7136 184.524 23.8275 184.389 23.9034C184.255 23.9792 184.101 24.0135 183.948 24.002C183.794 23.9905 183.647 23.9337 183.525 23.8388C183.404 23.7438 183.313 23.615 183.265 23.4685C183.217 23.3221 183.213 23.1646 183.254 23.016C183.295 22.8674 183.379 22.7343 183.496 22.6336C183.613 22.5329 183.757 22.469 183.91 22.4501C184.012 22.4375 184.115 22.4451 184.214 22.4725C184.313 22.4999 184.405 22.5465 184.486 22.6097C184.567 22.6728 184.634 22.7513 184.685 22.8406C184.735 22.9299 184.768 23.0283 184.78 23.1301Z" fill="#263238"/>
<path d="M181.67 46.1701L181.45 41.8701L187.88 39.2201L185.37 33.2701C185.082 32.6131 184.66 32.0231 184.132 31.5374C183.604 31.0518 182.981 30.6811 182.303 30.4489C181.624 30.2167 180.904 30.128 180.189 30.1885C179.475 30.2489 178.78 30.4572 178.15 30.8001C177.29 31.2601 176.38 31.7501 175.57 32.2001C174.658 32.6896 173.86 33.367 173.229 34.1875C172.599 35.008 172.149 35.953 171.91 36.9601C171.213 40.4258 170.713 43.928 170.41 47.4501" fill="#EB996E"/>
<path d="M256.21 8.01013C258.67 9.50013 259.21 12.7801 259.44 15.6401C259.67 18.5001 260.02 21.7501 262.32 23.4701C264.22 24.8901 267.32 25.1401 268.03 27.3801C268.216 27.9096 268.232 28.4841 268.075 29.023C267.919 29.5619 267.597 30.0384 267.157 30.3856C266.716 30.7329 266.177 30.9335 265.617 30.9594C265.056 30.9853 264.501 30.8352 264.03 30.5301C264.526 31.3741 264.744 32.3528 264.652 33.3275C264.561 34.3022 264.165 35.2233 263.52 35.9601C262.13 37.3301 259.37 37.1001 258.52 35.3201C258.647 35.6168 258.712 35.9361 258.711 36.2588C258.71 36.5814 258.643 36.9004 258.515 37.1963C258.386 37.4922 258.199 37.7588 257.964 37.9796C257.728 38.2005 257.451 38.371 257.147 38.4808C256.844 38.5905 256.521 38.6372 256.199 38.6179C255.877 38.5986 255.563 38.5138 255.274 38.3686C254.986 38.2235 254.731 38.021 254.524 37.7736C254.317 37.5263 254.162 37.2393 254.07 36.9301" fill="#263238"/>
<path d="M226.1 32.5402C226.024 32.9132 225.874 33.2671 225.658 33.5811C225.443 33.8951 225.167 34.1628 224.847 34.3684C224.526 34.574 224.168 34.7133 223.793 34.7781C223.418 34.8429 223.033 34.8319 222.662 34.7457C222.292 34.6595 221.942 34.4999 221.634 34.2763C221.326 34.0527 221.065 33.7696 220.868 33.4438C220.672 33.1179 220.542 32.756 220.487 32.3792C220.433 32.0024 220.454 31.6185 220.55 31.2502C220.86 30.0902 221.89 29.1202 221.8 27.9302C221.7 26.4802 220.08 25.7102 218.68 25.3102C217.28 24.9102 215.68 24.3602 215.27 22.9602C214.86 21.5602 215.95 20.3302 216.83 19.2402C217.71 18.1502 218.47 16.5602 217.63 15.4402C217.2 14.8702 216.47 14.6202 215.94 14.1402C215.408 13.5502 215.12 12.7806 215.133 11.9864C215.146 11.1922 215.459 10.4324 216.01 9.86018C216.583 9.31165 217.264 8.8887 218.009 8.61835C218.755 8.34801 219.549 8.23624 220.34 8.29018C221.92 8.40019 223.493 8.60052 225.05 8.89017C227.652 9.19393 230.288 8.95439 232.793 8.18668C235.297 7.41898 237.615 6.13984 239.6 4.43018" fill="#263238"/>
<path d="M243.55 62.5801C244.952 62.6706 246.358 62.4793 247.685 62.0175C249.012 61.5557 250.233 60.8327 251.276 59.8913C252.319 58.9499 253.163 57.8091 253.758 56.5362C254.353 55.2633 254.687 53.8841 254.74 52.4801L256.02 19.1601C256.152 17.1426 255.878 15.119 255.214 13.2094C254.55 11.2998 253.509 9.54303 252.153 8.04335C250.796 6.54367 249.153 5.33159 247.32 4.47901C245.486 3.62643 243.501 3.15072 241.48 3.08008H240.69C236.87 3.16122 233.22 4.67739 230.466 7.32703C227.713 9.97668 226.058 13.5656 225.83 17.3801C225.4 24.7401 225.02 32.8801 225.15 36.8201C225.43 44.9801 233.62 46.0801 233.62 46.0801L233.68 52.1401C233.695 54.8073 234.723 57.3691 236.555 59.3073C238.388 61.2455 240.888 62.4153 243.55 62.5801Z" fill="#EB996E"/>
<path d="M233.6 45.9901C237.372 45.9778 241.055 44.8429 244.18 42.7301C244.18 42.7301 241.79 48.6601 233.63 48.1001L233.6 45.9901Z" fill="#AA6550"/>
<path d="M228.8 22.5701C228.803 22.8752 228.924 23.1673 229.139 23.384C229.354 23.6007 229.645 23.7249 229.95 23.7301C230.099 23.7381 230.248 23.7165 230.388 23.6663C230.528 23.6161 230.657 23.5385 230.767 23.4379C230.877 23.3373 230.965 23.2159 231.028 23.0806C231.09 22.9453 231.125 22.799 231.13 22.6501C231.127 22.3459 231.005 22.0549 230.79 21.8398C230.575 21.6247 230.284 21.5027 229.98 21.5001C229.832 21.492 229.684 21.5134 229.544 21.5629C229.405 21.6125 229.276 21.6892 229.167 21.7887C229.057 21.8882 228.968 22.0085 228.905 22.1427C228.842 22.2768 228.806 22.4221 228.8 22.5701Z" fill="#263238"/>
<path d="M227.67 21.3702C227.82 21.5202 228.67 20.8502 229.95 20.8202C231.23 20.7902 232.13 21.4102 232.26 21.2502C232.39 21.0902 232.18 20.9102 231.77 20.6302C231.219 20.2665 230.57 20.0814 229.91 20.1002C229.259 20.1109 228.629 20.328 228.11 20.7202C227.73 21.0802 227.6 21.3102 227.67 21.3702Z" fill="#263238"/>
<path d="M241.28 22.5701C241.28 22.876 241.401 23.1695 241.616 23.3868C241.832 23.604 242.124 23.7274 242.43 23.73C242.579 23.7395 242.728 23.7188 242.868 23.669C243.008 23.6193 243.137 23.5415 243.246 23.4406C243.356 23.3396 243.443 23.2175 243.504 23.0816C243.565 22.9457 243.598 22.7989 243.6 22.6501C243.6 22.3468 243.48 22.0558 243.267 21.8404C243.053 21.625 242.763 21.5027 242.46 21.5001C242.312 21.4906 242.163 21.511 242.023 21.56C241.883 21.6091 241.754 21.6858 241.644 21.7855C241.534 21.8853 241.445 22.0062 241.382 22.1409C241.32 22.2757 241.285 22.4216 241.28 22.5701Z" fill="#263238"/>
<path d="M240.01 21.3401C240.16 21.4901 241.01 20.8201 242.28 20.7901C243.55 20.7601 244.47 21.3701 244.6 21.2201C244.73 21.0701 244.51 20.8801 244.1 20.5901C243.55 20.2257 242.899 20.0438 242.24 20.0701C241.589 20.0808 240.959 20.298 240.44 20.6901C240.06 20.9901 239.94 21.2701 240.01 21.3401Z" fill="#263238"/>
<path d="M235.66 30.7402C234.993 30.5487 234.304 30.4412 233.61 30.4202C233.29 30.4202 232.99 30.3302 232.93 30.1102C232.894 29.7815 232.961 29.4498 233.12 29.1602C233.41 28.3802 233.7 27.5601 234.02 26.7001C234.865 24.6199 235.534 22.4724 236.02 20.2802C235.022 22.2937 234.186 24.3836 233.52 26.5302C233.23 27.3902 232.94 28.2102 232.67 29.0002C232.481 29.3917 232.431 29.8365 232.53 30.2601C232.578 30.3736 232.652 30.4743 232.746 30.5542C232.839 30.634 232.95 30.6909 233.07 30.7202C233.248 30.7577 233.429 30.7778 233.61 30.7802C234.292 30.8504 234.981 30.837 235.66 30.7402Z" fill="#263238"/>
<path d="M239.37 31.5301C239.16 31.5301 239.19 32.8801 238.05 33.8701C236.91 34.8601 235.45 34.7401 235.44 34.9401C235.43 35.1401 235.77 35.1901 236.38 35.2001C237.18 35.1894 237.951 34.8994 238.56 34.3801C238.851 34.1295 239.089 33.8237 239.26 33.4804C239.432 33.1371 239.534 32.7631 239.56 32.3801C239.62 31.8501 239.46 31.5201 239.37 31.5301Z" fill="#263238"/>
<path d="M239.55 16.4301C239.68 16.7701 240.93 16.5801 242.4 16.7301C243.87 16.8801 245.08 17.2501 245.26 16.9401C245.35 16.7901 245.13 16.4701 244.65 16.1501C244.001 15.7546 243.268 15.5182 242.51 15.4601C241.756 15.3841 240.995 15.4904 240.29 15.7701C239.79 16.0001 239.55 16.2701 239.55 16.4301Z" fill="#263238"/>
<path d="M228.06 17.7301C228.28 18.0101 229.14 17.7301 230.18 17.6601C231.22 17.5901 232.1 17.8101 232.3 17.5101C232.5 17.2101 232.24 17.0801 231.85 16.8201C231.329 16.4985 230.721 16.3481 230.11 16.3901C229.501 16.418 228.915 16.6308 228.43 17.0001C228.07 17.3001 227.96 17.6001 228.06 17.7301Z" fill="#263238"/>
<path d="M246.94 10.4001H246.99C248.31 11.3997 249.197 12.8667 249.47 14.5001V14.6701C249.84 16.9901 249.84 19.3601 250.23 21.6701C250.503 24.0215 251.56 26.2125 253.23 27.8901C253.95 28.5401 255.23 28.9601 255.78 28.1801C255.965 27.8548 256.055 27.4841 256.04 27.1101C256.36 21.4801 257.78 16.4601 257.65 10.5801C257.633 9.79098 257.429 9.01715 257.055 8.32192C256.682 7.62668 256.149 7.0298 255.5 6.58009C254.25 5.73009 252.73 4.84009 251.38 5.52009C250.03 6.20009 248.31 8.80009 247.27 9.90009" fill="#263238"/>
<path d="M253.33 22.9101C253.47 22.8501 258.9 21.1301 258.84 26.7101C258.78 32.2901 253.19 31.0901 253.18 30.9301C253.17 30.7701 253.33 22.9101 253.33 22.9101Z" fill="#EB996E"/>
<path d="M254.91 28.8301C254.91 28.8301 255.01 28.9001 255.17 28.9701C255.405 29.0621 255.665 29.0621 255.9 28.9701C256.263 28.7447 256.558 28.4266 256.757 28.0487C256.956 27.6707 257.05 27.2466 257.03 26.8202C257.05 26.3398 256.961 25.8612 256.77 25.4201C256.721 25.2455 256.63 25.0856 256.504 24.9547C256.379 24.8239 256.223 24.7261 256.05 24.6701C255.938 24.6395 255.819 24.6487 255.713 24.6961C255.608 24.7436 255.522 24.8263 255.47 24.9302C255.4 25.0902 255.47 25.2002 255.4 25.2102C255.33 25.2202 255.28 25.1102 255.33 24.8802C255.361 24.7418 255.439 24.6182 255.55 24.5301C255.707 24.4202 255.9 24.3738 256.09 24.4002C256.317 24.4469 256.529 24.5516 256.704 24.704C256.879 24.8564 257.012 25.0514 257.09 25.2702C257.322 25.7564 257.432 26.2919 257.41 26.8301C257.433 27.3275 257.308 27.8205 257.052 28.2474C256.796 28.6743 256.42 29.0162 255.97 29.2301C255.82 29.2753 255.661 29.2843 255.506 29.2565C255.351 29.2287 255.205 29.1649 255.08 29.0702C254.92 28.9602 254.89 28.8401 254.91 28.8301Z" fill="#AA6550"/>
<path d="M251.6 6.43012C252.93 4.17012 249.1 1.05012 246.32 0.240123C243.54 -0.569877 239.95 0.850117 237.23 1.82012C235.52 2.43012 233.81 3.27012 231.99 3.23012C230.769 3.13582 229.569 2.85943 228.43 2.41012C227.293 1.95551 226.074 1.74101 224.85 1.78012C224.238 1.80622 223.644 1.99879 223.133 2.3371C222.622 2.67541 222.213 3.14666 221.95 3.70012C221.84 3.9807 221.792 4.28154 221.808 4.58239C221.824 4.88325 221.905 5.17715 222.044 5.44432C222.183 5.7115 222.378 5.94574 222.615 6.1313C222.853 6.31687 223.127 6.44945 223.42 6.52012C223.027 6.31746 222.591 6.21281 222.149 6.2151C221.707 6.21739 221.273 6.32654 220.882 6.53326C220.491 6.73997 220.157 7.03811 219.906 7.40224C219.656 7.76637 219.497 8.18568 219.444 8.6244C219.39 9.06312 219.444 9.50823 219.6 9.92176C219.756 10.3353 220.009 10.705 220.339 10.9993C220.669 11.2935 221.065 11.5037 221.493 11.6118C221.922 11.7199 222.37 11.7228 222.8 11.6201C222 11.0301 220.8 12.0501 220.92 13.0401C221.043 13.5303 221.292 13.9796 221.643 14.3429C221.994 14.7062 222.434 14.9708 222.92 15.1101C225.353 15.9378 228.006 15.8381 230.37 14.8301C232.76 13.9701 234.97 12.6601 237.37 11.7401C239.77 10.8201 243.71 9.17012 246.12 9.96012C247.9 10.5401 249.12 12.6401 250.12 12.1501C250.585 11.889 250.982 11.5221 251.279 11.0791C251.576 10.6361 251.765 10.1295 251.83 9.60012C251.945 8.54074 251.884 7.46967 251.65 6.43012" fill="#263238"/>
<path d="M226.32 5.63016C226.089 5.54895 225.841 5.52563 225.599 5.56224C225.357 5.59885 225.127 5.69427 224.93 5.84016C224.365 6.21182 223.948 6.76839 223.749 7.41434C223.55 8.06029 223.582 8.75533 223.84 9.38016C224.54 10.9902 226.67 11.9802 228.84 11.7802C231.181 11.466 233.4 10.5494 235.28 9.12016C237.104 7.73724 239.06 6.53807 241.12 5.54015C242.026 5.1559 242.989 4.9228 243.97 4.85015C244.822 4.81499 245.672 4.93703 246.48 5.21015C247.669 5.58222 248.686 6.36573 249.35 7.42015C249.556 7.8319 249.736 8.25605 249.89 8.69016C249.91 8.57099 249.91 8.44933 249.89 8.33016C249.838 7.9804 249.726 7.64215 249.56 7.33016C248.926 6.16956 247.881 5.28836 246.63 4.86015C245.784 4.5418 244.884 4.39231 243.98 4.42015C242.949 4.47816 241.935 4.70799 240.98 5.10015C238.873 6.07978 236.879 7.28339 235.03 8.69016C233.22 10.0693 231.091 10.9673 228.84 11.3002C226.84 11.5102 224.84 10.6202 224.21 9.22016C224.061 8.90942 223.979 8.57095 223.968 8.2265C223.958 7.88206 224.02 7.53926 224.15 7.22016C224.331 6.7269 224.65 6.29635 225.07 5.98016C225.446 5.74894 225.879 5.62769 226.32 5.63016Z" fill="#455A64"/>
<path d="M241.55 2.48016C241.55 2.56016 242.29 2.31016 243.48 2.25016C245.016 2.15244 246.547 2.50424 247.886 3.26256C249.225 4.02087 250.314 5.15286 251.02 6.52016C251.57 7.52016 251.73 8.30016 251.81 8.28016C251.827 7.60783 251.668 6.94275 251.35 6.35016C250.691 4.85051 249.565 3.60451 248.139 2.7987C246.713 1.99289 245.064 1.67063 243.44 1.88016C242.768 1.91124 242.117 2.11814 241.55 2.48016Z" fill="#455A64"/>
<path d="M256.65 16.6001C256.953 16.1517 257.11 15.6209 257.1 15.0801C257.207 13.7689 256.857 12.4611 256.11 11.3785C255.363 10.2958 254.264 9.50496 253 9.14006C252.498 8.93858 251.946 8.89668 251.42 9.02006C251.42 9.10006 252.01 9.15006 252.88 9.49006C254.013 9.91763 254.989 10.681 255.677 11.6781C256.365 12.6752 256.733 13.8586 256.73 15.0701C256.74 16.0001 256.55 16.5801 256.65 16.6001Z" fill="#455A64"/>
<path d="M209.49 205.405L202.822 257.613L168.413 266.664L168.974 268.797L271.465 241.838L279.458 187L209.49 205.405Z" fill="#263238"/>
<path d="M245.99 225.592C245.925 228.148 244.307 230.178 242.377 230.132C240.448 230.086 238.936 227.964 239.002 225.408C239.067 222.852 240.69 220.82 242.62 220.866C244.55 220.912 246.061 223.034 245.99 225.592Z" fill="#FAFAFA"/>
<path d="M134.1 201.047C133.427 201.047 132.773 201.265 132.235 201.669C131.697 202.074 131.306 202.642 131.12 203.289C130.935 203.935 130.964 204.625 131.205 205.253C131.446 205.881 131.885 206.413 132.455 206.77L140.779 215.094C141.067 215.381 141.409 215.609 141.784 215.765C142.16 215.92 142.563 216 142.97 216C143.376 216 143.779 215.92 144.155 215.764C144.531 215.608 144.872 215.38 145.16 215.092C145.447 214.804 145.675 214.463 145.831 214.087C145.986 213.711 146.066 213.308 146.066 212.902C146.066 212.495 145.986 212.092 145.83 211.717C145.674 211.341 145.446 210.999 145.158 210.712L141.687 207.244H165.066C165.888 207.244 166.675 206.917 167.256 206.337C167.837 205.756 168.163 204.968 168.163 204.147C168.163 203.326 167.837 202.538 167.256 201.957C166.675 201.377 165.888 201.05 165.066 201.05H134.1V201.047Z" fill="#CBF9F5"/>
<path d="M177.496 194.953C178.169 194.954 178.824 194.735 179.361 194.331C179.899 193.926 180.29 193.358 180.476 192.711C180.662 192.065 180.632 191.375 180.391 190.747C180.15 190.119 179.711 189.587 179.141 189.23L170.817 180.906C170.236 180.326 169.448 180 168.627 180C167.805 180 167.017 180.327 166.437 180.908C165.856 181.489 165.53 182.277 165.53 183.098C165.531 183.92 165.857 184.708 166.438 185.288L169.91 188.756H146.53C145.709 188.756 144.921 189.083 144.34 189.663C143.759 190.244 143.433 191.032 143.433 191.853C143.433 192.674 143.759 193.462 144.34 194.043C144.921 194.624 145.709 194.95 146.53 194.95H177.496V194.953Z" fill="#CBF9F5"/>
</svg>
