<svg width="184" height="99" viewBox="0 0 184 99" fill="none" xmlns="http://www.w3.org/2000/svg">
<path d="M13.0705 87.2194C16.5076 87.2194 19.7374 85.8861 22.1476 83.4762C22.1476 83.4762 22.1476 83.4762 22.1476 83.4762M13.0705 87.2194L26.1409 74.399C26.1409 77.9019 24.7817 81.1957 22.3244 83.6529M13.0705 87.2194C9.63333 87.2194 6.40327 85.8862 3.99327 83.4762M13.0705 87.2194L3.99327 83.4762M22.1476 83.4762L22.3244 83.6529M22.1476 83.4762C24.5576 81.0662 25.8909 77.8361 25.8909 74.399V58.2326M22.1476 83.4762L25.8909 58.2326M22.3244 83.6529C19.8669 86.1101 16.5733 87.4694 13.0705 87.4694C9.56756 87.4694 6.27374 86.1102 3.81648 83.6529L3.99327 83.4762M22.3244 83.6529L25.8909 58.2326M25.8909 58.2326H18.5486V74.399C18.5486 77.4125 16.084 79.8772 13.0705 79.8772C10.0569 79.8772 7.59227 77.4125 7.59227 74.399V58.2326H0.25V74.399C0.25 77.8361 1.58335 81.0659 3.99326 83.4762C3.99326 83.4762 3.99327 83.4762 3.99327 83.4762" fill="#E9EBEB" stroke="#32BAB0" stroke-width="0.5"/>
<path d="M39.6487 85.7434V97.1076L32.3064 94.6602V72.6206C32.3064 70.6179 32.7167 68.7164 33.4371 66.9142C34.2104 65.1626 35.2386 63.5709 36.5709 62.2381C37.9604 60.9004 39.5033 59.8719 41.2531 59.0997C43.0485 58.3305 45.0009 57.9702 46.9568 57.9702C48.9649 57.9702 50.8649 58.3303 52.6605 59.0997C54.4097 59.8715 55.952 60.8996 57.341 62.2364C58.6778 63.6254 59.7059 65.1678 60.4777 66.9169C61.2471 68.7126 61.6072 70.6128 61.6072 72.6206C61.6072 74.5768 61.247 76.5291 60.4778 78.3244C59.7051 80.0752 58.6766 81.617 57.3411 82.9525C55.9523 84.3413 54.4115 85.3682 52.665 86.0874L52.665 86.0873L52.6617 86.0887C50.8621 86.86 48.9087 87.271 46.9568 87.271C45.0047 87.271 43.0515 86.86 41.2519 86.0887L41.252 86.0885L41.2412 86.0844C40.8374 85.933 40.4311 85.7301 40.0105 85.5198L39.6487 85.3389V85.7434ZM39.649 72.6203C39.649 76.6273 42.9502 79.9284 46.9571 79.9284C50.9641 79.9284 54.2652 76.6273 54.2652 72.6203C54.2652 68.6133 50.9641 65.3122 46.9571 65.3122C42.9501 65.3122 39.649 68.6133 39.649 72.6203Z" fill="#E9EBEB" stroke="#32BAB0" stroke-width="0.5"/>
<path d="M69.5819 94.202L74.6745 88.8647C75.9531 90.0056 77.6123 90.6462 79.3688 90.6462C82.5671 90.6462 85.3316 88.4785 86.1452 85.4951L86.2924 84.9556L85.7922 85.2057C83.8415 86.1811 81.6317 86.6955 79.3688 86.6955C75.513 86.6955 71.8649 85.205 69.1416 82.4817L68.9648 82.6585L69.1416 82.4817C66.4176 79.7579 64.9277 76.1616 64.9277 72.3067C64.9277 68.4519 66.4175 64.8558 69.1416 62.1318C71.8651 59.4085 75.513 57.918 79.3688 57.918C83.1466 57.918 86.7716 59.3884 89.4894 62.0777L89.5438 62.1321C92.2678 64.8559 93.7576 68.4522 93.7576 72.307V83.5999C93.7576 87.4547 92.2678 91.0508 89.5438 93.7748C86.8203 96.4981 83.1723 97.9886 79.3165 97.9886C75.6991 97.9886 72.2791 96.663 69.5819 94.202ZM72.27 72.3071C72.27 76.2118 75.4691 79.3536 79.3688 79.3536C83.2175 79.3536 86.4153 76.2106 86.4153 72.3071C86.4153 68.4073 83.2736 65.2083 79.3688 65.2083C75.4666 65.2083 72.27 68.4049 72.27 72.3071Z" fill="#E9EBEB" stroke="#32BAB0" stroke-width="0.5"/>
<path d="M110.484 58.8398L110.485 58.8395C112.47 57.9958 114.598 57.5347 116.777 57.5019V64.8456C111.683 64.9787 107.628 69.1684 107.628 74.2417V86.8528L100.285 86.8531V74.242C100.285 71.9731 100.697 69.8112 101.572 67.7533C102.449 65.7401 103.634 63.9391 105.176 62.449L105.176 62.449L105.179 62.4461C106.726 60.8989 108.529 59.663 110.484 58.8398Z" fill="#E9EBEB" stroke="#32BAB0" stroke-width="0.5"/>
<path d="M140.048 59.3346L140.003 57.9194L147.338 57.9197V86.8542H140.007L140.048 85.9126L140.066 85.4882L139.686 85.6781C137.627 86.7074 135.365 87.2725 133.053 87.2725C131.102 87.2725 129.149 86.862 127.347 86.1418C125.599 85.3701 124.057 84.3424 122.669 83.0063C121.333 81.618 120.305 80.0766 119.534 78.3286C118.813 76.5266 118.403 74.5727 118.403 72.6221C118.403 70.6712 118.813 68.7175 119.534 66.9156C120.307 65.164 121.335 63.5723 122.667 62.2395C124.057 60.9019 125.6 59.8733 127.35 59.1011C129.145 58.3319 131.097 57.9717 133.053 57.9717C135.365 57.9717 137.627 58.5367 139.686 59.566L140.061 59.7534L140.048 59.3346ZM139.385 76.3057L139.385 76.3057L139.387 76.3011C140.037 75.1649 140.361 73.9196 140.361 72.6219C140.361 71.5438 140.146 70.5136 139.658 69.5361C139.117 68.2938 138.198 67.2113 137.006 66.5044C135.861 65.6893 134.452 65.3139 133.053 65.3139C129.046 65.3139 125.745 68.615 125.745 72.622C125.745 76.629 129.047 79.9301 133.053 79.9301C134.353 79.9301 135.649 79.5523 136.731 78.9048C137.875 78.3039 138.74 77.3797 139.385 76.3057Z" fill="#E9EBEB" stroke="#32BAB0" stroke-width="0.5"/>
<path d="M160.992 85.7434V97.1076L153.65 94.6602V72.6206C153.65 70.6179 154.06 68.7164 154.78 66.9142C155.554 65.1626 156.582 63.5709 157.914 62.2381C159.304 60.9004 160.847 59.8719 162.596 59.0997C164.392 58.3305 166.344 57.9702 168.3 57.9702C170.308 57.9702 172.208 58.3303 174.004 59.0997C175.753 59.8715 177.295 60.8996 178.684 62.2364C180.021 63.6254 181.049 65.1678 181.821 66.9169C182.59 68.7126 182.95 70.6128 182.95 72.6206C182.95 74.5768 182.59 76.5291 181.821 78.3244C181.048 80.0752 180.02 81.617 178.684 82.9525C177.296 84.3413 175.755 85.3682 174.008 86.0874L174.008 86.0873L174.005 86.0887C172.205 86.86 170.252 87.271 168.3 87.271C166.348 87.271 164.395 86.86 162.595 86.0887L162.595 86.0885L162.584 86.0844C162.181 85.933 161.774 85.7301 161.354 85.5198L160.992 85.3389V85.7434ZM160.992 72.6203C160.992 76.6273 164.293 79.9284 168.3 79.9284C172.307 79.9284 175.608 76.6273 175.608 72.6203C175.608 68.6133 172.307 65.3122 168.3 65.3122C164.293 65.3122 160.992 68.6133 160.992 72.6203Z" fill="#E9EBEB" stroke="#32BAB0" stroke-width="0.5"/>
<path d="M109.387 20.1035C109.477 20.8713 109.522 21.6437 109.521 22.4167C109.52 26.857 108.003 31.1637 105.22 34.6238C102.437 38.0839 98.5559 40.4897 94.2191 41.4428C89.8823 42.396 85.35 41.8394 81.3728 39.8651C77.3956 37.8908 74.212 34.6173 72.3492 30.5866C75.933 29.156 78.8623 26.4521 80.5748 22.994C82.2872 19.5359 82.6622 15.5672 81.6278 11.8495C80.5933 8.13189 78.2223 4.92725 74.9698 2.85066C71.7173 0.774065 67.8125 -0.02817 64.0047 0.597924C60.197 1.22402 56.7546 3.23433 54.3382 6.24303C51.9219 9.25172 50.7018 13.0468 50.9122 16.9C51.1226 20.7531 52.7486 24.3928 55.4782 27.1205C58.2077 29.8483 61.8486 31.4718 65.7018 31.6796C67.9794 37.5969 72.3372 42.4801 77.9581 45.4138C83.579 48.3475 90.077 49.1302 96.2338 47.615C102.391 46.0999 107.783 42.391 111.401 37.1838C115.018 31.9765 116.612 25.6286 115.883 19.3302L109.387 20.1035ZM57.4425 16.0443C57.4425 14.2443 57.9761 12.4846 58.9758 10.9877C59.9755 9.49082 61.3964 8.32382 63.0591 7.6342C64.7218 6.94457 66.5516 6.76326 68.3173 7.11318C70.083 7.46311 71.7054 8.32855 72.9794 9.60017C74.2534 10.8718 75.1219 12.4925 75.4751 14.2575C75.8284 16.0226 75.6505 17.8527 74.9641 19.5167C74.2776 21.1807 73.1132 22.6038 71.6182 23.6064C70.1232 24.6089 68.3646 25.1458 66.5645 25.1491C64.1506 25.1464 61.8364 24.1863 60.1295 22.4794C58.4226 20.7725 57.4624 18.4582 57.4597 16.0443" fill="#E9EBEB"/>
<path d="M129.934 11.4421L115.003 0.515563C114.048 -0.171854 112.281 -0.171854 111.326 0.515563L96.0306 11.4421C94.4324 12.5832 93.6659 14.6179 94.7245 16.4258C95.6457 18.0069 98.0963 18.8799 99.7049 17.7319L113.14 8.13558L126.256 17.7319C127.848 18.8937 130.319 18 131.24 16.4258C132.319 14.5801 131.525 12.6072 129.934 11.4421Z" fill="#E9EBEB"/>
</svg>
