<svg width="260" height="161" viewBox="0 0 260 161" fill="none" xmlns="http://www.w3.org/2000/svg">
<path d="M90.1065 149.641H91.6536V159.52H96.585V160.922H90.1065V149.641Z" fill="white"/>
<path d="M101.815 152.346C103.137 152.346 104.136 152.738 104.813 153.522C105.49 154.296 105.828 155.376 105.828 156.762C105.828 156.977 105.823 157.138 105.812 157.245H99.0759C99.194 158.008 99.511 158.615 100.027 159.066C100.553 159.517 101.198 159.743 101.961 159.743C102.466 159.743 102.933 159.652 103.363 159.469C103.803 159.286 104.185 159.029 104.507 158.696L105.329 159.55C104.91 160.001 104.405 160.35 103.814 160.597C103.223 160.844 102.568 160.968 101.848 160.968C101.01 160.968 100.263 160.791 99.6077 160.436C98.963 160.071 98.4581 159.56 98.0928 158.905C97.7382 158.25 97.561 157.503 97.561 156.665C97.561 155.827 97.7382 155.086 98.0928 154.441C98.4581 153.786 98.963 153.275 99.6077 152.91C100.252 152.534 100.988 152.346 101.815 152.346ZM104.475 156.085C104.432 155.311 104.174 154.704 103.701 154.264C103.228 153.812 102.605 153.587 101.832 153.587C101.08 153.587 100.451 153.812 99.9461 154.264C99.4519 154.715 99.1564 155.322 99.0597 156.085H104.475Z" fill="white"/>
<path d="M112.447 160.358C111.791 160.777 111.125 160.987 110.448 160.987C109.772 160.987 109.224 160.788 108.805 160.391C108.386 159.982 108.176 159.37 108.176 158.553V153.832H106.967V152.687H108.176V150.399H109.691V152.687H112.302V153.832H109.691V158.279C109.691 158.752 109.777 159.091 109.949 159.295C110.121 159.499 110.379 159.601 110.722 159.601C111.131 159.601 111.571 159.467 112.044 159.198L112.447 160.358Z" fill="white"/>
<path d="M114.471 148.962C114.708 148.962 114.906 149.042 115.068 149.203C115.24 149.365 115.325 149.579 115.325 149.848C115.325 149.966 115.299 150.09 115.245 150.219C115.202 150.348 115.154 150.471 115.1 150.589L114.23 152.427H113.408L114.052 150.605C113.902 150.53 113.789 150.428 113.714 150.299C113.639 150.16 113.601 150.009 113.601 149.848C113.601 149.59 113.682 149.381 113.843 149.22C114.015 149.048 114.224 148.962 114.471 148.962Z" fill="white"/>
<path d="M122.192 154.28C121.837 154.065 121.445 153.893 121.015 153.764C120.596 153.635 120.193 153.571 119.807 153.571C119.355 153.571 118.99 153.657 118.711 153.829C118.442 153.99 118.308 154.242 118.308 154.586C118.308 154.93 118.458 155.193 118.759 155.376C119.071 155.548 119.538 155.725 120.161 155.908C120.752 156.079 121.236 156.251 121.612 156.423C121.988 156.595 122.305 156.848 122.562 157.181C122.831 157.514 122.965 157.954 122.965 158.502C122.965 159.308 122.659 159.92 122.047 160.339C121.445 160.758 120.693 160.968 119.79 160.968C119.157 160.968 118.539 160.866 117.937 160.662C117.346 160.457 116.847 160.167 116.438 159.791L117.002 158.695C117.357 159.018 117.792 159.276 118.308 159.469C118.834 159.662 119.345 159.759 119.839 159.759C120.333 159.759 120.731 159.668 121.031 159.485C121.332 159.303 121.483 159.023 121.483 158.647C121.483 158.26 121.321 157.97 120.999 157.777C120.688 157.584 120.209 157.39 119.565 157.197C118.995 157.036 118.528 156.874 118.163 156.713C117.808 156.541 117.502 156.294 117.244 155.972C116.997 155.65 116.874 155.231 116.874 154.715C116.874 153.92 117.164 153.324 117.744 152.926C118.324 152.529 119.049 152.33 119.919 152.33C120.435 152.33 120.94 152.405 121.434 152.555C121.939 152.695 122.374 152.889 122.74 153.136L122.192 154.28Z" fill="white"/>
<path d="M133.76 160.358C133.104 160.777 132.438 160.987 131.761 160.987C131.085 160.987 130.537 160.788 130.118 160.391C129.699 159.982 129.489 159.37 129.489 158.553V153.832H128.28V152.687H129.489V150.399H131.004V152.687H133.615V153.832H131.004V158.279C131.004 158.752 131.09 159.091 131.262 159.295C131.434 159.499 131.692 159.601 132.035 159.601C132.444 159.601 132.884 159.467 133.357 159.198L133.76 160.358Z" fill="white"/>
<path d="M137.068 154.234C137.348 153.622 137.745 153.16 138.261 152.848C138.777 152.526 139.389 152.36 140.098 152.349V153.799C139.228 153.767 138.524 153.993 137.987 154.476C137.45 154.96 137.144 155.61 137.068 156.426V160.922H135.57V152.397H137.068V154.234Z" fill="white"/>
<path d="M146.567 160.922V159.73C145.933 160.568 144.939 160.987 143.585 160.987C142.994 160.987 142.473 160.874 142.022 160.648C141.582 160.423 141.238 160.111 140.991 159.714C140.754 159.316 140.636 158.87 140.636 158.376C140.636 157.613 140.915 157.012 141.474 156.571C142.043 156.12 142.833 155.889 143.843 155.878H146.55V155.475C146.55 154.874 146.362 154.412 145.986 154.089C145.621 153.756 145.084 153.59 144.375 153.59C143.515 153.59 142.64 153.896 141.748 154.508L141.12 153.477C141.732 153.079 142.296 152.795 142.812 152.623C143.338 152.44 143.961 152.349 144.681 152.349C145.745 152.349 146.567 152.612 147.147 153.139C147.727 153.654 148.022 154.379 148.033 155.314L148.049 160.922H146.567ZM143.891 159.746C144.59 159.746 145.181 159.579 145.664 159.246C146.158 158.903 146.454 158.451 146.55 157.893V157.039H144.053C143.376 157.039 142.871 157.141 142.538 157.345C142.215 157.549 142.054 157.871 142.054 158.312C142.054 158.752 142.221 159.101 142.554 159.359C142.887 159.617 143.333 159.746 143.891 159.746Z" fill="white"/>
<path d="M158.653 148.962V160.919H157.155V159.227C156.832 159.797 156.397 160.237 155.849 160.549C155.312 160.85 154.683 161 153.964 161C153.158 161 152.443 160.817 151.82 160.452C151.208 160.076 150.73 159.56 150.386 158.905C150.042 158.239 149.87 157.481 149.87 156.633C149.87 155.795 150.042 155.053 150.386 154.409C150.73 153.753 151.208 153.243 151.82 152.878C152.443 152.512 153.153 152.33 153.948 152.33C154.678 152.33 155.317 152.48 155.865 152.781C156.413 153.082 156.843 153.517 157.155 154.086V148.962H158.653ZM154.27 159.711C154.829 159.711 155.323 159.582 155.753 159.324C156.193 159.066 156.537 158.706 156.784 158.244C157.031 157.782 157.155 157.261 157.155 156.681C157.155 156.09 157.031 155.564 156.784 155.102C156.537 154.64 156.193 154.28 155.753 154.022C155.323 153.764 154.829 153.635 154.27 153.635C153.711 153.635 153.212 153.77 152.771 154.038C152.341 154.296 152.003 154.656 151.756 155.118C151.509 155.58 151.385 156.101 151.385 156.681C151.385 157.261 151.509 157.782 151.756 158.244C152.003 158.706 152.341 159.066 152.771 159.324C153.212 159.582 153.711 159.711 154.27 159.711Z" fill="white"/>
<path d="M165.079 152.346C166.401 152.346 167.4 152.738 168.077 153.522C168.754 154.296 169.092 155.376 169.092 156.762C169.092 156.977 169.087 157.138 169.076 157.245H162.34C162.458 158.008 162.775 158.615 163.291 159.066C163.817 159.517 164.462 159.743 165.224 159.743C165.729 159.743 166.197 159.652 166.627 159.469C167.067 159.286 167.448 159.029 167.771 158.696L168.593 159.55C168.174 160.001 167.669 160.35 167.078 160.597C166.487 160.844 165.832 160.968 165.112 160.968C164.274 160.968 163.527 160.791 162.872 160.436C162.227 160.071 161.722 159.56 161.357 158.905C161.002 158.25 160.825 157.503 160.825 156.665C160.825 155.827 161.002 155.086 161.357 154.441C161.722 153.786 162.227 153.275 162.872 152.91C163.516 152.534 164.252 152.346 165.079 152.346ZM167.739 156.085C167.696 155.311 167.438 154.704 166.965 154.264C166.492 153.812 165.869 153.587 165.096 153.587C164.344 153.587 163.715 153.812 163.21 154.264C162.716 154.715 162.42 155.322 162.324 156.085H167.739Z" fill="white"/>
<path d="M0.25 105.263V82.2864H10.8456V105.263C10.8456 109.469 14.2862 112.91 18.4927 112.91C22.6991 112.91 26.1397 109.469 26.1397 105.263V82.2864H36.7354V105.263C36.7354 110.153 34.8382 114.75 31.4088 118.179C27.9792 121.608 23.383 123.506 18.4927 123.506C13.6024 123.506 9.00589 121.609 5.57652 118.179C2.14727 114.749 0.25 110.153 0.25 105.263Z" fill="white" stroke="#32BAB0" stroke-width="0.5"/>
<path d="M56.2006 121.314V137.536L45.605 134.004V102.747C45.605 99.8984 46.1888 97.1945 47.2128 94.6331C48.3114 92.1441 49.7734 89.8801 51.6697 87.9833C53.6447 86.0818 55.8383 84.6194 58.3256 83.5219C60.8801 82.4274 63.6567 81.9153 66.4368 81.9153C69.2908 81.9153 71.9933 82.4272 74.548 83.5219C77.0345 84.6191 79.2276 86.081 81.2022 87.9817C83.103 89.9563 84.5648 92.1494 85.662 94.636C86.7567 97.1908 87.2686 99.8935 87.2686 102.747C87.2686 105.527 86.7565 108.304 85.662 110.858C84.564 113.346 83.1018 115.539 81.2022 117.438C79.2279 119.413 77.0364 120.874 74.5525 121.896L74.5492 121.898C71.9904 122.994 69.2129 123.579 66.4368 123.579C63.6604 123.579 60.8831 122.994 58.3244 121.898L58.3245 121.897L58.3137 121.893C57.7364 121.677 57.1565 121.387 56.5624 121.09L56.2006 120.909V121.314ZM56.201 102.747C56.201 108.359 60.8253 112.983 66.4371 112.983C72.0491 112.983 76.6733 108.359 76.6733 102.747C76.6733 97.1346 72.0491 92.5104 66.4371 92.5104C60.8251 92.5104 56.201 97.1346 56.201 102.747Z" fill="white" stroke="#32BAB0" stroke-width="0.5"/>
<path d="M98.2997 133.286L105.648 125.585C107.447 127.225 109.801 128.147 112.295 128.147C116.773 128.147 120.643 125.111 121.782 120.935L121.929 120.396L121.429 120.646C118.654 122.033 115.512 122.765 112.295 122.765C106.812 122.765 101.624 120.645 97.7513 116.772C93.8778 112.899 91.759 107.784 91.759 102.303C91.759 96.8214 93.8778 91.7071 97.7513 87.8336C97.7513 87.8336 97.7513 87.8336 97.7513 87.8336M98.2997 133.286L97.7513 87.8336M98.2997 133.286C102.147 136.832 107.041 138.743 112.221 138.743C117.703 138.743 122.891 136.623 126.764 132.75C130.638 128.877 132.756 123.762 132.756 118.281V102.303C132.756 96.8218 130.637 91.7072 126.764 87.834L126.691 87.7608V87.7607C122.826 83.9338 117.669 81.8413 112.295 81.8413C106.812 81.8413 101.624 83.9608 97.7513 87.8336M98.2997 133.286L97.7513 87.8336M102.355 102.303C102.355 107.77 106.833 112.169 112.295 112.169C117.683 112.169 122.161 107.768 122.161 102.303C122.161 96.8421 117.761 92.3634 112.295 92.3634C106.831 92.3634 102.355 96.8396 102.355 102.303Z" fill="white" stroke="#32BAB0" stroke-width="0.5"/>
<path d="M156.278 83.1537L156.278 83.1533C159.131 81.9409 162.192 81.2845 165.325 81.2513V91.8479C158.127 91.9818 152.38 97.8851 152.38 105.04V122.987L141.784 122.987V105.041C141.784 101.818 142.37 98.7449 143.613 95.8194C144.859 92.9604 146.543 90.4002 148.735 88.2812L148.735 88.2812L148.738 88.2782C150.936 86.0803 153.498 84.3239 156.278 83.1537Z" fill="white" stroke="#32BAB0" stroke-width="0.5"/>
<path d="M198.042 83.9525L197.977 81.8433L208.564 81.8438V122.989H197.98L198.042 121.549L198.061 121.124L197.681 121.314C194.754 122.777 191.538 123.581 188.25 123.581C185.475 123.581 182.697 122.997 180.136 121.973C177.651 120.876 175.459 119.414 173.485 117.514C171.585 115.541 170.123 113.348 169.026 110.863C168.002 108.302 167.418 105.524 167.418 102.749C167.418 99.974 168.002 97.1961 169.026 94.6351C170.125 92.1461 171.587 89.882 173.483 87.9853C175.458 86.0838 177.652 84.6214 180.139 83.5239C182.693 82.4294 185.47 81.9172 188.25 81.9172C191.538 81.9172 194.755 82.7209 197.681 84.1839L198.056 84.3713L198.042 83.9525ZM197.119 107.907L197.119 107.907L197.122 107.903C198.031 106.311 198.486 104.567 198.486 102.749C198.486 101.237 198.184 99.7946 197.501 98.4267C196.743 96.6856 195.455 95.1693 193.787 94.1804C192.186 93.04 190.213 92.5128 188.25 92.5128C182.638 92.5128 178.014 97.1369 178.014 102.749C178.014 108.361 182.639 112.985 188.25 112.985C190.07 112.985 191.887 112.455 193.403 111.548C195.002 110.708 196.215 109.415 197.119 107.907Z" fill="white" stroke="#32BAB0" stroke-width="0.5"/>
<path d="M227.882 121.314V137.536L217.287 134.004V102.747C217.287 99.8984 217.871 97.1945 218.895 94.6331C219.993 92.1441 221.455 89.8801 223.352 87.9833C225.327 86.0818 227.52 84.6194 230.007 83.5219C232.562 82.4274 235.338 81.9153 238.119 81.9153C240.973 81.9153 243.675 82.4272 246.23 83.5219C248.716 84.6191 250.909 86.081 252.884 87.9817C254.785 89.9563 256.247 92.1494 257.344 94.636C258.438 97.1908 258.95 99.8935 258.95 102.747C258.95 105.527 258.438 108.304 257.344 110.858C256.246 113.346 254.784 115.539 252.884 117.438C250.91 119.413 248.718 120.874 246.234 121.896L246.231 121.898C243.672 122.994 240.895 123.579 238.119 123.579C235.342 123.579 232.565 122.994 230.006 121.898L230.006 121.897L229.995 121.893C229.418 121.677 228.838 121.387 228.244 121.09L227.882 120.909V121.314ZM227.883 102.747C227.883 108.359 232.507 112.983 238.119 112.983C243.731 112.983 248.355 108.359 248.355 102.747C248.355 97.1346 243.731 92.5104 238.119 92.5104C232.507 92.5104 227.883 97.1346 227.883 102.747Z" fill="white" stroke="#32BAB0" stroke-width="0.5"/>
<path d="M154.766 28.4434C154.893 29.5298 154.956 30.6225 154.956 31.7162C154.954 37.9985 152.807 44.0919 148.87 48.9874C144.933 53.8829 139.441 57.2867 133.306 58.6353C127.17 59.9839 120.757 59.1963 115.13 56.403C109.503 53.6097 104.999 48.9782 102.363 43.2754C107.434 41.2513 111.578 37.4258 114.001 32.5331C116.424 27.6404 116.954 22.0252 115.491 16.7653C114.027 11.5054 110.673 6.97137 106.071 4.03332C101.469 1.09526 95.9442 -0.0397813 90.5568 0.846045C85.1694 1.73187 80.299 4.57615 76.8802 8.833C73.4615 13.0898 71.7353 18.4593 72.033 23.9109C72.3306 29.3625 74.6312 34.5122 78.4931 38.3715C82.355 42.2308 87.5062 44.5279 92.958 44.8218C96.1804 53.1938 102.346 60.1029 110.299 64.2537C118.251 68.4044 127.445 69.5117 136.156 67.368C144.867 65.2243 152.497 59.9768 157.615 52.6094C162.733 45.242 164.988 36.2606 163.957 27.3493L154.766 28.4434ZM81.2723 22.7003C81.2724 20.1535 82.0272 17.6639 83.4417 15.546C84.8561 13.4281 86.8665 11.777 89.219 10.8013C91.5714 9.82557 94.1603 9.56905 96.6585 10.0641C99.1567 10.5592 101.452 11.7837 103.255 13.5828C105.057 15.382 106.286 17.675 106.786 20.1723C107.286 22.6695 107.034 25.2589 106.063 27.6132C105.091 29.9675 103.444 31.981 101.329 33.3994C99.2136 34.8178 96.7254 35.5774 94.1786 35.5823C90.7633 35.5784 87.489 34.2199 85.074 31.805C82.659 29.39 81.3005 26.1156 81.2967 22.7003" fill="white"/>
<path d="M183.837 16.1887L162.712 0.729442C161.36 -0.243147 158.861 -0.243147 157.509 0.729442L135.869 16.1887C133.607 17.8032 132.523 20.6821 134.021 23.24C135.324 25.477 138.791 26.7122 141.067 25.0879L160.076 11.5106L178.633 25.0879C180.885 26.7316 184.381 25.4672 185.685 23.24C187.212 20.6286 186.088 17.8373 183.837 16.1887Z" fill="white"/>
</svg>
