<svg width="290" height="65" viewBox="0 0 290 65" fill="none" xmlns="http://www.w3.org/2000/svg">
<rect width="290" height="65" rx="10" fill="#32BAB0"/>
<path d="M73.168 38L70.752 34.56C70.4533 34.5813 70.2187 34.592 70.048 34.592H67.28V38H65.68V26.8H70.048C71.4987 26.8 72.64 27.1467 73.472 27.84C74.304 28.5333 74.72 29.488 74.72 30.704C74.72 31.568 74.5067 32.304 74.08 32.912C73.6533 33.52 73.0453 33.9627 72.256 34.24L74.912 38H73.168ZM70 33.232C71.0133 33.232 71.7867 33.0133 72.32 32.576C72.8533 32.1387 73.12 31.5147 73.12 30.704C73.12 29.8933 72.8533 29.2747 72.32 28.848C71.7867 28.4107 71.0133 28.192 70 28.192H67.28V33.232H70ZM84.745 33.808C84.745 33.9253 84.7343 34.08 84.713 34.272H77.833C77.929 35.0187 78.2543 35.6213 78.809 36.08C79.3743 36.528 80.073 36.752 80.905 36.752C81.9183 36.752 82.7343 36.4107 83.353 35.728L84.201 36.72C83.817 37.168 83.337 37.5093 82.761 37.744C82.1957 37.9787 81.561 38.096 80.857 38.096C79.961 38.096 79.1663 37.9147 78.473 37.552C77.7797 37.1787 77.241 36.6613 76.857 36C76.4837 35.3387 76.297 34.592 76.297 33.76C76.297 32.9387 76.4783 32.1973 76.841 31.536C77.2143 30.8747 77.721 30.3627 78.361 30C79.0117 29.6267 79.7423 29.44 80.553 29.44C81.3637 29.44 82.0837 29.6267 82.713 30C83.353 30.3627 83.849 30.8747 84.201 31.536C84.5637 32.1973 84.745 32.9547 84.745 33.808ZM80.553 30.736C79.817 30.736 79.1983 30.96 78.697 31.408C78.2063 31.856 77.9183 32.4427 77.833 33.168H83.273C83.1877 32.4533 82.8943 31.872 82.393 31.424C81.9023 30.9653 81.289 30.736 80.553 30.736ZM94.9899 29.52V36.848C94.9899 38.3307 94.6219 39.424 93.8859 40.128C93.1499 40.8427 92.0512 41.2 90.5899 41.2C89.7899 41.2 89.0272 41.088 88.3019 40.864C87.5765 40.6507 86.9899 40.3413 86.5419 39.936L87.2779 38.752C87.6725 39.0933 88.1579 39.36 88.7339 39.552C89.3205 39.7547 89.9232 39.856 90.5419 39.856C91.5339 39.856 92.2645 39.6213 92.7339 39.152C93.2139 38.6827 93.4539 37.968 93.4539 37.008V36.336C93.0912 36.7733 92.6432 37.104 92.1099 37.328C91.5872 37.5413 91.0165 37.648 90.3979 37.648C89.5872 37.648 88.8512 37.4773 88.1899 37.136C87.5392 36.784 87.0272 36.2987 86.6539 35.68C86.2805 35.0507 86.0939 34.336 86.0939 33.536C86.0939 32.736 86.2805 32.0267 86.6539 31.408C87.0272 30.7787 87.5392 30.2933 88.1899 29.952C88.8512 29.6107 89.5872 29.44 90.3979 29.44C91.0379 29.44 91.6299 29.5573 92.1739 29.792C92.7285 30.0267 93.1819 30.3733 93.5339 30.832V29.52H94.9899ZM90.5739 36.304C91.1285 36.304 91.6245 36.1867 92.0619 35.952C92.5099 35.7173 92.8565 35.392 93.1019 34.976C93.3579 34.5493 93.4859 34.0693 93.4859 33.536C93.4859 32.7147 93.2139 32.0533 92.6699 31.552C92.1259 31.04 91.4272 30.784 90.5739 30.784C89.7099 30.784 89.0059 31.04 88.4619 31.552C87.9179 32.0533 87.6459 32.7147 87.6459 33.536C87.6459 34.0693 87.7685 34.5493 88.0139 34.976C88.2699 35.392 88.6165 35.7173 89.0539 35.952C89.5019 36.1867 90.0085 36.304 90.5739 36.304ZM97.9248 29.52H99.4608V38H97.9248V29.52ZM98.6928 27.888C98.3941 27.888 98.1434 27.792 97.9408 27.6C97.7488 27.408 97.6528 27.1733 97.6528 26.896C97.6528 26.6187 97.7488 26.384 97.9408 26.192C98.1434 25.9893 98.3941 25.888 98.6928 25.888C98.9914 25.888 99.2368 25.984 99.4288 26.176C99.6314 26.3573 99.7328 26.5867 99.7328 26.864C99.7328 27.152 99.6314 27.3973 99.4288 27.6C99.2368 27.792 98.9914 27.888 98.6928 27.888ZM104.826 38.096C104.132 38.096 103.466 38.0053 102.826 37.824C102.186 37.632 101.684 37.392 101.322 37.104L101.962 35.888C102.335 36.1547 102.788 36.368 103.322 36.528C103.855 36.688 104.394 36.768 104.938 36.768C106.282 36.768 106.954 36.384 106.954 35.616C106.954 35.36 106.863 35.1573 106.682 35.008C106.5 34.8587 106.271 34.752 105.994 34.688C105.727 34.6133 105.343 34.5333 104.842 34.448C104.159 34.3413 103.599 34.2187 103.162 34.08C102.735 33.9413 102.367 33.7067 102.058 33.376C101.748 33.0453 101.594 32.5813 101.594 31.984C101.594 31.216 101.914 30.6027 102.554 30.144C103.194 29.6747 104.052 29.44 105.13 29.44C105.695 29.44 106.26 29.5093 106.826 29.648C107.391 29.7867 107.855 29.9733 108.218 30.208L107.562 31.424C106.868 30.976 106.052 30.752 105.114 30.752C104.463 30.752 103.967 30.8587 103.626 31.072C103.284 31.2853 103.114 31.568 103.114 31.92C103.114 32.1973 103.21 32.416 103.402 32.576C103.594 32.736 103.828 32.8533 104.106 32.928C104.394 33.0027 104.794 33.088 105.306 33.184C105.988 33.3013 106.538 33.4293 106.954 33.568C107.38 33.696 107.743 33.92 108.042 34.24C108.34 34.56 108.49 35.008 108.49 35.584C108.49 36.352 108.159 36.9653 107.498 37.424C106.847 37.872 105.956 38.096 104.826 38.096ZM115.177 37.504C114.953 37.696 114.676 37.8453 114.345 37.952C114.014 38.048 113.673 38.096 113.321 38.096C112.468 38.096 111.806 37.8667 111.337 37.408C110.868 36.9493 110.633 36.2933 110.633 35.44V30.784H109.193V29.52H110.633V27.664H112.169V29.52H114.601V30.784H112.169V35.376C112.169 35.8347 112.281 36.1867 112.505 36.432C112.74 36.6773 113.07 36.8 113.497 36.8C113.966 36.8 114.366 36.6667 114.697 36.4L115.177 37.504ZM118.506 30.944C118.773 30.4533 119.167 30.08 119.69 29.824C120.213 29.568 120.847 29.44 121.594 29.44V30.928C121.509 30.9173 121.391 30.912 121.242 30.912C120.41 30.912 119.754 31.1627 119.274 31.664C118.805 32.1547 118.57 32.8587 118.57 33.776V38H117.034V29.52H118.506V30.944ZM127.041 38.096C126.198 38.096 125.441 37.9093 124.769 37.536C124.097 37.1627 123.569 36.6507 123.185 36C122.812 35.3387 122.625 34.592 122.625 33.76C122.625 32.928 122.812 32.1867 123.185 31.536C123.569 30.8747 124.097 30.3627 124.769 30C125.441 29.6267 126.198 29.44 127.041 29.44C127.884 29.44 128.636 29.6267 129.297 30C129.969 30.3627 130.492 30.8747 130.865 31.536C131.249 32.1867 131.441 32.928 131.441 33.76C131.441 34.592 131.249 35.3387 130.865 36C130.492 36.6507 129.969 37.1627 129.297 37.536C128.636 37.9093 127.884 38.096 127.041 38.096ZM127.041 36.752C127.585 36.752 128.07 36.6293 128.497 36.384C128.934 36.128 129.276 35.776 129.521 35.328C129.766 34.8693 129.889 34.3467 129.889 33.76C129.889 33.1733 129.766 32.656 129.521 32.208C129.276 31.7493 128.934 31.3973 128.497 31.152C128.07 30.9067 127.585 30.784 127.041 30.784C126.497 30.784 126.006 30.9067 125.569 31.152C125.142 31.3973 124.801 31.7493 124.545 32.208C124.3 32.656 124.177 33.1733 124.177 33.76C124.177 34.3467 124.3 34.8693 124.545 35.328C124.801 35.776 125.142 36.128 125.569 36.384C126.006 36.6293 126.497 36.752 127.041 36.752ZM141.558 38.096C140.694 38.096 139.921 37.9093 139.238 37.536C138.566 37.1627 138.038 36.6507 137.654 36C137.27 35.3387 137.078 34.592 137.078 33.76C137.078 32.928 137.27 32.1867 137.654 31.536C138.038 30.8747 138.566 30.3627 139.238 30C139.921 29.6267 140.694 29.44 141.558 29.44C142.326 29.44 143.009 29.5947 143.606 29.904C144.214 30.2133 144.684 30.6613 145.014 31.248L143.846 32C143.58 31.5947 143.249 31.2907 142.854 31.088C142.46 30.8853 142.022 30.784 141.542 30.784C140.988 30.784 140.486 30.9067 140.038 31.152C139.601 31.3973 139.254 31.7493 138.998 32.208C138.753 32.656 138.63 33.1733 138.63 33.76C138.63 34.3573 138.753 34.8853 138.998 35.344C139.254 35.792 139.601 36.1387 140.038 36.384C140.486 36.6293 140.988 36.752 141.542 36.752C142.022 36.752 142.46 36.6507 142.854 36.448C143.249 36.2453 143.58 35.9413 143.846 35.536L145.014 36.272C144.684 36.8587 144.214 37.312 143.606 37.632C143.009 37.9413 142.326 38.096 141.558 38.096ZM150.51 38.096C149.667 38.096 148.91 37.9093 148.238 37.536C147.566 37.1627 147.038 36.6507 146.654 36C146.281 35.3387 146.094 34.592 146.094 33.76C146.094 32.928 146.281 32.1867 146.654 31.536C147.038 30.8747 147.566 30.3627 148.238 30C148.91 29.6267 149.667 29.44 150.51 29.44C151.353 29.44 152.105 29.6267 152.766 30C153.438 30.3627 153.961 30.8747 154.334 31.536C154.718 32.1867 154.91 32.928 154.91 33.76C154.91 34.592 154.718 35.3387 154.334 36C153.961 36.6507 153.438 37.1627 152.766 37.536C152.105 37.9093 151.353 38.096 150.51 38.096ZM150.51 36.752C151.054 36.752 151.539 36.6293 151.966 36.384C152.403 36.128 152.745 35.776 152.99 35.328C153.235 34.8693 153.358 34.3467 153.358 33.76C153.358 33.1733 153.235 32.656 152.99 32.208C152.745 31.7493 152.403 31.3973 151.966 31.152C151.539 30.9067 151.054 30.784 150.51 30.784C149.966 30.784 149.475 30.9067 149.038 31.152C148.611 31.3973 148.27 31.7493 148.014 32.208C147.769 32.656 147.646 33.1733 147.646 33.76C147.646 34.3467 147.769 34.8693 148.014 35.328C148.27 35.776 148.611 36.128 149.038 36.384C149.475 36.6293 149.966 36.752 150.51 36.752ZM161.562 29.44C162.639 29.44 163.493 29.7547 164.122 30.384C164.762 31.0027 165.082 31.9147 165.082 33.12V38H163.546V33.296C163.546 32.4747 163.349 31.856 162.954 31.44C162.559 31.024 161.994 30.816 161.258 30.816C160.426 30.816 159.77 31.0613 159.29 31.552C158.81 32.032 158.57 32.7253 158.57 33.632V38H157.034V29.52H158.506V30.8C158.815 30.3627 159.231 30.0267 159.754 29.792C160.287 29.5573 160.89 29.44 161.562 29.44ZM175.918 38.096C175.054 38.096 174.28 37.9093 173.598 37.536C172.926 37.1627 172.398 36.6507 172.014 36C171.63 35.3387 171.438 34.592 171.438 33.76C171.438 32.928 171.63 32.1867 172.014 31.536C172.398 30.8747 172.926 30.3627 173.598 30C174.28 29.6267 175.054 29.44 175.918 29.44C176.686 29.44 177.368 29.5947 177.966 29.904C178.574 30.2133 179.043 30.6613 179.374 31.248L178.206 32C177.939 31.5947 177.608 31.2907 177.214 31.088C176.819 30.8853 176.382 30.784 175.902 30.784C175.347 30.784 174.846 30.9067 174.398 31.152C173.96 31.3973 173.614 31.7493 173.358 32.208C173.112 32.656 172.99 33.1733 172.99 33.76C172.99 34.3573 173.112 34.8853 173.358 35.344C173.614 35.792 173.96 36.1387 174.398 36.384C174.846 36.6293 175.347 36.752 175.902 36.752C176.382 36.752 176.819 36.6507 177.214 36.448C177.608 36.2453 177.939 35.9413 178.206 35.536L179.374 36.272C179.043 36.8587 178.574 37.312 177.966 37.632C177.368 37.9413 176.686 38.096 175.918 38.096ZM188.901 33.808C188.901 33.9253 188.891 34.08 188.869 34.272H181.989C182.085 35.0187 182.411 35.6213 182.965 36.08C183.531 36.528 184.229 36.752 185.061 36.752C186.075 36.752 186.891 36.4107 187.509 35.728L188.357 36.72C187.973 37.168 187.493 37.5093 186.917 37.744C186.352 37.9787 185.717 38.096 185.013 38.096C184.117 38.096 183.323 37.9147 182.629 37.552C181.936 37.1787 181.397 36.6613 181.013 36C180.64 35.3387 180.453 34.592 180.453 33.76C180.453 32.9387 180.635 32.1973 180.997 31.536C181.371 30.8747 181.877 30.3627 182.517 30C183.168 29.6267 183.899 29.44 184.709 29.44C185.52 29.44 186.24 29.6267 186.869 30C187.509 30.3627 188.005 30.8747 188.357 31.536C188.72 32.1973 188.901 32.9547 188.901 33.808ZM184.709 30.736C183.973 30.736 183.355 30.96 182.853 31.408C182.363 31.856 182.075 32.4427 181.989 33.168H187.429C187.344 32.4533 187.051 31.872 186.549 31.424C186.059 30.9653 185.445 30.736 184.709 30.736ZM191.034 26.128H192.57V38H191.034V26.128ZM203.407 29.52V38H201.951V36.72C201.642 37.1573 201.231 37.4987 200.719 37.744C200.218 37.9787 199.668 38.096 199.071 38.096C197.94 38.096 197.05 37.7867 196.399 37.168C195.748 36.5387 195.423 35.616 195.423 34.4V29.52H196.959V34.224C196.959 35.0453 197.156 35.6693 197.551 36.096C197.946 36.512 198.511 36.72 199.247 36.72C200.058 36.72 200.698 36.4747 201.167 35.984C201.636 35.4933 201.871 34.8 201.871 33.904V29.52H203.407ZM206.331 26.128H207.867V38H206.331V26.128ZM213.888 29.44C215.061 29.44 215.957 29.728 216.576 30.304C217.205 30.88 217.52 31.7387 217.52 32.88V38H216.064V36.88C215.808 37.2747 215.44 37.5787 214.96 37.792C214.49 37.9947 213.93 38.096 213.28 38.096C212.33 38.096 211.568 37.8667 210.992 37.408C210.426 36.9493 210.144 36.3467 210.144 35.6C210.144 34.8533 210.416 34.256 210.96 33.808C211.504 33.3493 212.368 33.12 213.552 33.12H215.984V32.816C215.984 32.1547 215.792 31.648 215.408 31.296C215.024 30.944 214.458 30.768 213.712 30.768C213.21 30.768 212.72 30.8533 212.24 31.024C211.76 31.184 211.354 31.4027 211.024 31.68L210.384 30.528C210.821 30.176 211.344 29.9093 211.952 29.728C212.56 29.536 213.205 29.44 213.888 29.44ZM213.536 36.912C214.122 36.912 214.629 36.784 215.056 36.528C215.482 36.2613 215.792 35.888 215.984 35.408V34.224H213.616C212.314 34.224 211.664 34.6613 211.664 35.536C211.664 35.9627 211.829 36.2987 212.16 36.544C212.49 36.7893 212.949 36.912 213.536 36.912ZM221.834 30.944C222.101 30.4533 222.496 30.08 223.018 29.824C223.541 29.568 224.176 29.44 224.922 29.44V30.928C224.837 30.9173 224.72 30.912 224.57 30.912C223.738 30.912 223.082 31.1627 222.602 31.664C222.133 32.1547 221.898 32.8587 221.898 33.776V38H220.362V29.52H221.834V30.944Z" fill="white"/>
<path d="M32.5595 31.6019C33.5968 33.7226 35.3158 35.4338 37.4412 36.4614C37.5967 36.5351 37.7687 36.567 37.9403 36.554C38.1119 36.541 38.2771 36.4836 38.4198 36.3874L41.5492 34.3006C41.6877 34.2083 41.8469 34.152 42.0126 34.1368C42.1782 34.1215 42.3451 34.1479 42.498 34.2134L48.3526 36.7225C48.5515 36.807 48.7175 36.9538 48.8257 37.1409C48.9339 37.328 48.9783 37.5451 48.9524 37.7596C48.7673 39.2076 48.0608 40.5385 46.9652 41.5031C45.8695 42.4678 44.4598 42.9999 43 43C38.4913 43 34.1673 41.2089 30.9792 38.0208C27.7911 34.8327 26 30.5087 26 26C26.0001 24.5402 26.5322 23.1305 27.4969 22.0348C28.4615 20.9392 29.7924 20.2327 31.2404 20.0476C31.4549 20.0217 31.672 20.0661 31.8591 20.1743C32.0461 20.2825 32.193 20.4485 32.2775 20.6474L34.7888 26.5071C34.8537 26.6587 34.8802 26.824 34.8658 26.9883C34.8514 27.1525 34.7967 27.3107 34.7064 27.4487L32.6268 30.6261C32.5322 30.7691 32.4762 30.9341 32.4644 31.1051C32.4526 31.2762 32.4854 31.4473 32.5595 31.6019V31.6019Z" stroke="white" stroke-width="2" stroke-linecap="round" stroke-linejoin="round"/>
</svg>
